<?xml version="1.0" encoding="utf-8"?>
<!-- Generator: Adobe Illustrator 26.2.1, SVG Export Plug-In . SVG Version: 6.00 Build 0)  -->
<svg version="1.1" id="Layer_1" xmlns="http://www.w3.org/2000/svg" xmlns:xlink="http://www.w3.org/1999/xlink" x="0px" y="0px"
	 viewBox="0 0 80 80" style="enable-background:new 0 0 80 80;" xml:space="preserve">
<style type="text/css">
	.st0{fill:#FFFFFF;}
	.st1{fill:#FFFFFF;filter:url(#Adobe_OpacityMaskFilter);}
	.st2{mask:url(#a_00000121275663731309625250000015372245720192865416_);}
	.st3{fill:#BBBBBB;}
	.st4{fill:#DDDDDD;}
	.st5{fill-rule:evenodd;clip-rule:evenodd;fill:#F4F3F2;}
	.st6{fill-rule:evenodd;clip-rule:evenodd;fill:#BBBBBB;}
	.st7{fill:#9C9C9C;}
	.st8{fill-rule:evenodd;clip-rule:evenodd;fill:#9C9C9C;}
</style>
<path class="st0" d="M0,0h80v80H0V0z"/>
<defs>
	<filter id="Adobe_OpacityMaskFilter" filterUnits="userSpaceOnUse" x="0" y="0" width="80" height="96">
		<feColorMatrix  type="matrix" values="1 0 0 0 0  0 1 0 0 0  0 0 1 0 0  0 0 0 1 0"/>
	</filter>
</defs>
<mask maskUnits="userSpaceOnUse" x="0" y="0" width="80" height="96" id="a_00000121275663731309625250000015372245720192865416_">
	<path class="st1" d="M0,0h80v80H0V0z"/>
</mask>
<g class="st2">
	<path class="st0" d="M40,80c22.1,0,40-17.9,40-40S62.1,0,40,0S0,17.9,0,40S17.9,80,40,80z"/>
	<path class="st0" d="M0,0h80v80H0V0z"/>
	<path class="st3" d="M24,57.4c10.3-4,21.7-4,32,0l-4,8.2H28L24,57.4z"/>
	<path class="st3" d="M24,57.6h3.2c1.8,0,3.2,1.4,3.2,3.2v4.8h-4.3L24,57.6z M56,57.6h-3.2c-1.8,0-3.2,1.4-3.2,3.2v4.8h4.3L56,57.6z
		"/>
	<path class="st4" d="M51.2,44.8H28.8v25.6h22.4C51.2,70.4,51.2,44.8,51.2,44.8z"/>
	<path class="st5" d="M40,54.4c-9.7,0-17.6-8.1-17.6-18.2v-6.8c0-10,7.9-18.2,17.6-18.2s17.6,8.1,17.6,18.2v6.8
		C57.6,46.3,49.7,54.4,40,54.4z"/>
	<path class="st6" d="M40,96c14.6,0,38.4-3.6,38.4-14.4v-2.9c0-3.8-2.8-8.2-6.2-9.7l-21-9.8L40,69l-11.3-9.8L7.8,69
		c-3.4,1.6-6.1,5.9-6.2,9.7c0,0.7,0,2.2,0,2.9C1.6,92.4,25.5,96,40,96z"/>
	<path class="st7" d="M40,70.4L28.8,59.2L40,68.4l11.2-9.2L40,70.4z"/>
	<path class="st8" d="M48.8,21.1c4.9,0,8.8,4.2,8.8,9.3V18.8c0-5.1-3.9-9.3-8.8-9.3h-1.1l-2.3-4.9c-0.6-1.2-1.9-1.7-3-1.2L28.5,9.2
		c-3.4,1.4-6.1,5.7-6.1,9.6v11.6c0-5.1,3.9-9.3,8.8-9.3C31.2,21.1,48.8,21.1,48.8,21.1z"/>
</g>
</svg>
