<?xml version="1.0" encoding="utf-8"?>
<!-- Generator: Adobe Illustrator 26.2.1, SVG Export Plug-In . SVG Version: 6.00 Build 0)  -->
<svg version="1.1" id="Layer_1" xmlns="http://www.w3.org/2000/svg" xmlns:xlink="http://www.w3.org/1999/xlink" x="0px" y="0px"
	 viewBox="0 0 116 116" style="enable-background:new 0 0 116 116;" xml:space="preserve">
<style type="text/css">
	.st0{filter:url(#Adobe_OpacityMaskFilter);}
	.st1{fill-rule:evenodd;clip-rule:evenodd;fill:#FFFFFF;}
	.st2{mask:url(#mask-2_00000116916477913016849930000003094439455902859675_);fill-rule:evenodd;clip-rule:evenodd;fill:#D8D8D8;}
	.st3{fill-rule:evenodd;clip-rule:evenodd;fill:#D8D8D8;}
</style>
<g id="stats_overview_placeholder_v2">
	<g id="Group-3" transform="translate(1.000000, 2.000000)">
		<g id="Clip-2">
		</g>
		<defs>
			<filter id="Adobe_OpacityMaskFilter" filterUnits="userSpaceOnUse" x="0" y="0" width="114" height="114">
				<feColorMatrix  type="matrix" values="1 0 0 0 0  0 1 0 0 0  0 0 1 0 0  0 0 0 1 0"/>
			</filter>
		</defs>
		
			<mask maskUnits="userSpaceOnUse" x="0" y="0" width="114" height="114" id="mask-2_00000116916477913016849930000003094439455902859675_">
			<g class="st0">
				<polygon id="path-1_00000111885274339958063220000000293286617763942581_" class="st1" points="0,0 114,0 114,114 0,114 				"/>
			</g>
		</mask>
		<path id="Fill-1" class="st2" d="M56,0.1C56.9,0,57.7,0,58.3,0c1.1,0,2.8,0.2,5.1,0.5c0.6,0.1,1.1,0.4,1.6,0.6
			c0.7,0.3,1.3,0.8,2.1,1c0.4,0.1,0.7,0.3,1.1,0.6c0.5,0.4,1.2,0.6,1.4,1.3c0,0.1,0.1,0.1,0.2,0.1c0.7,0.2,1.3,0.8,2,1
			c0.5,0.2,0.9,0.6,0.9,1.2c0,0.3,0.1,0.5,0.3,0.6c0.8,0.7,1,1.7,1.6,2.5c0.3,0.4,0.5,0.9,0.8,1.3c0.3,0.5,1,0.9,1.1,1.6
			c0.1,0.7,0.8,1.1,1,1.7c0,0.1,0.2,0.1,0.4,0.2c0.5,0.1,0.7,0.5,0.5,1c-0.2,0.3-0.3,0.5,0.2,0.4c0.3,0,0.3,0.2,0.2,0.3
			c-0.5,0.4-0.4,1.1-1,1.4c-0.3,0.2-0.3,0.4,0.1,0.6c0.5,0.2,1,0.5,1.3,0.9c-0.1,0.1-0.2,0.1-0.3,0c-1-0.2-1.3,0.1-1.3,1
			c0,0.7,0,1.3,0,2c0,0.7,0,1.4,0.2,2.1c0.3,1.1,0.4,2.2-0.2,3.2c-0.6,0.9-0.7,1.8-0.8,2.8c-0.2,1.4-0.3,2.7-0.9,4
			c-0.4,0.9-1.7,1.8-2.7,1.8c-0.5,0-0.6,0.2-0.6,0.6c0.1,0.6-0.1,1.3-0.2,1.9c-0.3,1.7-0.9,3.3-0.8,5.1c0.1,1.9,0,3.9,0,5.8
			c0,0.8,0,0.8,0.8,0.8c0.8,0,1.4,0.2,1.8,0.9c0.2,0.3,0.5,0.4,0.8,0.5c0.2,0.1,0.5,0.1,0.6,0.2c1,0.8,2.2,1.4,3.4,1.8
			c0.7,0.2,1.2,0.7,1.9,0.8c1.8,0.5,3.4,1.3,5.2,1.7c1.5,0.4,2.9,1,4.4,1.4c2.1,0.7,4.3,1.3,6.4,2.1c1.1,0.4,2.4,0.6,3.3,1.5
			c0.6,0.6,1.3,1.1,1.9,1.7c0.7,0.7,1.5,1.4,1.8,2.2c0.3,1,1,1.7,1.4,2.5c0.1,0.2,0.3,0.5,0.4,0.7c0.5,1.5,1.5,2.8,2,4.2
			c0.2,0.6,0.7,1.1,0.9,1.7c0.3,1.6,1,3.1,1.2,4.8c0.2,1.6,0.7,3.2,0.8,4.9c0,0.7,0.1,1.4,0.4,2c0.4,1.2,0.5,2.4,0.8,3.7
			c0.5,2.5,0.2,5.1,0.9,7.6c0.3,0.9,0.2,1.8,0.4,2.7c0.3,1.5,0.1,3,0.6,4.4c0,0,0,0.1,0,0.1c-0.1,1.2-0.1,2.4,0.4,3.5
			c0.3,0.8,0.1,1.1-0.8,1.4c-0.7,0.3-1,0.6-0.9,1.3c0.1,1.2,0,2.3,0,3.5H94.3c-0.1-0.4-0.1-0.9-0.1-1.3c0-0.3,0-0.5-0.2-0.7
			c-0.3-0.3-0.5-0.6-0.7-1c-0.4,1-0.3,2.1-0.3,3.1H0.4c0.4-1,0.3-2,0.4-3c0.2-1.6,0.4-3.1,0.5-4.7c0-0.6-0.1-1.1-0.5-1.5
			c-0.7-0.7-1-1.4-0.5-2.3c0.1-0.2,0.2-0.5,0.3-0.7c0.1-0.3,0.1-0.7,0-1c-0.5-1.1-0.3-2.1,0-3.1c0.5-1.7,1-3.3,1-5
			c0-0.9,0.2-1.7,0.5-2.5c0.2-0.7,0.5-1.4,0.7-2.1c0.3-1.1,0.5-2.2,0.7-3.3c0.3-1.8,0.8-3.6,0.8-5.4c0-0.6,0.1-1.1,0.2-1.7
			c0.1-0.5,0.1-1.1,0-1.6c-0.1-1.1,0.1-2.1,0.9-3c0.3-0.3,0.5-0.7,0.7-1.1c0.8-2.3,1.8-4.5,3.5-6.5c0.6-0.7,1.3-1.4,1.4-2.4
			c0.1-0.6,0.6-1,1.1-1.3c0.6-0.3,1.3-0.3,1.9-0.5c1.2-0.2,2.3-0.5,3.5-0.7c1.2-0.2,2.5-0.2,3.6-0.8c1.2-0.6,2.5-1,3.7-1.7
			c0.7-0.4,1.6-0.7,2.5-0.8c0.5,0,1.1-0.2,1.6-0.4c1.1-0.6,2.2-1.1,3.4-1.5c0.7-0.2,1.2-0.7,1.9-0.9c1.3-0.3,2.5-1,3.6-1.6
			c1.5-0.8,3.3-1.3,4.5-2.6c0,0,0.1-0.1,0.2-0.1c0.6-0.1,0.6-0.5,0.6-1c0-3.4,0-6.8-0.1-10.2c0-1.2-0.1-2.4-0.4-3.5
			c-0.1-0.2-0.1-0.4-0.3-0.4c-0.9-0.1-1.4-0.5-1.8-1.2c-0.1-0.2-0.3-0.3-0.4-0.4c-0.5-0.4-0.7-1-0.8-1.6c-0.2-1.2-0.3-2.3-0.9-3.4
			c-0.3-0.6-0.6-1.2-0.8-1.9c-0.2-1-0.6-2-0.5-3.1c0.1-1.1,0.5-1.6,1.4-1.6c0.6,0,0.7-0.2,0.7-0.7c0-1.8,0-3.5,0-5.3
			c0-1-0.1-2,0.6-2.9c0,0,0.1-0.1,0.1-0.2c0-1,0.6-1.8,1-2.7c0.3-0.7,1-1.2,1.2-1.8c0.3-1.2,1.3-1.8,2.2-2.5
			c0.7-0.6,1.4-1.3,2.4-1.5c0.2,0,0.3-0.2,0.4-0.4c0.1-0.1,0.2-0.3,0.4-0.4c0.7-0.2,1.1-0.6,1.6-1c1-0.9,2.6-0.8,3.6-1.7
			C54.2,0.3,55.4,0.2,56,0.1z"/>
	</g>
	<ellipse id="Oval" class="st3" cx="59.5" cy="3.5" rx="6.5" ry="2"/>
</g>
</svg>
