<?xml version="1.0" encoding="utf-8"?>
<!-- Generator: Adobe Illustrator 26.2.1, SVG Export Plug-In . SVG Version: 6.00 Build 0)  -->
<svg version="1.1" id="Layer_1" xmlns="http://www.w3.org/2000/svg" xmlns:xlink="http://www.w3.org/1999/xlink" x="0px" y="0px"
	 viewBox="0 0 590.6 400" style="enable-background:new 0 0 590.6 400;" xml:space="preserve">
<style type="text/css">
	.st0{fill:#FFFFFF;filter:url(#Adobe_OpacityMaskFilter);}
	.st1{mask:url(#a_00000103978767206111909550000007548490711049935029_);}
	.st2{fill:#FFFFFF;}
	.st3{fill:#BBBBBB;}
	.st4{fill:#DDDDDD;}
	.st5{fill-rule:evenodd;clip-rule:evenodd;fill:#F4F3F2;}
	.st6{fill-rule:evenodd;clip-rule:evenodd;fill:#BBBBBB;}
	.st7{fill:#9C9C9C;}
	.st8{fill-rule:evenodd;clip-rule:evenodd;fill:#9C9C9C;}
</style>
<defs>
	<filter id="Adobe_OpacityMaskFilter" filterUnits="userSpaceOnUse" x="89.2" y="0" width="396.7" height="476">
		<feColorMatrix  type="matrix" values="1 0 0 0 0  0 1 0 0 0  0 0 1 0 0  0 0 0 1 0"/>
	</filter>
</defs>
<mask maskUnits="userSpaceOnUse" x="89.2" y="0" width="396.7" height="476" id="a_00000103978767206111909550000007548490711049935029_">
	<path class="st0" d="M89.2,0h396.7v396.7H89.2V0z"/>
</mask>
<g class="st1">
	<path class="st2" d="M287.6,396.7c109.5,0,198.3-88.8,198.3-198.3S397.1,0,287.6,0S89.2,88.8,89.2,198.3S178,396.7,287.6,396.7z"/>
	<path class="st2" d="M89.2,0h396.7v396.7H89.2V0z"/>
	<path class="st3" d="M208.2,284.5c51.1-19.7,107.6-19.7,158.7,0l-19.8,40.8h-119L208.2,284.5z"/>
	<path class="st3" d="M208.2,285.6h15.9c8.8,0,15.9,7.1,15.9,15.9v23.8h-21.2L208.2,285.6z M366.9,285.6H351
		c-8.8,0-15.9,7.1-15.9,15.9v23.8h21.2L366.9,285.6z"/>
	<path class="st4" d="M343.1,222.1H232v126.9h111.1C343.1,349.1,343.1,222.1,343.1,222.1z"/>
	<path class="st5" d="M287.6,269.7c-48.2,0-87.3-40.4-87.3-90.2v-33.8c0-49.8,39.1-90.2,87.3-90.2s87.3,40.4,87.3,90.2v33.8
		C374.8,229.4,335.8,269.7,287.6,269.7z"/>
	<path class="st6" d="M287.6,476c72.2,0,190.4-17.9,190.4-71.5v-14.1c0-18.8-13.7-40.5-30.5-48.3l-103.9-48.5l-56,48.5l-56-48.5
		L127.7,342c-16.9,7.9-30.5,29.5-30.5,48.3c0,3.7,0,11.1,0,14.1C97.1,457.9,215.6,476,287.6,476z"/>
	<path class="st7" d="M287.6,349.1L232,293.5l55.5,45.4l55.5-45.4L287.6,349.1z"/>
	<path class="st8" d="M331.2,104.6c24.1,0,43.6,20.6,43.6,46.1V93.1c0-25.4-19.5-46.1-43.6-46.1h-5.4l-11.5-24.2
		c-2.8-5.9-9.4-8.5-15-6.1l-68.6,29c-16.8,7.1-30.4,28.3-30.4,47.4v57.6c0-25.5,19.5-46.1,43.6-46.1
		C243.9,104.6,331.2,104.6,331.2,104.6z"/>
</g>
</svg>
