<?xml version="1.0" encoding="utf-8"?>
<!-- Generator: Adobe Illustrator 26.2.1, SVG Export Plug-In . SVG Version: 6.00 Build 0)  -->
<svg version="1.1" id="LOGO" xmlns="http://www.w3.org/2000/svg" xmlns:xlink="http://www.w3.org/1999/xlink" x="0px" y="0px"
	 viewBox="0 0 1023.4 317.5" style="enable-background:new 0 0 1023.4 317.5;" xml:space="preserve">
<style type="text/css">
	.st0{display:none;fill:#D20515;}
	.st1{display:none;fill:#FFFFFF;}
	.st2{display:none;}
	.st3{display:inline;fill:#FFFFFF;}
	.st4{display:inline;fill-rule:evenodd;clip-rule:evenodd;fill:#D20515;}
	.st5{fill:#231F20;}
	.st6{fill-rule:evenodd;clip-rule:evenodd;fill:#D20515;}
</style>
<rect x="56.7" y="-1422.9" class="st0" width="255.1" height="204.1"/>
<path class="st1" d="M267-1315.5c0.1,0.5-0.3,0.9-1.2,1.5l-0.6,0.3l0.2,0.4c0.1,0.2-0.1,0.6-0.5,0.8l-0.8,0.4
	c-0.4,0.2-0.8,0.2-0.9-0.1l-0.2-0.3l-1.1,0.5l0.2,0.4c0.1,0.2-0.1,0.6-0.5,0.8l-0.9,0.4c-0.4,0.2-0.8,0.1-0.9-0.1l-0.1-0.3
	c-3.3,1.5-6.9,3.2-10.7,4.9l0.2,0.5c0.1,0.2-0.1,0.6-0.5,0.8l-0.9,0.4c-0.4,0.2-0.8,0.1-0.9-0.1l-0.2-0.5l-1.2,0.6l0.2,0.5
	c0.1,0.2-0.1,0.6-0.5,0.8l-0.9,0.4c-0.4,0.2-0.8,0.1-0.9-0.1l-0.2-0.5c-1.7,0.7-3.6,1-4.9-1.6c-0.6-1.2-0.6-3.9-1.1-5.3
	c-0.2-0.5-0.6-0.8-1.1-0.9c-16.6-3.2-22.2,0.4-32.9-2.3c-3.4-0.8-5.2-3.9-9.3-3.9c-9-0.3-11.6-0.1-21.4-0.5
	c-0.4,1.4-0.5,1.7-0.5,1.7l-34.3-0.2l5.2,2.6l1.7,15.1c0,0-1.4,0.4-1.8,0.4c0.3,3,0.6,7.1,0.8,10.8c0.1,3.3,0.3,6.7,0.3,8.9
	c0,1.4-0.3,2.8-1,4.1c-0.7,1.1-1.5,2-2.6,2.8c-0.3,0.2-1.6,1.1-3.2,2s-3.4,1.9-4.3,2.3c0.1,0.4,0.3,0.8,0.5,1.2
	c-20.9,10.1-46.7,13.5-55.1,29.5c-1,1.9-4.4,0.9-4.5-1.1c0-0.9,0-2.4,0-3.2h-0.3c-0.3,0-0.5-0.4-0.4-0.8v-0.9c0-0.4,0.3-0.8,0.5-0.8
	H74c0.1-0.9,0.3-1.8,0.5-2.7l-0.3-0.1c-0.2-0.1-0.3-0.5-0.2-0.9l0.3-0.9c0.2-0.4,0.5-0.7,0.7-0.6l0.3,0.1c1.5-3.5,4.4-5,5.7-8.3
	l-0.2-0.1c-0.3-0.1-0.3-0.5-0.2-0.9l0.3-0.9c0.2-0.4,0.5-0.7,0.7-0.6l0.2,0.1c0.2-0.5,0.4-1,0.7-1.5l-0.3-0.2
	c-0.2-0.2-0.2-0.6,0-0.9l0.5-0.8c0.2-0.4,0.6-0.5,0.8-0.4l0.1,0.1h0.1c0.1,0,0.1,0,0.2-0.1c0.1-0.1,0.3-0.3,0.4-0.4
	c1.3-1,3.1-1,4.4-0.1c1.3,0.8,6.4,3.7,11.4-0.7c8.1-7.3,17.6-17.2,24.8-17.5c-1.9-4.2-5.3-12.9-5.7-16.2l-2.4-0.5
	c-1.2-2.7-4.3-15.1-5.2-24.5c0,0-1-10.1,0-13.6c-0.6-0.1-1.6,0.8-1.8,0.8c-1.3-3.2,2.9-30.3,7.2-38.2l6.4-2.6
	c-0.7-0.1-5.3-0.3-17.6-1.3c-6.8,6.1-14.7,12.6-18.8,16.1c-0.7,0.5-1.8,4.4-1.8,4.4s-2,1.8-3.9,3.1c-2.5,1.7-8.6,3.1-9.9,1
	c-0.3-0.5-0.2-0.7,0-1c0.9-1,4.5-2.7,5.7-4.9c-1.9,1-4.1,2-5.8,1.8c-0.7,0-1.1-1.8-0.2-2.2c2.6-1.1,4.6-1.6,6.1-3.7s3.2-3.4,5.6-3.5
	c0,0,11.4-14.9,18.1-22c1.9-1.9,5.3-1.3,5.3-1.3l0.6-2.3c0,0,23-2.8,33.8,0.8c-0.2-6.5,2.7-15.2,12.9-15.2c5.2,0,12.9,4.6,14,10.2
	c0.3,1.7-0.7,2.9-1.2,5.1c-0.9,3.3,0.4,7,0,8.2c-0.3,0.9-1.4,0.9-2.3,2.2c-0.8,1.3-1.5,2.6-2.1,4l-1.4,3.2l-7.2-0.5
	c-2.6,5.7-8,17.2-9.9,28.7l0,0c5.6,0.5,31.2,4.2,31.2,4.2l0.6,2.1c0,0,10.8,1.3,19.6,5.5c2,0.5,6.9-0.3,10.2,1.2
	c0.2-0.1,0.8-0.7,1-0.8c11.5,3.5,21,9.6,32.1,12.2c0,0,5.2,1.3,6.9,1.6c2.9,0.6,5.9,1,8.9,1.1c3.5,0.3,5.5,0.2,8.1,0.4
	C264-1317.9,266.3-1318.2,267-1315.5 M283.5-1350.4c-7.8,0-14.2,6.3-14.2,14.2c0,7.8,6.3,14.2,14.2,14.2s14.2-6.3,14.2-14.2
	C297.6-1344.1,291.3-1350.4,283.5-1350.4C283.5-1350.4,283.4-1350.4,283.5-1350.4L283.5-1350.4z"/>
<path class="st2" d="M561.3-1275.6c0,35.4-16.6,54.2-61.4,54.2H396.9v-199h99.3c46.2,0,62.2,18.3,62.2,52c0,25.7-9.7,37.4-37.1,44.2
	l-5.1,1.4l4.6,0.9C551.6-1315.1,561.3-1303.6,561.3-1275.6z M444.3-1337.3H486c16.6,0,24-7.1,24-24.3c0-18-6.9-25.1-24-25.1h-41.7
	L444.3-1337.3z M513-1280.5c0-18.3-7.4-26-24.3-26h-44.5v51.4h44.5C506.5-1255.1,513-1262.5,513-1280.5z M593.6-1286.2v-134.2h49.7
	v132.8c0,22,10,30.3,36.8,30.3s36.9-8.3,36.9-30.3v-132.8h49.7v134.2c0,46.8-27.1,68.2-86.5,68.2S593.7-1239.4,593.6-1286.2
	L593.6-1286.2z M999.6-1420.4v199h-60.5l-84.5-143.9v143.9h-46.2v-199h60.5l84.5,143.9v-143.8H999.6z M1040.5-1420.4h88.8
	c69.7,0,87.9,28.6,87.9,99.3c0,68.8-20,99.6-87.9,99.6h-88.8V-1420.4z M1127.8-1259.4c29.1,0,38.5-15.1,38.5-61.7
	c0-46.2-9.4-61.4-38.5-61.4h-37.7v123L1127.8-1259.4z M1253.4-1420.4h139.3v38H1303v42h74.5v37.4H1303v43.7h91.6v38h-141.3V-1420.4z
	 M1424.1-1229.1v-38.8c21.4,7.3,43.9,10.9,66.5,10.8c22.8,0,32.8-6,32.8-21.4c0-13.4-4.3-17.4-22.6-21.1l-33.1-6.8
	c-34.5-7.1-46-21.1-46-55.1c0-43.7,25.7-62.5,77.4-62.5c23.4,0,45.4,4,63.4,10.8v38.8c-19.4-6.9-39.9-10.5-60.5-10.6
	c-24.6,0-32.8,6.6-32.8,22c0,12.8,5.7,16.6,21.7,20l32.3,6.8c37.4,8,47.7,20.6,47.7,56.2c0,42.5-26.3,62-79.9,62
	C1468.1-1217.8,1445.5-1221.6,1424.1-1229.1z M1605.7-1420.4h49.7v161h85.4v38h-135L1605.7-1420.4z M1771.8-1420.4h49.7v199h-49.7
	V-1420.4z M2027.1-1336.5v108.2c-18.6,6.3-43.1,10.3-68.8,10.3c-69.1,0-101.6-30.5-101.6-103.1c0-71.9,32.5-103.1,101.6-103.1
	c24.6,0,48,4,65.7,11.1v38.5c-19.4-6.6-41.1-10.6-61.7-10.6c-41.7,0-54.8,16.8-54.8,63.9c0,49.1,13.7,65.4,53.1,65.4
	c8.7,0,17.4-0.6,26-1.7v-44.5h-36.8v-34.5H2027.1z M2189.3-1263.1h-77.9l-14,41.7H2048l71.1-199h63.4l70.8,199h-50L2189.3-1263.1z
	 M2150.8-1389l-28.8,89.9h57.4L2150.8-1389z"/>
<g class="st2">
	<path class="st3" d="M389.5-382.5h75.6c42.9,0,68.8,16.9,68.8,56.6c0,21.3-8.8,38.7-30.1,49.6c14.5,22.9,26.2,44.4,36.1,66.8h-54
		c-8.1-19.2-19-40.3-29.4-55.8h-18.7v55.8h-48.3V-382.5z M437.8-345.7v44.7h20.8c17.4,0,25.7-6,25.7-22.6s-8.3-22.1-25.7-22.1H437.8
		z"/>
	<path class="st3" d="M570.1-382.5h48.3v173h-48.3V-382.5z"/>
	<path class="st3" d="M654.7-280.2v-31.4c0-50.7,23.6-73.3,75.6-73.3s75.6,22.6,75.6,73.3v31.4c0,50.7-23.6,73-75.6,73
		S654.7-229.5,654.7-280.2z M756.3-280.2v-31.4c0-26.5-6.8-35.1-26-35.1s-26,8.6-26,35.1v31.4c0,26.5,6.8,35.1,26,35.1
		S756.3-253.7,756.3-280.2z"/>
	<path class="st3" d="M836.3-214.5v-41.8c22.3,7.5,42.3,9.9,56.4,9.9c19.7,0,27.3-5.7,27.3-14.3c0-8.3-4.9-12.5-22.1-14.8l-15.6-2.3
		c-29.9-3.9-47.5-18.4-47.5-49.9c0-31.7,24.2-57.1,74.3-57.1c16.9,0,34.3,1.6,55.8,7.3v41c-21-7.3-37.9-9.1-51.2-9.1
		c-19.5,0-27,4.9-27,13.5c0,8.3,4.9,12.2,22.1,14.8l15.1,2.1c29.9,4.4,47.8,19.7,47.8,50.4c0,33.5-24.2,57.7-75.3,57.7
		C880.5-207.2,861-209.3,836.3-214.5z"/>
	<path class="st3" d="M1075.5-209.5v-173h70.4c52.2,0,75.9,21.6,75.9,72.2v28.6c0,50.9-23.6,72.2-75.9,72.2H1075.5z M1123.9-247.7
		h22.1c19.5,0,26.2-7.3,26.2-34v-28.6c0-26.2-7-33.8-26.2-33.8h-22.1V-247.7z"/>
	<path class="st3" d="M1257.9-209.5v-173h117.7v39h-69.4v28.3h66.2v38.2h-66.2v28.8h70.4v38.7H1257.9z"/>
	<path class="st3" d="M1406.2-214.5v-41.8c22.3,7.5,42.3,9.9,56.4,9.9c19.7,0,27.3-5.7,27.3-14.3c0-8.3-4.9-12.5-22.1-14.8
		l-15.6-2.3c-29.9-3.9-47.5-18.4-47.5-49.9c0-31.7,24.2-57.1,74.3-57.1c16.9,0,34.3,1.6,55.8,7.3v41c-21-7.3-37.9-9.1-51.2-9.1
		c-19.5,0-27,4.9-27,13.5c0,8.3,4.9,12.2,22.1,14.8l15.1,2.1c29.9,4.4,47.8,19.7,47.8,50.4c0,33.5-24.2,57.7-75.3,57.7
		C1450.4-207.2,1430.9-209.3,1406.2-214.5z"/>
	<path class="st3" d="M1574.3-382.5h74.6c43.6,0,69.4,19.2,69.4,59.7c0,40.8-25.7,60-69.4,60h-26.2v53.3h-48.3V-382.5z
		 M1668.3-322.8c0-17.7-7.8-22.9-25.7-22.9h-20v46.2h20C1660.5-299.4,1668.3-305.1,1668.3-322.8z"/>
	<path class="st3" d="M1747.3-280.2v-31.4c0-50.7,23.6-73.3,75.6-73.3s75.6,22.6,75.6,73.3v31.4c0,50.7-23.6,73-75.6,73
		S1747.3-229.5,1747.3-280.2z M1848.8-280.2v-31.4c0-26.5-6.8-35.1-26-35.1s-26,8.6-26,35.1v31.4c0,26.5,6.8,35.1,26,35.1
		S1848.8-253.7,1848.8-280.2z"/>
	<path class="st3" d="M1922.1-382.5h141.1v40h-46.2v133h-48.6v-133h-46.2V-382.5z"/>
	<path class="st3" d="M2087-280.2v-31.4c0-50.7,23.6-73.3,75.6-73.3s75.6,22.6,75.6,73.3v31.4c0,50.7-23.6,73-75.6,73
		S2087-229.5,2087-280.2z M2188.6-280.2v-31.4c0-26.5-6.8-35.1-26-35.1s-26,8.6-26,35.1v31.4c0,26.5,6.8,35.1,26,35.1
		S2188.6-253.7,2188.6-280.2z"/>
</g>
<g class="st2">
	<polyline class="st4" points="56.7,-197.7 56.7,-402.7 220.2,-402.7 167.2,-390.3 157.3,-388.2 147.5,-385.7 137.9,-382.6 
		128.4,-379.1 119.2,-375.1 110.1,-370.6 101.2,-365.7 96.6,-362.6 92.1,-359.1 87.9,-355.4 83.9,-351.5 81.2,-348.4 78.8,-345 
		76.7,-341.5 75.3,-338.5 74.3,-335.4 73.9,-332.1 73.9,-328.8 74.4,-325.5 75.4,-322.4 76.9,-319.4 79.2,-316.4 81.9,-313.6 
		84.9,-311.2 89.9,-307.7 95.1,-304.5 107.8,-296.6 118,-290.1 128.6,-284.1 139.5,-278.5 150.5,-273.5 156.8,-271 162.9,-268.1 
		168.8,-264.8 171.9,-262.7 174.8,-260.2 177.4,-257.4 179.6,-254.3 181.4,-251 182.6,-248.1 183.3,-245 183.5,-241.8 183.3,-238.6 
		182.7,-235.5 181.7,-232.9 180.4,-230.5 178.8,-228.4 177,-226.4 173.5,-223.7 169.7,-221.4 165.7,-219.6 152.8,-215.1 
		139.6,-211.1 126.4,-207.6 109.7,-202.8 93,-197.7 56.7,-197.7 	"/>
	<polyline class="st4" points="154.9,-355.5 156.9,-359.6 159.3,-363.6 162.1,-367.2 165.3,-370.6 168.8,-373.6 172.5,-376.2 
		179,-380.4 185.8,-384.2 192.7,-387.6 199.9,-390.6 207.1,-393.2 215.9,-395.9 224.7,-398.1 233.6,-400 242.6,-401.5 251.6,-402.7 
		311.8,-402.7 311.8,-197.7 287.2,-197.7 290.7,-202.4 293.7,-207.4 296.2,-212.6 298.2,-218.1 299.7,-223.7 300.6,-229.4 
		301.1,-235.2 301,-241 300.3,-246.7 299.1,-252.4 297.4,-257.9 295.2,-263.3 292.4,-268.4 289.3,-273.3 285.6,-277.8 281.6,-282 
		277.2,-285.8 272.5,-289.1 267.4,-292 262.2,-294.4 256.7,-296.3 251.1,-297.7 235.6,-301.5 220.2,-305.7 204.9,-310 194.5,-313.2 
		184.1,-316.5 179,-318.3 174.1,-320.3 169.3,-322.6 165.9,-324.5 162.8,-326.9 160.1,-329.7 157.8,-332.9 156,-336.4 154.7,-340.1 
		153.9,-343.9 153.7,-347.8 154.1,-351.7 154.9,-355.5 	"/>
</g>
<g>
	<path class="st5" d="M389.5,81.2h75.6C508,81.2,534,98,534,137.8c0,21.3-8.8,38.7-30.1,49.6c14.5,22.9,26.2,44.4,36.1,66.8h-54
		c-8.1-19.2-19-40.3-29.4-55.8h-18.7v55.8h-48.3V81.2z M437.8,118.1v44.7h20.8c17.4,0,25.7-6,25.7-22.6s-8.3-22.1-25.7-22.1H437.8z"
		/>
	<path class="st5" d="M570.1,81.2h48.3v173h-48.3V81.2z"/>
	<path class="st5" d="M654.7,183.5v-31.4c0-50.7,23.6-73.3,75.6-73.3s75.6,22.6,75.6,73.3v31.4c0,50.7-23.6,73-75.6,73
		S654.7,234.2,654.7,183.5z M756.3,183.5v-31.4c0-26.5-6.8-35.1-26-35.1s-26,8.6-26,35.1v31.4c0,26.5,6.8,35.1,26,35.1
		S756.3,210,756.3,183.5z"/>
	<path class="st5" d="M836.3,249.2v-41.8c22.3,7.5,42.3,9.9,56.4,9.9c19.7,0,27.3-5.7,27.3-14.3c0-8.3-4.9-12.5-22.1-14.8l-15.6-2.3
		c-29.9-3.9-47.5-18.4-47.5-49.9c0-31.7,24.2-57.1,74.3-57.1c16.9,0,34.3,1.6,55.8,7.3v41c-21-7.3-37.9-9.1-51.2-9.1
		c-19.5,0-27,4.9-27,13.5c0,8.3,4.9,12.2,22.1,14.8l15.1,2.1c29.9,4.4,47.8,19.7,47.8,50.4c0,33.5-24.2,57.7-75.3,57.7
		C880.5,256.5,861,254.4,836.3,249.2z"/>
</g>
<g>
	<polyline class="st6" points="56.7,266 56.7,61 220.2,61 167.2,73.4 157.3,75.5 147.5,78 137.9,81.1 128.4,84.6 119.2,88.6 
		110.1,93.1 101.2,98 96.6,101.1 92.1,104.6 87.9,108.3 83.9,112.2 81.2,115.3 78.8,118.7 76.7,122.2 75.3,125.2 74.3,128.3 
		73.9,131.6 73.9,134.9 74.4,138.2 75.4,141.3 76.9,144.3 79.2,147.3 81.9,150.1 84.9,152.6 89.9,156 95.1,159.2 107.8,167.1 
		118,173.6 128.6,179.6 139.5,185.2 150.5,190.2 156.8,192.7 162.9,195.6 168.8,198.9 171.9,201 174.8,203.5 177.4,206.3 
		179.6,209.4 181.4,212.7 182.6,215.6 183.3,218.8 183.5,221.9 183.3,225.1 182.7,228.2 181.7,230.8 180.4,233.2 178.8,235.4 
		177,237.3 173.5,240.1 169.7,242.3 165.7,244.1 152.8,248.6 139.6,252.6 126.4,256.2 109.7,260.9 93,266 56.7,266 	"/>
	<polyline class="st6" points="154.9,108.2 156.9,104.1 159.3,100.1 162.1,96.5 165.3,93.1 168.8,90.1 172.5,87.5 179,83.3 
		185.8,79.5 192.7,76.1 199.9,73.1 207.1,70.5 215.9,67.9 224.7,65.6 233.6,63.7 242.6,62.2 251.6,61 311.8,61 311.8,266 287.2,266 
		290.7,261.3 293.7,256.3 296.2,251.1 298.2,245.7 299.7,240 300.6,234.3 301.1,228.5 301,222.7 300.3,217 299.1,211.3 297.4,205.8 
		295.2,200.4 292.4,195.3 289.3,190.4 285.6,185.9 281.6,181.7 277.2,177.9 272.5,174.6 267.4,171.7 262.2,169.3 256.7,167.4 
		251.1,166 235.6,162.2 220.2,158.1 204.9,153.7 194.5,150.5 184.1,147.2 179,145.4 174.1,143.4 169.3,141.1 165.9,139.2 
		162.8,136.8 160.1,134 157.8,130.8 156,127.3 154.7,123.7 153.9,119.8 153.7,115.9 154.1,112 154.9,108.2 	"/>
</g>
<g class="st2">
	<path class="st3" d="M538.9,765.6c0,0.6-0.8,1-2.5,1.3c-3.2,0.5-11.3,0.8-24.2,0.8c-11.1,0-18.6-0.3-22.6-0.8
		c-1.9-0.3-2.9-0.5-3.2-0.6c-0.5-0.3-1.1-1.1-1.8-2.5c-1.3-3.3-3.1-8.2-5.6-14.7c-3.3-8.5-8.5-20.9-15.5-37.4
		c-1.5-3.3-5-5.1-10.5-5.5c2.5,0.2-1.8,0.3-13.1,0.3c-1.3,0-1.9,2.2-1.9,6.5c0,5.8,0.5,14.3,1.6,25.7c1.1,11.4,1.6,20,1.6,25.7
		c0,1.4-0.4,2.3-1.1,2.5c-1.2,0.1-2.4,0.2-3.6,0.3c-5,0.3-12.8,0.5-23.3,0.5c-12.1,0-19.4-0.3-21.8-0.8c-2.5-0.5-3.7-1.8-3.7-3.9
		c0-9.3,0.4-23.3,1.3-42.1c0.9-18.8,1.3-32.9,1.3-42.2c0-35.8-0.8-63.7-2.4-83.7l-0.1-1.8c-0.1-1.4,1.2-2.4,4-2.9
		c2.7-0.5,15.7-1,38.7-1.5c15.6-0.3,28.1-0.5,37.4-0.5c19.3,0,35,4.4,47.2,13.1c13.8,9.8,20.7,24,20.7,42.5
		c0,12.3-1.8,22.2-5.3,29.6c-3.6,7.4-10.1,14.5-19.7,21.4c-1.9,1.4-2.9,2.6-2.9,3.8c0-0.1,5.2,10.5,15.5,31.8
		C533.7,751.7,538.9,763.4,538.9,765.6z M485.6,651.8c0-10.3-3.4-17.5-10.1-21.4c-5.2-3-13.4-4.6-24.6-4.6c-8,0-12.3,1.2-12.8,3.7
		c-0.5,2.9-0.8,11.2-0.8,24.9c0,1.9,0,4.8,0.1,8.6c0.1,3.8,0.1,6.6,0.1,8.5c0,0.4,1.4,0.8,4.1,1.3c5.2,0.8,10.6,1.1,16.2,1.1
		C476.3,673.9,485.6,666.6,485.6,651.8z"/>
	<path class="st3" d="M617.7,673.2c0,10,0.3,25,0.8,45s0.8,35,0.8,45c0,1.7-0.4,2.7-1.1,3.2c-0.2,0.1-1.3,0.3-3.3,0.5
		c-5.5,0.7-12.9,1-22.1,1c-12.3,0-20.2-0.3-23.6-1c-2.5-0.5-3.7-1.8-3.7-3.9c0,1.4,0.4-6.1,1.1-22.3c1.5-34.2,2.3-56.7,2.3-67.5
		c0-9-0.3-22.6-0.9-40.7c-0.6-18.1-0.9-31.7-0.9-40.7c0-1.9,1-2.8,2.9-2.8c2.6,0,6.6,0.1,11.9,0.4c5.3,0.3,9.2,0.4,11.9,0.4
		c2.6,0,6.5-0.1,11.6-0.4c5.1-0.3,9-0.4,11.6-0.4c2.5,0,3.7,0.9,3.7,2.8c0,9-0.5,22.6-1.5,40.7C618.2,650.5,617.7,664.1,617.7,673.2
		z"/>
	<path class="st3" d="M832.7,678.1c0,26.4-8.4,48.5-25.2,66.3c-17.2,18.1-38.9,27.1-65.2,27.1c-26.1,0-47.8-9.1-65.1-27.4
		c-16.9-17.8-25.4-39.9-25.4-66.1c0-26.3,8.5-48.4,25.4-66.3c17.2-18.3,38.9-27.5,65.1-27.5c26,0,47.6,9.2,64.9,27.5
		C824.2,629.9,832.7,652,832.7,678.1z M784.7,677.8c0-12.7-3.8-23.5-11.5-32.3c-8-9.3-18.3-14-30.8-14c-11.9,0-22,4.8-30.3,14.5
		c-8,9.3-12,20-12,32.1c0,12.9,3.8,23.7,11.3,32.3c7.9,9,18.3,13.6,31.1,13.6c11.9,0,22.1-4.8,30.4-14.3
		C780.7,700.5,784.7,689.9,784.7,677.8z"/>
	<path class="st3" d="M951.1,708.5c0,17.2-7.2,31.9-21.7,44.1c-12.7,10.8-28.1,17.7-46.3,20.7c-0.7,0.1-1.2,0.1-1.6,0.1
		c-1.9,0-6.3-5.9-12.9-17.8c-6.7-11.9-10-19.1-10-21.8c0-0.9,0.6-1.5,1.9-1.8c12.3-2.8,20.4-5.2,24.4-7.1
		c8.8-4.4,13.2-10.9,13.2-19.5c0-5.5-2.9-11.6-8.6-18.4c-10-11.5-15.4-17.9-16.2-19.2c-5.8-8.8-8.8-18.5-8.8-29.2
		c0-15.5,7.1-28.3,21.4-38.6c11.7-8.5,26-14,43-16.5c0.9-0.1,1.6-0.1,2.2-0.1c1.3,0,2.3,1,3,3c2.2,6.2,7.3,17.3,15.3,33.5
		c0.3,0.5,0.4,0.9,0.4,1.3c0,1.4-0.8,2.2-2.3,2.2c-0.7,0-1.8-0.1-3.4-0.4c-1.6-0.3-2.8-0.4-3.7-0.4c-6.1,0-11.4,1.4-16,4.2
		c-5.5,3.2-8.2,7.7-8.2,13.4c0,5.2,3,11.5,9.1,19c10.7,13.5,16.4,20.6,16.9,21.3C948.1,690.1,951.1,699.3,951.1,708.5z"/>
</g>
<g class="st2">
	<polyline class="st4" points="56.7,778.7 56.7,573.8 220.2,573.8 167.2,586.1 157.3,588.2 147.5,590.8 137.9,593.8 128.4,597.4 
		119.2,601.4 110.1,605.8 101.2,610.7 96.6,613.9 92.1,617.3 87.9,621 83.9,625 81.2,628.1 78.8,631.4 76.7,634.9 75.3,637.9 
		74.3,641 73.9,644.3 73.9,647.6 74.4,650.9 75.4,654 76.9,657 79.2,660.1 81.9,662.8 84.9,665.3 89.9,668.7 95.1,671.9 
		107.8,679.9 118,686.3 128.6,692.4 139.5,697.9 150.5,702.9 156.8,705.5 162.9,708.4 168.8,711.6 171.9,713.7 174.8,716.2 
		177.4,719 179.6,722.1 181.4,725.4 182.6,728.4 183.3,731.5 183.5,734.7 183.3,737.8 182.7,741 181.7,743.5 180.4,745.9 
		178.8,748.1 177,750 173.5,752.8 169.7,755.1 165.7,756.9 152.8,761.4 139.6,765.4 126.4,768.9 109.7,773.7 93,778.7 56.7,778.7 	
		"/>
	<polyline class="st4" points="154.9,620.9 156.9,616.8 159.3,612.9 162.1,609.2 165.3,605.8 168.8,602.8 172.5,600.2 179,596 
		185.8,592.2 192.7,588.8 199.9,585.8 207.1,583.2 215.9,580.6 224.7,578.3 233.6,576.4 242.6,574.9 251.6,573.8 311.8,573.8 
		311.8,778.7 287.2,778.7 290.7,774 293.7,769 296.2,763.8 298.2,758.4 299.7,752.8 300.6,747 301.1,741.3 301,735.5 300.3,729.7 
		299.1,724 297.4,718.5 295.2,713.1 292.4,708 289.3,703.1 285.6,698.6 281.6,694.4 277.2,690.7 272.5,687.3 267.4,684.4 262.2,682 
		256.7,680.1 251.1,678.7 235.6,674.9 220.2,670.8 204.9,666.4 194.5,663.2 184.1,659.9 179,658.2 174.1,656.1 169.3,653.9 
		165.9,651.9 162.8,649.5 160.1,646.7 157.8,643.5 156,640.1 154.7,636.4 153.9,632.5 153.7,628.6 154.1,624.7 154.9,620.9 	"/>
</g>
<g class="st2">
	<path class="st3" d="M538.9-1370.2c0,0.6-0.8,1-2.5,1.3c-3.2,0.5-11.3,0.8-24.2,0.8c-11.1,0-18.6-0.3-22.6-0.8
		c-1.9-0.3-2.9-0.5-3.2-0.6c-0.5-0.3-1.1-1.1-1.8-2.5c-1.3-3.3-3.1-8.2-5.6-14.7c-3.3-8.5-8.5-20.9-15.5-37.4
		c-1.5-3.3-5-5.1-10.5-5.5c2.5,0.2-1.8,0.3-13.1,0.3c-1.3,0-1.9,2.2-1.9,6.5c0,5.8,0.5,14.3,1.6,25.7c1.1,11.4,1.6,20,1.6,25.7
		c0,1.4-0.4,2.3-1.1,2.5c-1.2,0.1-2.4,0.2-3.6,0.3c-5,0.3-12.8,0.5-23.3,0.5c-12.1,0-19.4-0.3-21.8-0.8c-2.5-0.5-3.7-1.8-3.7-3.9
		c0-9.3,0.4-23.3,1.3-42.1c0.9-18.8,1.3-32.9,1.3-42.2c0-35.8-0.8-63.7-2.4-83.7l-0.1-1.8c-0.1-1.4,1.2-2.4,4-2.9
		c2.7-0.5,15.7-1,38.7-1.5c15.6-0.3,28.1-0.5,37.4-0.5c19.3,0,35,4.4,47.2,13.1c13.8,9.8,20.7,24,20.7,42.5
		c0,12.3-1.8,22.2-5.3,29.6c-3.6,7.4-10.1,14.5-19.7,21.4c-1.9,1.4-2.9,2.6-2.9,3.8c0-0.1,5.2,10.5,15.5,31.8
		C533.7-1384.1,538.9-1372.3,538.9-1370.2z M485.6-1483.9c0-10.3-3.4-17.5-10.1-21.4c-5.2-3-13.4-4.6-24.6-4.6
		c-8,0-12.3,1.2-12.8,3.7c-0.5,2.9-0.8,11.2-0.8,24.9c0,1.9,0,4.8,0.1,8.6c0.1,3.8,0.1,6.6,0.1,8.5c0,0.4,1.4,0.8,4.1,1.3
		c5.2,0.8,10.6,1.1,16.2,1.1C476.3-1461.9,485.6-1469.2,485.6-1483.9z"/>
	<path class="st3" d="M617.7-1462.6c0,10,0.3,25,0.8,45s0.8,35.1,0.8,45c0,1.7-0.4,2.7-1.1,3.2c-0.2,0.1-1.3,0.3-3.3,0.5
		c-5.5,0.7-12.9,1-22.1,1c-12.3,0-20.2-0.3-23.6-1c-2.5-0.5-3.7-1.8-3.7-3.9c0,1.4,0.4-6.1,1.1-22.3c1.5-34.2,2.3-56.7,2.3-67.5
		c0-9-0.3-22.6-0.9-40.7c-0.6-18.1-0.9-31.7-0.9-40.7c0-1.9,1-2.8,2.9-2.8c2.6,0,6.6,0.1,11.9,0.4c5.3,0.3,9.2,0.4,11.9,0.4
		c2.6,0,6.5-0.1,11.6-0.4c5.1-0.3,9-0.4,11.6-0.4c2.5,0,3.7,0.9,3.7,2.8c0,9-0.5,22.6-1.5,40.7
		C618.2-1485.2,617.7-1471.7,617.7-1462.6z"/>
	<path class="st3" d="M832.7-1457.7c0,26.4-8.4,48.5-25.2,66.3c-17.2,18.1-38.9,27.1-65.2,27.1c-26.1,0-47.8-9.1-65.1-27.4
		c-16.9-17.8-25.4-39.9-25.4-66.1c0-26.3,8.5-48.4,25.4-66.3c17.2-18.3,38.9-27.5,65.1-27.5c26,0,47.6,9.2,64.9,27.5
		C824.2-1505.9,832.7-1483.8,832.7-1457.7z M784.7-1457.9c0-12.7-3.8-23.5-11.5-32.3c-8-9.3-18.3-14-30.8-14
		c-11.9,0-22,4.8-30.3,14.5c-8,9.3-12,20-12,32.1c0,12.9,3.8,23.7,11.3,32.3c7.9,9,18.3,13.6,31.1,13.6c11.9,0,22.1-4.8,30.4-14.3
		C780.7-1435.2,784.7-1445.8,784.7-1457.9z"/>
	<path class="st3" d="M951.1-1427.2c0,17.2-7.2,31.9-21.7,44.1c-12.7,10.8-28.1,17.7-46.3,20.7c-0.7,0.1-1.2,0.1-1.6,0.1
		c-1.9,0-6.3-5.9-12.9-17.8c-6.7-11.9-10-19.1-10-21.8c0-0.9,0.6-1.5,1.9-1.8c12.3-2.8,20.4-5.2,24.4-7.1
		c8.8-4.4,13.2-10.9,13.2-19.5c0-5.5-2.9-11.6-8.6-18.4c-10-11.5-15.4-17.9-16.2-19.2c-5.8-8.8-8.8-18.5-8.8-29.2
		c0-15.5,7.1-28.3,21.4-38.6c11.7-8.5,26-14,43-16.5c0.9-0.1,1.6-0.1,2.2-0.1c1.3,0,2.3,1,3,3c2.2,6.2,7.3,17.3,15.3,33.5
		c0.3,0.5,0.4,0.9,0.4,1.3c0,1.4-0.8,2.2-2.3,2.2c-0.7,0-1.8-0.1-3.4-0.4c-1.6-0.3-2.8-0.4-3.7-0.4c-6.1,0-11.4,1.4-16,4.2
		c-5.5,3.2-8.2,7.7-8.2,13.4c0,5.2,3,11.5,9.1,19c10.7,13.5,16.4,20.6,16.9,21.3C948.1-1445.7,951.1-1436.4,951.1-1427.2z"/>
</g>
<g class="st2">
	<polyline class="st4" points="393.2,-1605.3 393.2,-2043.5 742.9,-2043.5 629.5,-2017.2 608.4,-2012.7 587.5,-2007.2 
		566.9,-2000.6 546.6,-1993.1 526.8,-1984.5 507.4,-1975 488.5,-1964.5 478.5,-1957.8 469,-1950.4 460,-1942.5 451.5,-1934 
		445.7,-1927.4 440.5,-1920.3 435.9,-1912.8 432.9,-1906.4 430.9,-1899.6 429.9,-1892.6 430,-1885.6 431.1,-1878.6 433.3,-1871.9 
		436.4,-1865.5 441.4,-1859 447.2,-1853.1 453.6,-1847.8 464.3,-1840.4 475.3,-1833.6 502.4,-1816.6 524.4,-1802.8 547,-1789.9 
		570.2,-1778.1 593.9,-1767.3 607.3,-1761.9 620.3,-1755.7 632.9,-1748.7 639.7,-1744.2 645.8,-1738.9 651.3,-1732.9 656,-1726.4 
		660,-1719.3 662.4,-1712.9 663.9,-1706.3 664.5,-1699.5 664,-1692.6 662.7,-1686 660.6,-1680.5 657.8,-1675.5 654.4,-1670.8 
		650.4,-1666.5 643,-1660.7 635,-1655.8 626.4,-1652 598.7,-1642.3 570.6,-1633.8 542.2,-1626.3 506.5,-1616 470.9,-1605.3 
		393.2,-1605.3 	"/>
	<polyline class="st4" points="603.3,-1942.7 607.6,-1951.5 612.7,-1959.9 618.7,-1967.7 625.4,-1974.9 632.9,-1981.4 640.9,-1987 
		654.9,-1996 669.3,-2004.1 684.1,-2011.4 699.4,-2017.8 715,-2023.4 733.6,-2029 752.5,-2033.8 771.5,-2037.9 790.8,-2041.1 
		810.1,-2043.5 938.8,-2043.5 938.8,-1605.3 886.2,-1605.3 893.6,-1615.3 900,-1625.9 905.4,-1637.1 909.7,-1648.7 912.9,-1660.7 
		914.9,-1673 915.8,-1685.3 915.6,-1697.7 914.2,-1710.1 911.6,-1722.2 908,-1734 903.2,-1745.5 897.4,-1756.5 890.6,-1766.8 
		882.8,-1776.5 874.2,-1785.4 864.8,-1793.5 854.7,-1800.7 843.9,-1806.9 832.6,-1812 820.9,-1816.1 808.9,-1819.1 775.8,-1827.3 
		742.9,-1836.1 710.2,-1845.5 687.9,-1852.2 665.7,-1859.3 654.9,-1863 644.3,-1867.3 633.9,-1872.3 626.7,-1876.4 620.1,-1881.5 
		614.3,-1887.6 609.4,-1894.4 605.5,-1901.8 602.8,-1909.6 601.1,-1917.8 600.7,-1926.2 601.4,-1934.5 603.3,-1942.7 	"/>
</g>
</svg>
