<?xml version="1.0" encoding="utf-8"?>
<!-- Generator: Adobe Illustrator 26.2.1, SVG Export Plug-In . SVG Version: 6.00 Build 0)  -->
<svg version="1.1" id="LOGO" xmlns="http://www.w3.org/2000/svg" xmlns:xlink="http://www.w3.org/1999/xlink" x="0px" y="0px"
	 viewBox="0 0 2307.4 317.5" style="enable-background:new 0 0 2307.4 317.5;" xml:space="preserve">
<style type="text/css">
	.st0{display:none;fill:#D20515;}
	.st1{display:none;fill:#FFFFFF;}
	.st2{display:none;}
	.st3{fill-rule:evenodd;clip-rule:evenodd;fill:#D20515;}
</style>
<rect x="56.7" y="-963.2" class="st0" width="255.1" height="204.1"/>
<path class="st1" d="M267-855.7c0.1,0.5-0.3,0.9-1.2,1.5l-0.6,0.3l0.2,0.4c0.1,0.2-0.1,0.6-0.5,0.8l-0.8,0.4
	c-0.4,0.2-0.8,0.2-0.9-0.1l-0.2-0.3l-1.1,0.5l0.2,0.4c0.1,0.2-0.1,0.6-0.5,0.8l-0.9,0.4c-0.4,0.2-0.8,0.1-0.9-0.1l-0.1-0.3
	c-3.3,1.5-6.9,3.2-10.7,4.9l0.2,0.5c0.1,0.2-0.1,0.6-0.5,0.8l-0.9,0.4c-0.4,0.2-0.8,0.1-0.9-0.1l-0.2-0.5l-1.2,0.6l0.2,0.5
	c0.1,0.2-0.1,0.6-0.5,0.8l-0.9,0.4c-0.4,0.2-0.8,0.1-0.9-0.1l-0.2-0.5c-1.7,0.7-3.6,1-4.9-1.6c-0.6-1.2-0.6-3.9-1.1-5.3
	c-0.2-0.5-0.6-0.8-1.1-0.9c-16.6-3.2-22.2,0.4-32.9-2.3c-3.4-0.8-5.2-3.9-9.3-3.9c-9-0.3-11.6-0.1-21.4-0.5
	c-0.4,1.4-0.5,1.7-0.5,1.7l-34.3-0.2l5.2,2.6l1.7,15.1c0,0-1.4,0.4-1.8,0.5c0.3,3,0.6,7.1,0.8,10.8c0.1,3.3,0.3,6.7,0.3,8.9
	c0,1.4-0.3,2.8-1,4.1c-0.7,1.1-1.5,2-2.6,2.8c-0.3,0.2-1.6,1.1-3.2,2s-3.4,1.9-4.3,2.3c0.1,0.4,0.3,0.8,0.5,1.2
	c-20.9,10.1-46.7,13.5-55.1,29.5c-1,1.9-4.4,0.9-4.5-1.1c0-0.9,0-2.4,0-3.2h-0.3c-0.3,0-0.5-0.4-0.4-0.8v-0.9c0-0.4,0.3-0.8,0.5-0.8
	H74c0.1-0.9,0.3-1.8,0.5-2.7l-0.3-0.1c-0.2-0.1-0.3-0.5-0.2-0.9l0.3-0.9c0.2-0.4,0.5-0.7,0.7-0.6l0.3,0.1c1.5-3.5,4.4-5,5.7-8.3
	l-0.2-0.1c-0.3-0.1-0.3-0.5-0.2-0.9l0.3-0.9c0.2-0.4,0.5-0.7,0.7-0.6l0.2,0.1c0.2-0.5,0.4-1,0.7-1.5l-0.3-0.2
	c-0.2-0.2-0.2-0.6,0-0.9l0.5-0.8c0.2-0.4,0.6-0.5,0.8-0.4l0.1,0.1h0.1c0.1,0,0.1,0,0.2-0.1c0.1-0.1,0.3-0.3,0.4-0.4
	c1.3-1,3.1-1,4.4-0.1c1.3,0.8,6.4,3.7,11.4-0.7c8.1-7.3,17.6-17.2,24.8-17.5c-1.9-4.2-5.3-12.9-5.7-16.2l-2.4-0.5
	c-1.2-2.7-4.3-15.1-5.2-24.5c0,0-1-10.1,0-13.6c-0.6-0.1-1.6,0.8-1.8,0.8c-1.3-3.2,2.9-30.3,7.2-38.2l6.4-2.6
	c-0.7-0.1-5.3-0.3-17.6-1.3c-6.8,6-14.7,12.6-18.8,16.1c-0.7,0.5-1.8,4.4-1.8,4.4s-2,1.8-3.9,3.1c-2.5,1.7-8.6,3.1-9.9,1
	c-0.3-0.5-0.2-0.7,0-1c0.9-1,4.5-2.7,5.7-4.9c-1.9,1-4.1,2-5.8,1.8c-0.7,0-1.1-1.9-0.2-2.2c2.6-1.1,4.6-1.6,6.1-3.7s3.2-3.4,5.6-3.5
	c0,0,11.4-14.9,18.1-22c1.9-1.9,5.3-1.3,5.3-1.3l0.6-2.3c0,0,23-2.8,33.8,0.8c-0.2-6.5,2.7-15.2,12.9-15.2c5.2,0,12.9,4.6,14,10.2
	c0.3,1.7-0.7,2.9-1.2,5.1c-0.9,3.3,0.4,7,0,8.2c-0.3,0.9-1.4,0.9-2.3,2.2c-0.8,1.3-1.5,2.6-2.1,4l-1.4,3.2l-7.2-0.5
	c-2.6,5.7-8,17.2-9.9,28.7l0,0c5.6,0.5,31.2,4.2,31.2,4.2l0.6,2.1c0,0,10.8,1.3,19.6,5.5c2,0.5,6.9-0.3,10.2,1.2
	c0.2-0.1,0.8-0.7,1-0.8c11.5,3.5,21,9.6,32.1,12.2c0,0,5.2,1.3,6.9,1.6c2.9,0.6,5.9,1,8.9,1.1c3.5,0.3,5.5,0.2,8.1,0.4
	C264-858.1,266.3-858.4,267-855.7 M283.5-890.7c-7.8,0-14.2,6.3-14.2,14.2s6.3,14.2,14.2,14.2s14.2-6.3,14.2-14.2
	C297.6-884.3,291.3-890.7,283.5-890.7C283.5-890.7,283.4-890.7,283.5-890.7L283.5-890.7z"/>
<path class="st2" d="M561.3-815.9c0,35.4-16.6,54.2-61.4,54.2H396.9v-199h99.3c46.2,0,62.2,18.3,62.2,52c0,25.7-9.7,37.4-37.1,44.2
	l-5.1,1.4l4.6,0.9C551.6-855.3,561.3-843.9,561.3-815.9z M444.3-877.5H486c16.6,0,24-7.1,24-24.3c0-18-6.9-25.1-24-25.1h-41.7
	L444.3-877.5z M513-820.8c0-18.3-7.4-26-24.3-26h-44.5v51.4h44.5C506.5-795.4,513-802.8,513-820.8z M593.6-826.5v-134.2h49.7v132.8
	c0,22,10,30.3,36.8,30.3s36.9-8.3,36.9-30.3v-132.8h49.7v134.2c0,46.8-27.1,68.2-86.5,68.2S593.7-779.7,593.6-826.5L593.6-826.5z
	 M999.6-960.6v199h-60.5l-84.5-143.9v143.9h-46.2v-199h60.5l84.5,143.9v-143.8H999.6z M1040.5-960.6h88.8
	c69.7,0,87.9,28.5,87.9,99.3c0,68.8-20,99.6-87.9,99.6h-88.8V-960.6z M1127.8-799.6c29.1,0,38.5-15.1,38.5-61.7
	c0-46.2-9.4-61.4-38.5-61.4h-37.7v123L1127.8-799.6z M1253.4-960.6h139.3v38H1303v42h74.5v37.4H1303v43.7h91.6v38h-141.3V-960.6z
	 M1424.1-769.4v-38.8c21.4,7.3,43.9,10.9,66.5,10.8c22.8,0,32.8-6,32.8-21.4c0-13.4-4.3-17.4-22.6-21.1l-33.1-6.9
	c-34.5-7.1-46-21.1-46-55.1c0-43.7,25.7-62.5,77.4-62.5c23.4,0,45.4,4,63.4,10.9v38.8c-19.4-6.9-39.9-10.5-60.5-10.6
	c-24.6,0-32.8,6.6-32.8,22c0,12.8,5.7,16.6,21.7,20l32.3,6.9c37.4,8,47.7,20.5,47.7,56.2c0,42.5-26.3,62-79.9,62
	C1468.1-758.1,1445.5-761.9,1424.1-769.4z M1605.7-960.6h49.7v161h85.4v38h-135L1605.7-960.6z M1771.8-960.6h49.7v199h-49.7V-960.6z
	 M2027.1-876.7v108.2c-18.6,6.3-43.1,10.3-68.8,10.3c-69.1,0-101.6-30.6-101.6-103.1c0-71.9,32.5-103.1,101.6-103.1
	c24.6,0,48,4,65.7,11.1v38.5c-19.4-6.6-41.1-10.6-61.7-10.6c-41.7,0-54.8,16.8-54.8,63.9c0,49.1,13.7,65.4,53.1,65.4
	c8.7,0,17.4-0.6,26-1.7v-44.5h-36.8v-34.5H2027.1z M2189.3-803.4h-77.9l-14,41.7H2048l71.1-199h63.4l70.8,199h-50L2189.3-803.4z
	 M2150.8-929.2l-28.8,89.9h57.4L2150.8-929.2z"/>
<g>
	<path d="M538.9,248.9c0,0.6-0.8,1-2.5,1.3c-3.2,0.5-11.3,0.8-24.2,0.8c-11.1,0-18.6-0.3-22.6-0.8c-1.9-0.3-2.9-0.5-3.2-0.6
		c-0.5-0.3-1.1-1.1-1.8-2.5c-1.3-3.3-3.1-8.2-5.6-14.7c-3.3-8.5-8.5-20.9-15.5-37.4c-1.5-3.3-5-5.1-10.5-5.5
		c2.5,0.2-1.8,0.3-13.1,0.3c-1.3,0-1.9,2.2-1.9,6.5c0,5.8,0.5,14.3,1.6,25.7c1.1,11.4,1.6,20,1.6,25.7c0,1.4-0.4,2.3-1.1,2.5
		c-1.2,0.1-2.4,0.2-3.6,0.3c-5,0.3-12.8,0.5-23.3,0.5c-12.1,0-19.4-0.3-21.8-0.8c-2.5-0.5-3.7-1.8-3.7-3.9c0-9.3,0.4-23.3,1.3-42.1
		c0.9-18.8,1.3-32.9,1.3-42.2c0-35.8-0.8-63.7-2.4-83.7l-0.1-1.8c-0.1-1.4,1.2-2.4,4-2.9c2.7-0.5,15.7-1,38.7-1.5
		c15.6-0.3,28.1-0.5,37.4-0.5c19.3,0,35,4.4,47.2,13.1c13.8,9.8,20.7,24,20.7,42.5c0,12.3-1.8,22.2-5.3,29.6
		c-3.6,7.4-10.1,14.5-19.7,21.4c-1.9,1.4-2.9,2.6-2.9,3.8c0-0.1,5.2,10.5,15.5,31.8C533.7,235,538.9,246.7,538.9,248.9z
		 M485.6,135.2c0-10.3-3.4-17.5-10.1-21.4c-5.2-3-13.4-4.6-24.6-4.6c-8,0-12.3,1.2-12.8,3.7c-0.5,2.9-0.8,11.2-0.8,24.9
		c0,1.9,0,4.8,0.1,8.6c0.1,3.8,0.1,6.6,0.1,8.5c0,0.4,1.4,0.8,4.1,1.3c5.2,0.8,10.6,1.1,16.2,1.1
		C476.3,157.2,485.6,149.9,485.6,135.2z"/>
	<path d="M617.7,156.5c0,10,0.3,25,0.8,45s0.8,35.1,0.8,45c0,1.7-0.4,2.7-1.1,3.2c-0.2,0.1-1.3,0.3-3.3,0.5c-5.5,0.7-12.9,1-22.1,1
		c-12.3,0-20.2-0.3-23.6-1c-2.5-0.5-3.7-1.8-3.7-3.9c0,1.4,0.4-6.1,1.1-22.3c1.5-34.2,2.3-56.7,2.3-67.5c0-9-0.3-22.6-0.9-40.7
		c-0.6-18.1-0.9-31.7-0.9-40.7c0-1.9,1-2.8,2.9-2.8c2.6,0,6.6,0.1,11.9,0.4c5.3,0.3,9.2,0.4,11.9,0.4c2.6,0,6.5-0.1,11.6-0.4
		c5.1-0.3,9-0.4,11.6-0.4c2.5,0,3.7,0.9,3.7,2.8c0,9-0.5,22.6-1.5,40.7C618.2,133.9,617.7,147.4,617.7,156.5z"/>
	<path d="M832.7,161.4c0,26.4-8.4,48.5-25.2,66.3c-17.2,18.1-38.9,27.1-65.2,27.1c-26.1,0-47.8-9.1-65.1-27.4
		c-16.9-17.8-25.4-39.9-25.4-66.1c0-26.3,8.5-48.4,25.4-66.3c17.2-18.3,38.9-27.5,65.1-27.5c26,0,47.6,9.2,64.9,27.5
		C824.2,113.2,832.7,135.3,832.7,161.4z M784.7,161.2c0-12.7-3.8-23.5-11.5-32.3c-8-9.3-18.3-14-30.8-14c-11.9,0-22,4.8-30.3,14.5
		c-8,9.3-12,20-12,32.1c0,12.9,3.8,23.7,11.3,32.3c7.9,9,18.3,13.6,31.1,13.6c11.9,0,22.1-4.8,30.4-14.3
		C780.7,183.9,784.7,173.3,784.7,161.2z"/>
	<path d="M951.1,191.9c0,17.2-7.2,31.9-21.7,44.1c-12.7,10.8-28.1,17.7-46.3,20.7c-0.7,0.1-1.2,0.1-1.6,0.1
		c-1.9,0-6.3-5.9-12.9-17.8c-6.7-11.9-10-19.1-10-21.8c0-0.9,0.6-1.5,1.9-1.8c12.3-2.8,20.4-5.2,24.4-7.1
		c8.8-4.4,13.2-10.9,13.2-19.5c0-5.5-2.9-11.6-8.6-18.4c-10-11.5-15.4-17.9-16.2-19.2c-5.8-8.8-8.8-18.5-8.8-29.2
		c0-15.5,7.1-28.3,21.4-38.6c11.7-8.5,26-14,43-16.5c0.9-0.1,1.6-0.1,2.2-0.1c1.3,0,2.3,1,3,3c2.2,6.2,7.3,17.3,15.3,33.5
		c0.3,0.5,0.4,0.9,0.4,1.3c0,1.4-0.8,2.2-2.3,2.2c-0.7,0-1.8-0.1-3.4-0.4c-1.6-0.3-2.8-0.4-3.7-0.4c-6.1,0-11.4,1.4-16,4.2
		c-5.5,3.2-8.2,7.7-8.2,13.4c0,5.2,3,11.5,9.1,19c10.7,13.5,16.4,20.6,16.9,21.3C948.1,173.4,951.1,182.6,951.1,191.9z"/>
	<path d="M1228.6,160.3c0,24.9-8,46.4-24,64.7c-14.1,16.3-33.9,24.9-59.5,25.7c-4.9,0.2-18.4,0.3-40.5,0.3c-4.1,0-10.4-0.1-18.7-0.4
		c-8.3-0.3-14.6-0.4-18.7-0.4c-2.5,0-3.7-1-3.7-2.9c0-9.3,0.4-23.3,1.1-41.9c0.7-18.6,1.1-32.6,1.1-41.9c0-9.7-0.4-24.3-1.1-43.7
		c-0.7-19.4-1.1-33.9-1.1-43.6c0-1.8,1.2-2.8,3.7-3.2c6-0.7,15.9-1,29.6-1c26,0,42.9,0.4,50.6,1.1c20,2,35.7,7.1,47.1,15.2
		c10.7,7.6,19.1,18.3,25.2,32C1225.6,133.3,1228.6,146.6,1228.6,160.3z M1180,160.3c0-14.3-4.3-26-12.8-35
		c-8.6-9.4-20-14.1-34.2-14.1c-13,0-19.5,1.7-19.5,5.2c0,5-0.1,12.5-0.3,22.5c-0.2,10-0.3,17.5-0.3,22.5c0,4.9,0.1,12.3,0.3,22.1
		c0.2,9.9,0.3,17.3,0.3,22.3c0,3.6,6.8,5.5,20.3,5.5c14.6,0,26.1-4.9,34.5-14.6C1176.1,187.5,1180,175.3,1180,160.3z"/>
	<path d="M1391.1,210.8c0,3.6-0.7,10.3-2.2,20c-1.5,10.6-2.9,16.9-4.1,18.9c-1,1.6-2.4,2.4-4.2,2.4c-0.8,0-2-0.1-3.8-0.4
		c-6.2-0.8-24.2-1.3-54-1.3c-6.5,0-16.2,0-29-0.1c-12.9-0.1-22.5-0.1-28.9-0.1c-2.8,0-4.2-1.2-4.2-3.7c0-9.5,0.5-23.7,1.6-42.7
		c1.1-19,1.6-33.2,1.6-42.7c0-9.6-0.5-27.6-1.5-53.9c-0.3-6.8-0.7-16.9-1.4-30.3l-0.1-1.8c-0.2-1.9,0.9-2.9,3.2-2.9
		c6.3,0,15.7,0.2,28.2,0.5c12.6,0.3,22,0.5,28.2,0.5c6.2,0,15.5-0.2,27.9-0.5c12.4-0.3,21.7-0.5,27.9-0.5c4.4,0,6.9,1.6,7.6,4.9
		c0.4,1.9,1.1,7.8,2,17.7c0.9,9.9,1.3,15.8,1.3,17.9c0,1.8-0.8,2.7-2.5,2.7c-0.5,0-1.4,0-2.7-0.1c-22.5-1.9-42.7-2.8-60.6-2.8
		c-4.5,0-7.2,1.1-8.2,3.2c-0.4,1-0.6,4.3-0.6,9.8c0,5.8,0.8,9.6,2.5,11.4c1.4,1.6,4.2,2.4,8.2,2.4c0.8,0,2.5-0.1,4.9-0.2
		c2.5-0.1,4.5-0.2,6.1-0.2c10.7,0,21.4-0.3,32.3-0.9c0.9-0.1,3.3-0.3,7-0.6c2.9-0.3,5.2-0.5,6.8-0.5c2,0,3,1,3,2.9
		c0-1.8-0.8,4.7-2.3,19.4c-0.7,6.8-1,13.5-1,20.3c0,1.7-1.2,2.5-3.7,2.5l-11.4-1.3c-4.8-0.5-15.8-0.8-33-0.8h-13.4
		c-3.5,0-5.5,0.8-6.1,2.5c-0.1,0.4-0.1,3-0.1,7.9c0,6.4,0.4,10.6,1.3,12.4c1.4,3.2,6.8,5.1,16.2,5.7c-0.2,0,6,0,18.5,0
		c4.5,0,11.1-0.4,20-1.2c8.8-0.8,15.5-1.2,19.9-1.2C1390.2,206.2,1391.1,207.7,1391.1,210.8z"/>
	<path d="M1507.5,191.9c0,17.2-7.2,31.9-21.7,44.1c-12.7,10.8-28.1,17.7-46.3,20.7c-0.7,0.1-1.2,0.1-1.6,0.1
		c-1.9,0-6.3-5.9-12.9-17.8c-6.7-11.9-10-19.1-10-21.8c0-0.9,0.6-1.5,1.9-1.8c12.3-2.8,20.4-5.2,24.4-7.1
		c8.8-4.4,13.2-10.9,13.2-19.5c0-5.5-2.9-11.6-8.6-18.4c-10-11.5-15.4-17.9-16.2-19.2c-5.8-8.8-8.8-18.5-8.8-29.2
		c0-15.5,7.1-28.3,21.4-38.6c11.7-8.5,26-14,43-16.5c0.9-0.1,1.6-0.1,2.2-0.1c1.3,0,2.3,1,3,3c2.2,6.2,7.3,17.3,15.3,33.5
		c0.3,0.5,0.4,0.9,0.4,1.3c0,1.4-0.8,2.2-2.3,2.2c-0.7,0-1.8-0.1-3.4-0.4c-1.6-0.3-2.8-0.4-3.7-0.4c-6.1,0-11.4,1.4-16,4.2
		c-5.5,3.2-8.2,7.7-8.2,13.4c0,5.2,3,11.5,9.1,19c10.7,13.5,16.4,20.6,16.9,21.3C1504.5,173.4,1507.5,182.6,1507.5,191.9z"/>
	<path d="M1693.5,140.1c0,20.5-5.4,37-16.1,49.7c-11.5,13.4-27.4,20.2-47.6,20.2c-3.4,0-8.5-0.2-15.3-0.6
		c-6.8-0.4-11.9-0.6-15.3-0.6c-3.6,0-5.5,1.6-5.5,4.7c0,3.9,0.4,9.7,1.1,17.4c0.8,7.7,1.1,13.4,1.1,17.2c0,1.9-0.9,2.9-2.7,2.9
		c-5.2,0-12.9-0.1-23.2-0.4c-10.3-0.3-18.1-0.4-23.2-0.4c-2.5,0-3.7-1.2-3.7-3.7c0-9.4,0.1-23.5,0.4-42.3
		c0.3-18.8,0.4-32.9,0.4-42.3c0-26.6-1.1-54.5-3.4-83.7l-0.1-1.8c-0.2-1.6,1.1-2.6,3.8-2.9c6.6-0.8,21.1-1.3,43.6-1.3
		c13.3,0,26,0.2,38.2,0.5c20,0.6,36.2,6.9,48.5,18.9C1687.2,104,1693.5,120.2,1693.5,140.1z M1642.9,142.1
		c0-19.7-9.6-29.6-28.8-29.6c-13.5,0-20.6,0.8-21.3,2.3c-0.6,1.1-0.9,10.9-0.9,29.3c0,2.6,0.1,6.5,0.3,11.6c0.2,5.1,0.3,9,0.3,11.6
		c0,1.7,7.6,2.5,22.8,2.5C1633.7,169.9,1642.9,160.7,1642.9,142.1z"/>
	<path d="M1900,161.4c0,26.4-8.4,48.5-25.2,66.3c-17.2,18.1-38.9,27.1-65.2,27.1c-26.1,0-47.8-9.1-65.1-27.4
		c-16.9-17.8-25.4-39.9-25.4-66.1c0-26.3,8.5-48.4,25.4-66.3c17.2-18.3,38.9-27.5,65.1-27.5c26,0,47.6,9.2,64.9,27.5
		C1891.5,113.2,1900,135.3,1900,161.4z M1852,161.2c0-12.7-3.8-23.5-11.5-32.3c-8-9.3-18.3-14-30.8-14c-11.9,0-22,4.8-30.3,14.5
		c-8,9.3-12,20-12,32.1c0,12.9,3.8,23.7,11.3,32.3c7.9,9,18.3,13.6,31.1,13.6c11.9,0,22.1-4.8,30.4-14.3
		C1848,183.9,1852,173.3,1852,161.2z"/>
	<path d="M2055.5,111.1c0,1.7-0.9,2.5-2.8,2.5c-3.2,0-15.9-0.6-38.2-1.9c-0.5,21.4-0.8,36.3-0.8,44.8c0,10,0.4,25,1.2,45
		c0.8,20,1.2,35.1,1.2,45c0,1.6-0.4,2.6-1.1,3c-0.3,0.2-1.4,0.4-3.6,0.6c-5.1,0.7-12.5,1-22.3,1c-10.9,0-18.6-0.3-23-1
		c-2.4-0.4-3.6-1.7-3.6-3.9c0-10,0.4-24.9,1.3-44.9c0.8-20,1.3-34.9,1.3-44.9c0-6.6-0.3-21.3-1-44.1c-16.9,1.7-30.4,2.5-40.5,2.5
		c-1.4,0-2-0.4-2-1.3c0-1.1,0.6-4.4,1.8-9.8c1.4-5.9,2.1-9.5,2.3-10.8c0.3-4,0.5-7.9,0.9-11.9c0.6-6.3,1.6-9.5,3-9.5
		c0.2,0,0.8,0,1.8,0.1c13.7,1.8,33.9,2.7,60.8,2.7c7.6,0,21.6-0.8,42.1-2.4c11-0.8,16.5-1.3,16.6-1.3c1.7,0,2.7,0.1,2.9,0.3
		c0.3,0.2,0.4,1,0.5,2.5c0,2.3-0.1,5.5-0.3,9.5c-0.2,4.5-0.3,7.7-0.3,9.5c0,2.1,0.3,5.2,0.8,9.3C2055.2,106,2055.5,109,2055.5,111.1
		z"/>
	<path d="M2258.2,161.4c0,26.4-8.4,48.5-25.2,66.3c-17.2,18.1-38.9,27.1-65.2,27.1c-26.1,0-47.8-9.1-65.1-27.4
		c-16.9-17.8-25.4-39.9-25.4-66.1c0-26.3,8.5-48.4,25.4-66.3c17.2-18.3,38.9-27.5,65.1-27.5c26,0,47.6,9.2,64.9,27.5
		C2249.7,113.2,2258.2,135.3,2258.2,161.4z M2210.1,161.2c0-12.7-3.8-23.5-11.5-32.3c-8-9.3-18.3-14-30.8-14
		c-11.9,0-22,4.8-30.3,14.5c-8,9.3-12,20-12,32.1c0,12.9,3.8,23.7,11.3,32.3c7.9,9,18.3,13.6,31.1,13.6c11.9,0,22.1-4.8,30.4-14.3
		C2206.1,183.9,2210.1,173.3,2210.1,161.2z"/>
</g>
<g>
	<polyline class="st3" points="56.7,262 56.7,57.1 220.2,57.1 167.2,69.4 157.3,71.5 147.5,74.1 137.9,77.2 128.4,80.7 119.2,84.7 
		110.1,89.1 101.2,94 96.6,97.2 92.1,100.6 87.9,104.3 83.9,108.3 81.2,111.4 78.8,114.7 76.7,118.2 75.3,121.2 74.3,124.4 
		73.9,127.6 73.9,130.9 74.4,134.2 75.4,137.4 76.9,140.3 79.2,143.4 81.9,146.1 84.9,148.6 89.9,152.1 95.1,155.3 107.8,163.2 
		118,169.7 128.6,175.7 139.5,181.2 150.5,186.3 156.8,188.8 162.9,191.7 168.8,194.9 171.9,197.1 174.8,199.5 177.4,202.3 
		179.6,205.4 181.4,208.7 182.6,211.7 183.3,214.8 183.5,218 183.3,221.2 182.7,224.3 181.7,226.8 180.4,229.2 178.8,231.4 
		177,233.4 173.5,236.1 169.7,238.4 165.7,240.2 152.8,244.7 139.6,248.7 126.4,252.2 109.7,257 93,262 56.7,262 	"/>
	<polyline class="st3" points="154.9,104.3 156.9,100.1 159.3,96.2 162.1,92.5 165.3,89.2 168.8,86.1 172.5,83.5 179,79.3 
		185.8,75.5 192.7,72.1 199.9,69.1 207.1,66.5 215.9,63.9 224.7,61.6 233.6,59.7 242.6,58.2 251.6,57.1 311.8,57.1 311.8,262 
		287.2,262 290.7,257.3 293.7,252.4 296.2,247.1 298.2,241.7 299.7,236.1 300.6,230.4 301.1,224.6 301,218.8 300.3,213 299.1,207.3 
		297.4,201.8 295.2,196.4 292.4,191.3 289.3,186.5 285.6,181.9 281.6,177.8 277.2,174 272.5,170.6 267.4,167.7 262.2,165.3 
		256.7,163.4 251.1,162 235.6,158.2 220.2,154.1 204.9,149.7 194.5,146.5 184.1,143.2 179,141.5 174.1,139.5 169.3,137.2 
		165.9,135.2 162.8,132.8 160.1,130 157.8,126.8 156,123.4 154.7,119.7 153.9,115.9 153.7,112 154.1,108.1 154.9,104.3 	"/>
</g>
</svg>
