<?xml version="1.0" encoding="utf-8"?>
<!-- Generator: Adobe Illustrator 26.2.1, SVG Export Plug-In . SVG Version: 6.00 Build 0)  -->
<svg version="1.1" id="LOGO" xmlns="http://www.w3.org/2000/svg" xmlns:xlink="http://www.w3.org/1999/xlink" x="0px" y="0px"
	 viewBox="0 0 2307.4 317.5" style="enable-background:new 0 0 2307.4 317.5;" xml:space="preserve">
<style type="text/css">
	.st0{display:none;fill:#D20515;}
	.st1{display:none;fill:#FFFFFF;}
	.st2{display:none;}
	.st3{fill:#FFFFFF;}
	.st4{fill-rule:evenodd;clip-rule:evenodd;fill:#D20515;}
	.st5{display:inline;fill:#231F20;}
	.st6{display:inline;fill-rule:evenodd;clip-rule:evenodd;fill:#D20515;}
	.st7{display:inline;fill:#FFFFFF;}
</style>
<rect x="56.7" y="-963.2" class="st0" width="255.1" height="204.1"/>
<path class="st1" d="M267-855.7c0.1,0.5-0.3,0.9-1.2,1.5l-0.6,0.3l0.2,0.4c0.1,0.2-0.1,0.6-0.5,0.8l-0.8,0.4
	c-0.4,0.2-0.8,0.2-0.9-0.1l-0.2-0.3l-1.1,0.5l0.2,0.4c0.1,0.2-0.1,0.6-0.5,0.8l-0.9,0.4c-0.4,0.2-0.8,0.1-0.9-0.1l-0.1-0.3
	c-3.3,1.5-6.9,3.2-10.7,4.9l0.2,0.5c0.1,0.2-0.1,0.6-0.5,0.8l-0.9,0.4c-0.4,0.2-0.8,0.1-0.9-0.1l-0.2-0.5l-1.2,0.6l0.2,0.5
	c0.1,0.2-0.1,0.6-0.5,0.8l-0.9,0.4c-0.4,0.2-0.8,0.1-0.9-0.1l-0.2-0.5c-1.7,0.7-3.6,1-4.9-1.6c-0.6-1.2-0.6-3.9-1.1-5.3
	c-0.2-0.5-0.6-0.8-1.1-0.9c-16.6-3.2-22.2,0.4-32.9-2.3c-3.4-0.8-5.2-3.9-9.3-3.9c-9-0.3-11.6-0.1-21.4-0.5
	c-0.4,1.4-0.5,1.7-0.5,1.7l-34.3-0.2l5.2,2.6l1.7,15.1c0,0-1.4,0.4-1.8,0.5c0.3,3,0.6,7.1,0.8,10.8c0.1,3.3,0.3,6.7,0.3,8.9
	c0,1.4-0.3,2.8-1,4.1c-0.7,1.1-1.5,2-2.6,2.8c-0.3,0.2-1.6,1.1-3.2,2s-3.4,1.9-4.3,2.3c0.1,0.4,0.3,0.8,0.5,1.2
	c-20.9,10.1-46.7,13.5-55.1,29.5c-1,1.9-4.4,0.9-4.5-1.1c0-0.9,0-2.4,0-3.2h-0.3c-0.3,0-0.5-0.4-0.4-0.8v-0.9c0-0.4,0.3-0.8,0.5-0.8
	H74c0.1-0.9,0.3-1.8,0.5-2.7l-0.3-0.1c-0.2-0.1-0.3-0.5-0.2-0.9l0.3-0.9c0.2-0.4,0.5-0.7,0.7-0.6l0.3,0.1c1.5-3.5,4.4-5,5.7-8.3
	l-0.2-0.1c-0.3-0.1-0.3-0.5-0.2-0.9l0.3-0.9c0.2-0.4,0.5-0.7,0.7-0.6l0.2,0.1c0.2-0.5,0.4-1,0.7-1.5l-0.3-0.2
	c-0.2-0.2-0.2-0.6,0-0.9l0.5-0.8c0.2-0.4,0.6-0.5,0.8-0.4l0.1,0.1h0.1c0.1,0,0.1,0,0.2-0.1c0.1-0.1,0.3-0.3,0.4-0.4
	c1.3-1,3.1-1,4.4-0.1c1.3,0.8,6.4,3.7,11.4-0.7c8.1-7.3,17.6-17.2,24.8-17.5c-1.9-4.2-5.3-12.9-5.7-16.2l-2.4-0.5
	c-1.2-2.7-4.3-15.1-5.2-24.5c0,0-1-10.1,0-13.6c-0.6-0.1-1.6,0.8-1.8,0.8c-1.3-3.2,2.9-30.3,7.2-38.2l6.4-2.6
	c-0.7-0.1-5.3-0.3-17.6-1.3c-6.8,6-14.7,12.6-18.8,16.1c-0.7,0.5-1.8,4.4-1.8,4.4s-2,1.8-3.9,3.1c-2.5,1.7-8.6,3.1-9.9,1
	c-0.3-0.5-0.2-0.7,0-1c0.9-1,4.5-2.7,5.7-4.9c-1.9,1-4.1,2-5.8,1.8c-0.7,0-1.1-1.9-0.2-2.2c2.6-1.1,4.6-1.6,6.1-3.7s3.2-3.4,5.6-3.5
	c0,0,11.4-14.9,18.1-22c1.9-1.9,5.3-1.3,5.3-1.3l0.6-2.3c0,0,23-2.8,33.8,0.8c-0.2-6.5,2.7-15.2,12.9-15.2c5.2,0,12.9,4.6,14,10.2
	c0.3,1.7-0.7,2.9-1.2,5.1c-0.9,3.3,0.4,7,0,8.2c-0.3,0.9-1.4,0.9-2.3,2.2c-0.8,1.3-1.5,2.6-2.1,4l-1.4,3.2l-7.2-0.5
	c-2.6,5.7-8,17.2-9.9,28.7l0,0c5.6,0.5,31.2,4.2,31.2,4.2l0.6,2.1c0,0,10.8,1.3,19.6,5.5c2,0.5,6.9-0.3,10.2,1.2
	c0.2-0.1,0.8-0.7,1-0.8c11.5,3.5,21,9.6,32.1,12.2c0,0,5.2,1.3,6.9,1.6c2.9,0.6,5.9,1,8.9,1.1c3.5,0.3,5.5,0.2,8.1,0.4
	C264-858.1,266.3-858.4,267-855.7 M283.5-890.7c-7.8,0-14.2,6.3-14.2,14.2s6.3,14.2,14.2,14.2s14.2-6.3,14.2-14.2
	C297.6-884.3,291.3-890.7,283.5-890.7C283.5-890.7,283.4-890.7,283.5-890.7L283.5-890.7z"/>
<path class="st2" d="M561.3-815.9c0,35.4-16.6,54.2-61.4,54.2H396.9v-199h99.3c46.2,0,62.2,18.3,62.2,52c0,25.7-9.7,37.4-37.1,44.2
	l-5.1,1.4l4.6,0.9C551.6-855.3,561.3-843.9,561.3-815.9z M444.3-877.5H486c16.6,0,24-7.1,24-24.3c0-18-6.9-25.1-24-25.1h-41.7
	L444.3-877.5z M513-820.8c0-18.3-7.4-26-24.3-26h-44.5v51.4h44.5C506.5-795.4,513-802.8,513-820.8z M593.6-826.5v-134.2h49.7v132.8
	c0,22,10,30.3,36.8,30.3s36.9-8.3,36.9-30.3v-132.8h49.7v134.2c0,46.8-27.1,68.2-86.5,68.2S593.7-779.7,593.6-826.5L593.6-826.5z
	 M999.6-960.6v199h-60.5l-84.5-143.9v143.9h-46.2v-199h60.5l84.5,143.9v-143.8H999.6z M1040.5-960.6h88.8
	c69.7,0,87.9,28.5,87.9,99.3c0,68.8-20,99.6-87.9,99.6h-88.8V-960.6z M1127.8-799.6c29.1,0,38.5-15.1,38.5-61.7
	c0-46.2-9.4-61.4-38.5-61.4h-37.7v123L1127.8-799.6z M1253.4-960.6h139.3v38H1303v42h74.5v37.4H1303v43.7h91.6v38h-141.3V-960.6z
	 M1424.1-769.4v-38.8c21.4,7.3,43.9,10.9,66.5,10.8c22.8,0,32.8-6,32.8-21.4c0-13.4-4.3-17.4-22.6-21.1l-33.1-6.9
	c-34.5-7.1-46-21.1-46-55.1c0-43.7,25.7-62.5,77.4-62.5c23.4,0,45.4,4,63.4,10.9v38.8c-19.4-6.9-39.9-10.5-60.5-10.6
	c-24.6,0-32.8,6.6-32.8,22c0,12.8,5.7,16.6,21.7,20l32.3,6.9c37.4,8,47.7,20.5,47.7,56.2c0,42.5-26.3,62-79.9,62
	C1468.1-758.1,1445.5-761.9,1424.1-769.4z M1605.7-960.6h49.7v161h85.4v38h-135L1605.7-960.6z M1771.8-960.6h49.7v199h-49.7V-960.6z
	 M2027.1-876.7v108.2c-18.6,6.3-43.1,10.3-68.8,10.3c-69.1,0-101.6-30.6-101.6-103.1c0-71.9,32.5-103.1,101.6-103.1
	c24.6,0,48,4,65.7,11.1v38.5c-19.4-6.6-41.1-10.6-61.7-10.6c-41.7,0-54.8,16.8-54.8,63.9c0,49.1,13.7,65.4,53.1,65.4
	c8.7,0,17.4-0.6,26-1.7v-44.5h-36.8v-34.5H2027.1z M2189.3-803.4h-77.9l-14,41.7H2048l71.1-199h63.4l70.8,199h-50L2189.3-803.4z
	 M2150.8-929.2l-28.8,89.9h57.4L2150.8-929.2z"/>
<g>
	<path class="st3" d="M389.5,77.2h75.6c42.9,0,68.8,16.9,68.8,56.6c0,21.3-8.8,38.7-30.1,49.6c14.5,22.9,26.2,44.4,36.1,66.8h-54
		c-8.1-19.2-19-40.3-29.4-55.8h-18.7v55.8h-48.3V77.2z M437.8,114.1v44.7h20.8c17.4,0,25.7-6,25.7-22.6s-8.3-22.1-25.7-22.1H437.8z"
		/>
	<path class="st3" d="M570.1,77.2h48.3v173h-48.3V77.2z"/>
	<path class="st3" d="M654.7,179.5v-31.4c0-50.7,23.6-73.3,75.6-73.3s75.6,22.6,75.6,73.3v31.4c0,50.7-23.6,73-75.6,73
		S654.7,230.2,654.7,179.5z M756.3,179.5v-31.4c0-26.5-6.8-35.1-26-35.1s-26,8.6-26,35.1v31.4c0,26.5,6.8,35.1,26,35.1
		S756.3,206,756.3,179.5z"/>
	<path class="st3" d="M836.3,245.3v-41.8c22.3,7.5,42.3,9.9,56.4,9.9c19.7,0,27.3-5.7,27.3-14.3c0-8.3-4.9-12.5-22.1-14.8l-15.6-2.3
		c-29.9-3.9-47.5-18.4-47.5-49.9c0-31.7,24.2-57.1,74.3-57.1c16.9,0,34.3,1.6,55.8,7.3v41c-21-7.3-37.9-9.1-51.2-9.1
		c-19.5,0-27,4.9-27,13.5c0,8.3,4.9,12.2,22.1,14.8l15.1,2.1c29.9,4.4,47.8,19.7,47.8,50.4c0,33.5-24.2,57.7-75.3,57.7
		C880.5,252.5,861,250.5,836.3,245.3z"/>
	<path class="st3" d="M1075.5,250.2v-173h70.4c52.2,0,75.9,21.6,75.9,72.2V178c0,50.9-23.6,72.2-75.9,72.2H1075.5z M1123.9,212h22.1
		c19.5,0,26.2-7.3,26.2-34v-28.6c0-26.2-7-33.8-26.2-33.8h-22.1V212z"/>
	<path class="st3" d="M1257.9,250.2v-173h117.7v39h-69.4v28.3h66.2v38.2h-66.2v28.8h70.4v38.7H1257.9z"/>
	<path class="st3" d="M1406.2,245.3v-41.8c22.3,7.5,42.3,9.9,56.4,9.9c19.7,0,27.3-5.7,27.3-14.3c0-8.3-4.9-12.5-22.1-14.8
		l-15.6-2.3c-29.9-3.9-47.5-18.4-47.5-49.9c0-31.7,24.2-57.1,74.3-57.1c16.9,0,34.3,1.6,55.8,7.3v41c-21-7.3-37.9-9.1-51.2-9.1
		c-19.5,0-27,4.9-27,13.5c0,8.3,4.9,12.2,22.1,14.8l15.1,2.1c29.9,4.4,47.8,19.7,47.8,50.4c0,33.5-24.2,57.7-75.3,57.7
		C1450.4,252.5,1430.9,250.5,1406.2,245.3z"/>
	<path class="st3" d="M1574.3,77.2h74.6c43.6,0,69.4,19.2,69.4,59.7c0,40.8-25.7,60-69.4,60h-26.2v53.3h-48.3V77.2z M1668.3,136.9
		c0-17.7-7.8-22.9-25.7-22.9h-20v46.2h20C1660.5,160.3,1668.3,154.6,1668.3,136.9z"/>
	<path class="st3" d="M1747.3,179.5v-31.4c0-50.7,23.6-73.3,75.6-73.3s75.6,22.6,75.6,73.3v31.4c0,50.7-23.6,73-75.6,73
		S1747.3,230.2,1747.3,179.5z M1848.8,179.5v-31.4c0-26.5-6.8-35.1-26-35.1s-26,8.6-26,35.1v31.4c0,26.5,6.8,35.1,26,35.1
		S1848.8,206,1848.8,179.5z"/>
	<path class="st3" d="M1922.1,77.2h141.1v40h-46.2v133h-48.6v-133h-46.2V77.2z"/>
	<path class="st3" d="M2087,179.5v-31.4c0-50.7,23.6-73.3,75.6-73.3s75.6,22.6,75.6,73.3v31.4c0,50.7-23.6,73-75.6,73
		S2087,230.2,2087,179.5z M2188.6,179.5v-31.4c0-26.5-6.8-35.1-26-35.1s-26,8.6-26,35.1v31.4c0,26.5,6.8,35.1,26,35.1
		S2188.6,206,2188.6,179.5z"/>
</g>
<g>
	<polyline class="st4" points="56.7,262 56.7,57.1 220.2,57.1 167.2,69.4 157.3,71.5 147.5,74.1 137.9,77.2 128.4,80.7 119.2,84.7 
		110.1,89.1 101.2,94 96.6,97.2 92.1,100.6 87.9,104.3 83.9,108.3 81.2,111.4 78.8,114.7 76.7,118.2 75.3,121.2 74.3,124.4 
		73.9,127.6 73.9,130.9 74.4,134.2 75.4,137.4 76.9,140.3 79.2,143.4 81.9,146.1 84.9,148.6 89.9,152.1 95.1,155.3 107.8,163.2 
		118,169.7 128.6,175.7 139.5,181.2 150.5,186.3 156.8,188.8 162.9,191.7 168.8,194.9 171.9,197.1 174.8,199.5 177.4,202.3 
		179.6,205.4 181.4,208.7 182.6,211.7 183.3,214.8 183.5,218 183.3,221.2 182.7,224.3 181.7,226.8 180.4,229.2 178.8,231.4 
		177,233.4 173.5,236.1 169.7,238.4 165.7,240.2 152.8,244.7 139.6,248.7 126.4,252.2 109.7,257 93,262 56.7,262 	"/>
	<polyline class="st4" points="154.9,104.3 156.9,100.1 159.3,96.2 162.1,92.5 165.3,89.2 168.8,86.1 172.5,83.5 179,79.3 
		185.8,75.5 192.7,72.1 199.9,69.1 207.1,66.5 215.9,63.9 224.7,61.6 233.6,59.7 242.6,58.2 251.6,57.1 311.8,57.1 311.8,262 
		287.2,262 290.7,257.3 293.7,252.4 296.2,247.1 298.2,241.7 299.7,236.1 300.6,230.4 301.1,224.6 301,218.8 300.3,213 299.1,207.3 
		297.4,201.8 295.2,196.4 292.4,191.3 289.3,186.5 285.6,181.9 281.6,177.8 277.2,174 272.5,170.6 267.4,167.7 262.2,165.3 
		256.7,163.4 251.1,162 235.6,158.2 220.2,154.1 204.9,149.7 194.5,146.5 184.1,143.2 179,141.5 174.1,139.5 169.3,137.2 
		165.9,135.2 162.8,132.8 160.1,130 157.8,126.8 156,123.4 154.7,119.7 153.9,115.9 153.7,112 154.1,108.1 154.9,104.3 	"/>
</g>
<g class="st2">
	<path class="st5" d="M392.4,540.9h72.2c40.5,0,65.2,17.1,65.2,54.8c0,23.4-11.2,41-33.8,49.9c15.8,22.9,28.3,45.2,39.5,68.3h-43.1
		c-9.6-20.8-22.1-42.9-34.5-60h-27v60h-38.4V540.9z M430.8,571.6V624h29.1c20.5,0,30.4-7.8,30.4-26.8c0-18.4-9.9-25.7-30.7-25.7
		H430.8z"/>
	<path class="st5" d="M570.1,540.9h38.4v173h-38.4V540.9z"/>
	<path class="st5" d="M649.5,644.6v-34.3c0-48.8,23.4-71.7,72.7-71.7c49.1,0,72.5,23.1,72.5,71.7v34.3c0,49.1-23.4,71.7-72.5,71.7
		C672.9,716.2,649.5,693.6,649.5,644.6z M755.5,644.6v-34.3c0-29.1-10.1-40.5-33.2-40.5c-23.4,0-33.2,11.2-33.2,40.5v34.3
		c0,29.6,9.9,40.8,33.2,40.8C745.4,685.3,755.5,674.2,755.5,644.6z"/>
	<path class="st5" d="M828.5,708.5v-34.3c22.1,7.5,41.8,10.1,56.4,10.1c23.1,0,33.5-8.1,33.5-20c0-11.2-6.2-17.1-26-20l-18.2-2.9
		c-30.4-4.2-46.8-19-46.8-48.3c0-30.9,23.6-54.6,70.4-54.6c16.6,0,33.8,2.1,54.8,7.5v33.5c-20.8-6.8-37.4-8.8-51.2-8.8
		c-22.6,0-33,7-33,19c0,10.7,6.2,16.6,26,19.5l17.7,2.6c30.1,4.7,47,20,47,49.1c0,32.5-23.6,55.3-71.4,55.3
		C871.4,716.2,852.2,714.2,828.5,708.5z"/>
</g>
<g class="st2">
	<polyline class="st6" points="56.7,725.7 56.7,520.8 220.2,520.8 167.2,533.1 157.3,535.2 147.5,537.8 137.9,540.9 128.4,544.4 
		119.2,548.4 110.1,552.8 101.2,557.7 96.6,560.9 92.1,564.3 87.9,568 83.9,572 81.2,575.1 78.8,578.4 76.7,581.9 75.3,584.9 
		74.3,588.1 73.9,591.3 73.9,594.7 74.4,597.9 75.4,601.1 76.9,604 79.2,607.1 81.9,609.9 84.9,612.3 89.9,615.8 95.1,619 
		107.8,626.9 118,633.4 128.6,639.4 139.5,644.9 150.5,650 156.8,652.5 162.9,655.4 168.8,658.6 171.9,660.8 174.8,663.2 177.4,666 
		179.6,669.1 181.4,672.4 182.6,675.4 183.3,678.5 183.5,681.7 183.3,684.9 182.7,688 181.7,690.5 180.4,692.9 178.8,695.1 
		177,697.1 173.5,699.8 169.7,702.1 165.7,703.9 152.8,708.4 139.6,712.4 126.4,715.9 109.7,720.7 93,725.7 56.7,725.7 	"/>
	<polyline class="st6" points="154.9,568 156.9,563.8 159.3,559.9 162.1,556.2 165.3,552.9 168.8,549.9 172.5,547.2 179,543 
		185.8,539.2 192.7,535.8 199.9,532.8 207.1,530.2 215.9,527.6 224.7,525.3 233.6,523.4 242.6,521.9 251.6,520.8 311.8,520.8 
		311.8,725.7 287.2,725.7 290.7,721 293.7,716.1 296.2,710.8 298.2,705.4 299.7,699.8 300.6,694.1 301.1,688.3 301,682.5 
		300.3,676.7 299.1,671 297.4,665.5 295.2,660.1 292.4,655 289.3,650.2 285.6,645.6 281.6,641.5 277.2,637.7 272.5,634.3 
		267.4,631.5 262.2,629 256.7,627.1 251.1,625.7 235.6,621.9 220.2,617.8 204.9,613.4 194.5,610.2 184.1,606.9 179,605.2 
		174.1,603.2 169.3,600.9 165.9,598.9 162.8,596.5 160.1,593.7 157.8,590.5 156,587.1 154.7,583.4 153.9,579.6 153.7,575.7 
		154.1,571.8 154.9,568 	"/>
</g>
<g class="st2">
	<path class="st7" d="M538.9,1225.4c0,0.6-0.8,1-2.5,1.3c-3.2,0.5-11.3,0.8-24.2,0.8c-11.1,0-18.6-0.3-22.6-0.8
		c-1.9-0.3-2.9-0.5-3.2-0.6c-0.5-0.3-1.1-1.1-1.8-2.5c-1.3-3.3-3.1-8.2-5.6-14.7c-3.3-8.5-8.5-20.9-15.5-37.4
		c-1.5-3.3-5-5.1-10.5-5.5c2.5,0.2-1.8,0.3-13.1,0.3c-1.3,0-1.9,2.2-1.9,6.5c0,5.8,0.5,14.3,1.6,25.7c1.1,11.4,1.6,20,1.6,25.7
		c0,1.4-0.4,2.3-1.1,2.5c-1.2,0.1-2.4,0.2-3.6,0.3c-5,0.3-12.8,0.5-23.3,0.5c-12.1,0-19.4-0.3-21.8-0.8c-2.5-0.5-3.7-1.8-3.7-3.9
		c0-9.3,0.4-23.3,1.3-42.1c0.9-18.8,1.3-32.9,1.3-42.2c0-35.8-0.8-63.7-2.4-83.7l-0.1-1.8c-0.1-1.4,1.2-2.4,4-2.9
		c2.7-0.5,15.7-1,38.7-1.5c15.6-0.3,28.1-0.5,37.4-0.5c19.3,0,35,4.4,47.2,13.1c13.8,9.8,20.7,24,20.7,42.5
		c0,12.3-1.8,22.2-5.3,29.6c-3.6,7.4-10.1,14.5-19.7,21.4c-1.9,1.4-2.9,2.6-2.9,3.8c0-0.1,5.2,10.5,15.5,31.8
		C533.7,1211.4,538.9,1223.2,538.9,1225.4z M485.6,1111.6c0-10.3-3.4-17.5-10.1-21.4c-5.2-3-13.4-4.6-24.6-4.6
		c-8,0-12.3,1.2-12.8,3.7c-0.5,2.9-0.8,11.2-0.8,24.9c0,1.9,0,4.8,0.1,8.6c0.1,3.8,0.1,6.6,0.1,8.5c0,0.4,1.4,0.8,4.1,1.3
		c5.2,0.8,10.6,1.1,16.2,1.1C476.3,1133.7,485.6,1126.3,485.6,1111.6z"/>
	<path class="st7" d="M617.7,1132.9c0,10,0.3,25,0.8,45s0.8,35,0.8,45c0,1.7-0.4,2.7-1.1,3.2c-0.2,0.1-1.3,0.3-3.3,0.5
		c-5.5,0.7-12.9,1-22.1,1c-12.3,0-20.2-0.3-23.6-1c-2.5-0.5-3.7-1.8-3.7-3.9c0,1.4,0.4-6.1,1.1-22.3c1.5-34.2,2.3-56.7,2.3-67.5
		c0-9-0.3-22.6-0.9-40.7c-0.6-18.1-0.9-31.7-0.9-40.7c0-1.9,1-2.8,2.9-2.8c2.6,0,6.6,0.1,11.9,0.4c5.3,0.3,9.2,0.4,11.9,0.4
		c2.6,0,6.5-0.1,11.6-0.4c5.1-0.3,9-0.4,11.6-0.4c2.5,0,3.7,0.9,3.7,2.8c0,9-0.5,22.6-1.5,40.7
		C618.2,1110.3,617.7,1123.8,617.7,1132.9z"/>
	<path class="st7" d="M832.7,1137.8c0,26.4-8.4,48.5-25.2,66.3c-17.2,18.1-38.9,27.1-65.2,27.1c-26.1,0-47.8-9.1-65.1-27.4
		c-16.9-17.8-25.4-39.9-25.4-66.1c0-26.3,8.5-48.4,25.4-66.3c17.2-18.3,38.9-27.5,65.1-27.5c26,0,47.6,9.2,64.9,27.5
		C824.2,1089.6,832.7,1111.7,832.7,1137.8z M784.7,1137.6c0-12.7-3.8-23.5-11.5-32.3c-8-9.3-18.3-14-30.8-14
		c-11.9,0-22,4.8-30.3,14.5c-8,9.3-12,20-12,32.1c0,12.9,3.8,23.7,11.3,32.3c7.9,9,18.3,13.6,31.1,13.6c11.9,0,22.1-4.8,30.4-14.3
		C780.7,1160.3,784.7,1149.7,784.7,1137.6z"/>
	<path class="st7" d="M951.1,1168.3c0,17.2-7.2,31.9-21.7,44.1c-12.7,10.8-28.1,17.7-46.3,20.7c-0.7,0.1-1.2,0.1-1.6,0.1
		c-1.9,0-6.3-5.9-12.9-17.8c-6.7-11.9-10-19.1-10-21.8c0-0.9,0.6-1.5,1.9-1.8c12.3-2.8,20.4-5.2,24.4-7.1
		c8.8-4.4,13.2-10.9,13.2-19.5c0-5.5-2.9-11.6-8.6-18.4c-10-11.5-15.4-17.9-16.2-19.2c-5.8-8.8-8.8-18.5-8.8-29.2
		c0-15.5,7.1-28.3,21.4-38.6c11.7-8.5,26-14,43-16.5c0.9-0.1,1.6-0.1,2.2-0.1c1.3,0,2.3,1,3,3c2.2,6.2,7.3,17.3,15.3,33.5
		c0.3,0.5,0.4,0.9,0.4,1.3c0,1.4-0.8,2.2-2.3,2.2c-0.7,0-1.8-0.1-3.4-0.4c-1.6-0.3-2.8-0.4-3.7-0.4c-6.1,0-11.4,1.4-16,4.2
		c-5.5,3.2-8.2,7.7-8.2,13.4c0,5.2,3,11.5,9.1,19c10.7,13.5,16.4,20.6,16.9,21.3C948.1,1149.8,951.1,1159.1,951.1,1168.3z"/>
</g>
<g class="st2">
	<polyline class="st6" points="56.7,1238.4 56.7,1033.5 220.2,1033.5 167.2,1045.8 157.3,1047.9 147.5,1050.5 137.9,1053.6 
		128.4,1057.1 119.2,1061.1 110.1,1065.6 101.2,1070.4 96.6,1073.6 92.1,1077 87.9,1080.7 83.9,1084.7 81.2,1087.8 78.8,1091.1 
		76.7,1094.6 75.3,1097.6 74.3,1100.8 73.9,1104.1 73.9,1107.4 74.4,1110.6 75.4,1113.8 76.9,1116.7 79.2,1119.8 81.9,1122.6 
		84.9,1125 89.9,1128.5 95.1,1131.7 107.8,1139.6 118,1146.1 128.6,1152.1 139.5,1157.6 150.5,1162.7 156.8,1165.2 162.9,1168.1 
		168.8,1171.4 171.9,1173.5 174.8,1176 177.4,1178.7 179.6,1181.8 181.4,1185.1 182.6,1188.1 183.3,1191.2 183.5,1194.4 
		183.3,1197.6 182.7,1200.7 181.7,1203.2 180.4,1205.6 178.8,1207.8 177,1209.8 173.5,1212.5 169.7,1214.8 165.7,1216.6 
		152.8,1221.1 139.6,1225.1 126.4,1228.6 109.7,1233.4 93,1238.4 56.7,1238.4 	"/>
	<polyline class="st6" points="154.9,1080.7 156.9,1076.5 159.3,1072.6 162.1,1068.9 165.3,1065.6 168.8,1062.6 172.5,1059.9 
		179,1055.7 185.8,1051.9 192.7,1048.5 199.9,1045.5 207.1,1042.9 215.9,1040.3 224.7,1038.1 233.6,1036.2 242.6,1034.6 
		251.6,1033.5 311.8,1033.5 311.8,1238.4 287.2,1238.4 290.7,1233.8 293.7,1228.8 296.2,1223.6 298.2,1218.1 299.7,1212.5 
		300.6,1206.8 301.1,1201 301,1195.2 300.3,1189.4 299.1,1183.8 297.4,1178.2 295.2,1172.9 292.4,1167.7 289.3,1162.9 285.6,1158.4 
		281.6,1154.2 277.2,1150.4 272.5,1147.1 267.4,1144.2 262.2,1141.8 256.7,1139.8 251.1,1138.5 235.6,1134.6 220.2,1130.5 
		204.9,1126.1 194.5,1123 184.1,1119.6 179,1117.9 174.1,1115.9 169.3,1113.6 165.9,1111.7 162.8,1109.3 160.1,1106.4 157.8,1103.3 
		156,1099.8 154.7,1096.1 153.9,1092.3 153.7,1088.4 154.1,1084.5 154.9,1080.7 	"/>
</g>
<g class="st2">
	<path class="st7" d="M538.9-910.4c0,0.6-0.8,1-2.5,1.3c-3.2,0.5-11.3,0.8-24.2,0.8c-11.1,0-18.6-0.3-22.6-0.8
		c-1.9-0.3-2.9-0.5-3.2-0.6c-0.5-0.3-1.1-1.1-1.8-2.5c-1.3-3.3-3.1-8.2-5.6-14.7c-3.3-8.5-8.5-20.9-15.5-37.4
		c-1.5-3.3-5-5.1-10.5-5.5c2.5,0.2-1.8,0.3-13.1,0.3c-1.3,0-1.9,2.2-1.9,6.5c0,5.8,0.5,14.3,1.6,25.7c1.1,11.4,1.6,20,1.6,25.7
		c0,1.4-0.4,2.3-1.1,2.5c-1.2,0.1-2.4,0.2-3.6,0.3c-5,0.3-12.8,0.5-23.3,0.5c-12.1,0-19.4-0.3-21.8-0.8c-2.5-0.5-3.7-1.8-3.7-3.9
		c0-9.3,0.4-23.3,1.3-42.1c0.9-18.8,1.3-32.9,1.3-42.2c0-35.8-0.8-63.7-2.4-83.7l-0.1-1.8c-0.1-1.4,1.2-2.4,4-2.9
		c2.7-0.5,15.7-1,38.7-1.5c15.6-0.3,28.1-0.5,37.4-0.5c19.3,0,35,4.4,47.2,13.1c13.8,9.8,20.7,24,20.7,42.5
		c0,12.3-1.8,22.2-5.3,29.6c-3.6,7.4-10.1,14.5-19.7,21.4c-1.9,1.4-2.9,2.6-2.9,3.8c0-0.1,5.2,10.5,15.5,31.8
		C533.7-924.4,538.9-912.6,538.9-910.4z M485.6-1024.2c0-10.3-3.4-17.5-10.1-21.4c-5.2-3-13.4-4.6-24.6-4.6c-8,0-12.3,1.2-12.8,3.7
		c-0.5,2.9-0.8,11.2-0.8,24.9c0,1.9,0,4.8,0.1,8.6c0.1,3.8,0.1,6.6,0.1,8.5c0,0.4,1.4,0.8,4.1,1.3c5.2,0.8,10.6,1.1,16.2,1.1
		C476.3-1002.1,485.6-1009.5,485.6-1024.2z"/>
	<path class="st7" d="M617.7-1002.9c0,10,0.3,25,0.8,45s0.8,35.1,0.8,45c0,1.7-0.4,2.7-1.1,3.2c-0.2,0.1-1.3,0.3-3.3,0.5
		c-5.5,0.7-12.9,1-22.1,1c-12.3,0-20.2-0.3-23.6-1c-2.5-0.5-3.7-1.8-3.7-3.9c0,1.4,0.4-6.1,1.1-22.3c1.5-34.2,2.3-56.7,2.3-67.5
		c0-9-0.3-22.6-0.9-40.7c-0.6-18.1-0.9-31.7-0.9-40.7c0-1.9,1-2.8,2.9-2.8c2.6,0,6.6,0.1,11.9,0.4c5.3,0.3,9.2,0.4,11.9,0.4
		c2.6,0,6.5-0.1,11.6-0.4c5.1-0.3,9-0.4,11.6-0.4c2.5,0,3.7,0.9,3.7,2.8c0,9-0.5,22.6-1.5,40.7
		C618.2-1025.5,617.7-1011.9,617.7-1002.9z"/>
	<path class="st7" d="M832.7-997.9c0,26.4-8.4,48.5-25.2,66.3c-17.2,18.1-38.9,27.1-65.2,27.1c-26.1,0-47.8-9.1-65.1-27.4
		c-16.9-17.8-25.4-39.9-25.4-66.1c0-26.3,8.5-48.4,25.4-66.3c17.2-18.3,38.9-27.5,65.1-27.5c26,0,47.6,9.2,64.9,27.5
		C824.2-1046.2,832.7-1024.1,832.7-997.9z M784.7-998.2c0-12.7-3.8-23.5-11.5-32.3c-8-9.3-18.3-14-30.8-14c-11.9,0-22,4.8-30.3,14.5
		c-8,9.3-12,20-12,32.1c0,12.9,3.8,23.7,11.3,32.3c7.9,9,18.3,13.6,31.1,13.6c11.9,0,22.1-4.8,30.4-14.3
		C780.7-975.5,784.7-986.1,784.7-998.2z"/>
	<path class="st7" d="M951.1-967.5c0,17.2-7.2,31.9-21.7,44.1c-12.7,10.8-28.1,17.7-46.3,20.7c-0.7,0.1-1.2,0.1-1.6,0.1
		c-1.9,0-6.3-5.9-12.9-17.8c-6.7-11.9-10-19.1-10-21.8c0-0.9,0.6-1.5,1.9-1.8c12.3-2.8,20.4-5.2,24.4-7.1
		c8.8-4.4,13.2-10.9,13.2-19.5c0-5.5-2.9-11.6-8.6-18.4c-10-11.5-15.4-17.9-16.2-19.2c-5.8-8.8-8.8-18.5-8.8-29.2
		c0-15.5,7.1-28.3,21.4-38.6c11.7-8.5,26-14,43-16.5c0.9-0.1,1.6-0.1,2.2-0.1c1.3,0,2.3,1,3,3c2.2,6.2,7.3,17.3,15.3,33.5
		c0.3,0.5,0.4,0.9,0.4,1.3c0,1.4-0.8,2.2-2.3,2.2c-0.7,0-1.8-0.1-3.4-0.4c-1.6-0.3-2.8-0.4-3.7-0.4c-6.1,0-11.4,1.4-16,4.2
		c-5.5,3.2-8.2,7.7-8.2,13.4c0,5.2,3,11.5,9.1,19c10.7,13.5,16.4,20.6,16.9,21.3C948.1-986,951.1-976.7,951.1-967.5z"/>
</g>
<g class="st2">
	<polyline class="st6" points="393.2,-1145.5 393.2,-1583.8 742.9,-1583.8 629.5,-1557.5 608.4,-1553 587.5,-1547.4 566.9,-1540.9 
		546.6,-1533.3 526.8,-1524.8 507.4,-1515.3 488.5,-1504.8 478.5,-1498.1 469,-1490.7 460,-1482.8 451.5,-1474.3 445.7,-1467.7 
		440.5,-1460.6 435.9,-1453.1 432.9,-1446.7 430.9,-1439.9 429.9,-1432.9 430,-1425.8 431.1,-1418.8 433.3,-1412.1 436.4,-1405.8 
		441.4,-1399.2 447.2,-1393.3 453.6,-1388.1 464.3,-1380.7 475.3,-1373.8 502.4,-1356.9 524.4,-1343 547,-1330.2 570.2,-1318.3 
		593.9,-1307.5 607.3,-1302.1 620.3,-1295.9 632.9,-1289 639.7,-1284.4 645.8,-1279.1 651.3,-1273.2 656,-1266.6 660,-1259.5 
		662.4,-1253.2 663.9,-1246.5 664.5,-1239.7 664,-1232.9 662.7,-1226.2 660.6,-1220.8 657.8,-1215.7 654.4,-1211 650.4,-1206.8 
		643,-1201 635,-1196.1 626.4,-1192.2 598.7,-1182.6 570.6,-1174 542.2,-1166.5 506.5,-1156.3 470.9,-1145.5 393.2,-1145.5 	"/>
	<polyline class="st6" points="603.3,-1482.9 607.6,-1491.8 612.7,-1500.2 618.7,-1508 625.4,-1515.2 632.9,-1521.6 640.9,-1527.3 
		654.9,-1536.2 669.3,-1544.4 684.1,-1551.6 699.4,-1558.1 715,-1563.6 733.6,-1569.2 752.5,-1574.1 771.5,-1578.1 790.8,-1581.4 
		810.1,-1583.8 938.8,-1583.8 938.8,-1145.5 886.2,-1145.5 893.6,-1155.5 900,-1166.2 905.4,-1177.4 909.7,-1189 912.9,-1201 
		914.9,-1213.2 915.8,-1225.6 915.6,-1238 914.2,-1250.3 911.6,-1262.4 908,-1274.3 903.2,-1285.8 897.4,-1296.7 890.6,-1307.1 
		882.8,-1316.8 874.2,-1325.7 864.8,-1333.8 854.7,-1340.9 843.9,-1347.1 832.6,-1352.3 820.9,-1356.4 808.9,-1359.3 775.8,-1367.5 
		742.9,-1376.3 710.2,-1385.7 687.9,-1392.5 665.7,-1399.6 654.9,-1403.3 644.3,-1407.6 633.9,-1412.5 626.7,-1416.7 620.1,-1421.8 
		614.3,-1427.8 609.4,-1434.6 605.5,-1442 602.8,-1449.9 601.1,-1458.1 600.7,-1466.4 601.4,-1474.8 603.3,-1482.9 	"/>
</g>
</svg>
