<?xml version="1.0" encoding="utf-8"?>
<!-- Generator: Adobe Illustrator 26.2.1, SVG Export Plug-In . SVG Version: 6.00 Build 0)  -->
<svg version="1.1" id="LOGO" xmlns="http://www.w3.org/2000/svg" xmlns:xlink="http://www.w3.org/1999/xlink" x="0px" y="0px"
	 viewBox="0 0 638.1 776.8" style="enable-background:new 0 0 638.1 776.8;" xml:space="preserve">
<style type="text/css">
	.st0{display:none;fill:#D20515;}
	.st1{display:none;fill:#FFFFFF;}
	.st2{display:none;}
	.st3{display:inline;fill:#FFFFFF;}
	.st4{display:inline;fill-rule:evenodd;clip-rule:evenodd;fill:#D20515;}
	.st5{fill:#FFFFFF;}
	.st6{fill-rule:evenodd;clip-rule:evenodd;fill:#D20515;}
</style>
<rect x="-296.9" y="680.1" class="st0" width="255.1" height="204.1"/>
<path class="st1" d="M-86.6,787.5c0.1,0.5-0.3,0.9-1.2,1.5l-0.6,0.3l0.2,0.4c0.1,0.2-0.1,0.6-0.5,0.8l-0.8,0.4
	c-0.4,0.2-0.8,0.2-0.9-0.1l-0.2-0.3l-1.1,0.5l0.2,0.4c0.1,0.2-0.1,0.6-0.5,0.8l-0.9,0.4c-0.4,0.2-0.8,0.1-0.9-0.1l-0.1-0.3
	c-3.3,1.5-6.9,3.2-10.7,4.9l0.2,0.5c0.1,0.2-0.1,0.6-0.5,0.8l-0.9,0.4c-0.4,0.2-0.8,0.1-0.9-0.1l-0.2-0.5l-1.2,0.6l0.2,0.5
	c0.1,0.2-0.1,0.6-0.5,0.8l-0.9,0.4c-0.4,0.2-0.8,0.1-0.9-0.1l-0.2-0.5c-1.7,0.7-3.6,1-4.9-1.6c-0.6-1.2-0.6-3.9-1.1-5.3
	c-0.2-0.5-0.6-0.8-1.1-0.9c-16.6-3.2-22.2,0.4-32.9-2.3c-3.4-0.8-5.2-3.9-9.3-4c-9-0.3-11.6-0.1-21.4-0.5c-0.4,1.4-0.5,1.7-0.5,1.7
	l-34.3-0.2l5.2,2.6l1.7,15.1c0,0-1.4,0.4-1.8,0.5c0.3,3,0.6,7.1,0.8,10.8c0.1,3.3,0.3,6.7,0.3,8.9c0,1.4-0.3,2.8-1,4.1
	c-0.7,1.1-1.5,2-2.6,2.8c-0.3,0.2-1.6,1.1-3.2,2s-3.4,1.9-4.3,2.3c0.1,0.4,0.3,0.8,0.5,1.2c-20.9,10.1-46.7,13.5-55.1,29.5
	c-1,1.9-4.4,0.9-4.5-1.1c0-0.9,0-2.4,0-3.2h-0.3c-0.3,0-0.5-0.4-0.5-0.8v-0.9c0-0.4,0.3-0.8,0.5-0.8h0.4c0.1-0.9,0.3-1.8,0.5-2.7
	l-0.3-0.1c-0.2-0.1-0.3-0.5-0.2-0.9l0.3-0.9c0.2-0.4,0.5-0.7,0.7-0.6l0.3,0.1c1.5-3.5,4.4-5,5.7-8.3l-0.2-0.1
	c-0.3-0.1-0.3-0.5-0.2-0.9l0.3-0.9c0.1-0.4,0.5-0.7,0.7-0.6l0.2,0.1c0.2-0.5,0.4-1,0.7-1.5l-0.3-0.2c-0.2-0.1-0.2-0.6,0-0.9l0.5-0.8
	c0.2-0.4,0.6-0.5,0.8-0.4l0.1,0.1h0.1c0.1,0,0.1,0,0.2-0.1c0.1-0.1,0.3-0.3,0.4-0.4c1.3-1,3.1-1,4.4-0.1c1.3,0.8,6.4,3.7,11.4-0.7
	c8.1-7.3,17.6-17.2,24.8-17.5c-1.9-4.2-5.3-12.9-5.7-16.2l-2.4-0.5c-1.2-2.7-4.3-15.1-5.2-24.5c0,0-1-10.1,0-13.6
	c-0.6-0.1-1.6,0.8-1.8,0.8c-1.3-3.2,2.9-30.3,7.2-38.2l6.4-2.6c-0.7-0.1-5.3-0.3-17.6-1.3c-6.8,6.1-14.7,12.6-18.8,16.1
	c-0.7,0.5-1.8,4.4-1.8,4.4s-2,1.8-3.9,3.1c-2.5,1.7-8.5,3.1-9.9,1c-0.3-0.5-0.2-0.7,0-1c0.9-1,4.5-2.7,5.7-4.9c-1.9,1-4.1,2-5.8,1.8
	c-0.7,0-1.1-1.8-0.2-2.2c2.6-1.1,4.6-1.6,6.1-3.7s3.2-3.4,5.6-3.5c0,0,11.4-14.9,18.1-22c1.9-1.9,5.3-1.3,5.3-1.3l0.6-2.3
	c0,0,23-2.8,33.8,0.8c-0.2-6.5,2.7-15.2,12.9-15.2c5.2,0,12.9,4.6,14,10.2c0.3,1.7-0.7,2.9-1.2,5.1c-0.9,3.3,0.4,7,0,8.2
	c-0.3,1-1.4,0.9-2.3,2.2c-0.8,1.3-1.5,2.6-2.1,4l-1.4,3.2l-7.2-0.5c-2.6,5.7-8,17.2-9.9,28.7l0,0c5.6,0.5,31.2,4.2,31.2,4.2l0.6,2.1
	c0,0,10.8,1.3,19.6,5.5c2,0.5,6.9-0.3,10.2,1.2c0.2-0.1,0.8-0.7,1-0.8c11.5,3.5,21,9.6,32.1,12.2c0,0,5.2,1.3,6.9,1.6
	c2.9,0.6,5.9,1,8.9,1.1c3.5,0.3,5.5,0.2,8.1,0.4C-89.5,785.1-87.3,784.8-86.6,787.5 M-70.1,752.6c-7.8,0-14.2,6.3-14.2,14.2
	c0,7.8,6.3,14.2,14.2,14.2s14.2-6.3,14.2-14.2C-55.9,758.9-62.3,752.6-70.1,752.6C-70.1,752.6-70.1,752.6-70.1,752.6L-70.1,752.6z"
	/>
<path class="st2" d="M207.7,827.4c0,35.4-16.6,54.2-61.4,54.2H43.3v-199h99.3c46.2,0,62.2,18.3,62.2,52c0,25.7-9.7,37.4-37.1,44.2
	l-5.1,1.4l4.6,0.9C198,787.9,207.7,799.4,207.7,827.4z M90.7,765.7h41.7c16.6,0,24-7.1,24-24.3c0-18-6.9-25.1-24-25.1H90.7
	L90.7,765.7z M159.4,822.5c0-18.3-7.4-26-24.3-26H90.7v51.4h44.5C152.9,847.9,159.4,840.5,159.4,822.5z M240.1,816.8V682.6h49.7
	v132.8c0,22,10,30.3,36.8,30.3s36.9-8.3,36.9-30.3V682.6h49.7v134.2c0,46.8-27.1,68.2-86.5,68.2S240.1,863.6,240.1,816.8
	L240.1,816.8z M646.1,682.6v199h-60.5L501,737.7v143.9h-46.2v-199h60.5l84.5,143.9V682.6H646.1z M686.9,682.6h88.8
	c69.7,0,87.9,28.5,87.9,99.3c0,68.8-20,99.6-87.9,99.6h-88.8V682.6z M774.3,843.6c29.1,0,38.5-15.1,38.5-61.7
	c0-46.2-9.4-61.4-38.5-61.4h-37.7v123L774.3,843.6z M899.8,682.6h139.3v38h-89.7v42h74.5V800h-74.5v43.7h91.6v38H899.8V682.6z
	 M1070.5,873.9v-38.8c21.4,7.3,43.9,10.9,66.5,10.9c22.8,0,32.8-6,32.8-21.4c0-13.4-4.3-17.4-22.6-21.1l-33.1-6.8
	c-34.5-7.1-46-21.1-46-55.1c0-43.7,25.7-62.5,77.4-62.5c23.4,0,45.4,4,63.4,10.9v38.8c-19.4-6.9-39.9-10.5-60.5-10.6
	c-24.6,0-32.8,6.6-32.8,22c0,12.8,5.7,16.6,21.7,20l32.3,6.8c37.4,8,47.7,20.6,47.7,56.2c0,42.5-26.3,62-79.9,62
	C1114.6,885.2,1092,881.4,1070.5,873.9z M1252.1,682.6h49.7v161h85.4v38h-135L1252.1,682.6z M1418.2,682.6h49.7v199h-49.7V682.6z
	 M1673.6,766.5v108.2c-18.6,6.3-43.1,10.3-68.8,10.3c-69.1,0-101.6-30.5-101.6-103.1c0-71.9,32.5-103.1,101.6-103.1
	c24.6,0,48,4,65.7,11.1v38.5c-19.4-6.6-41.1-10.6-61.7-10.6c-41.7,0-54.8,16.8-54.8,63.9c0,49.1,13.7,65.4,53.1,65.4
	c8.7,0,17.4-0.6,26-1.7v-44.5h-36.8v-34.5H1673.6z M1835.8,839.9h-77.9l-14,41.7h-49.4l71.1-199h63.4l70.8,199h-50L1835.8,839.9z
	 M1797.2,714l-28.8,89.9h57.4L1797.2,714z"/>
<g class="st2">
	<path class="st3" d="M185.3,1892.2c0,0.6-0.8,1-2.5,1.3c-3.2,0.5-11.3,0.8-24.2,0.8c-11.1,0-18.6-0.3-22.6-0.8
		c-1.9-0.3-2.9-0.5-3.2-0.6c-0.5-0.3-1.1-1.1-1.8-2.5c-1.3-3.3-3.1-8.2-5.6-14.7c-3.3-8.5-8.5-20.9-15.5-37.4
		c-1.5-3.3-5-5.1-10.5-5.5c2.5,0.2-1.8,0.3-13.1,0.3c-1.3,0-1.9,2.2-1.9,6.5c0,5.8,0.5,14.3,1.6,25.7c1.1,11.4,1.6,20,1.6,25.7
		c0,1.4-0.4,2.3-1.1,2.5c-1.2,0.1-2.4,0.2-3.6,0.3c-5,0.3-12.8,0.5-23.3,0.5c-12.1,0-19.4-0.3-21.8-0.8c-2.5-0.5-3.7-1.8-3.7-3.9
		c0-9.3,0.4-23.3,1.3-42.1c0.9-18.8,1.3-32.9,1.3-42.2c0-35.8-0.8-63.7-2.4-83.7l-0.1-1.8c-0.1-1.4,1.2-2.4,4-2.9
		c2.7-0.5,15.7-1,38.7-1.5c15.6-0.3,28.1-0.5,37.4-0.5c19.3,0,35,4.4,47.2,13.1c13.8,9.8,20.7,24,20.7,42.5
		c0,12.3-1.8,22.2-5.3,29.6c-3.6,7.4-10.1,14.5-19.7,21.4c-1.9,1.4-2.9,2.6-2.9,3.8c0-0.1,5.2,10.5,15.5,31.8
		C180.2,1878.2,185.3,1890,185.3,1892.2z M132,1778.4c0-10.3-3.4-17.5-10.1-21.4c-5.2-3-13.4-4.6-24.6-4.6c-8,0-12.3,1.2-12.8,3.7
		c-0.5,2.9-0.8,11.2-0.8,24.9c0,1.9,0,4.8,0.1,8.6c0.1,3.8,0.1,6.6,0.1,8.5c0,0.4,1.4,0.8,4.1,1.3c5.2,0.8,10.6,1.1,16.2,1.1
		C122.8,1800.5,132,1793.1,132,1778.4z"/>
	<path class="st3" d="M264.1,1799.7c0,10,0.3,25,0.8,45s0.8,35.1,0.8,45c0,1.7-0.4,2.7-1.1,3.2c-0.2,0.1-1.3,0.3-3.3,0.5
		c-5.5,0.7-12.9,1-22.1,1c-12.3,0-20.2-0.3-23.6-1c-2.5-0.5-3.7-1.8-3.7-3.9c0,1.4,0.4-6.1,1.1-22.3c1.5-34.2,2.3-56.7,2.3-67.5
		c0-9-0.3-22.6-0.9-40.7c-0.6-18.1-0.9-31.7-0.9-40.7c0-1.9,1-2.8,2.9-2.8c2.6,0,6.6,0.1,11.9,0.4c5.3,0.3,9.2,0.4,11.9,0.4
		c2.6,0,6.5-0.1,11.6-0.4c5.1-0.3,9-0.4,11.6-0.4c2.5,0,3.7,0.9,3.7,2.8c0,9-0.5,22.6-1.5,40.7
		C264.6,1777.1,264.1,1790.7,264.1,1799.7z"/>
	<path class="st3" d="M479.2,1804.7c0,26.4-8.4,48.5-25.2,66.3c-17.2,18.1-38.9,27.1-65.2,27.1c-26.1,0-47.8-9.1-65.1-27.4
		c-16.9-17.8-25.4-39.9-25.4-66.1c0-26.3,8.5-48.4,25.4-66.3c17.2-18.3,38.9-27.5,65.1-27.5c26,0,47.6,9.2,64.9,27.5
		C470.7,1756.4,479.2,1778.6,479.2,1804.7z M431.1,1804.4c0-12.7-3.8-23.5-11.5-32.3c-8-9.3-18.3-14-30.8-14
		c-11.9,0-22,4.8-30.3,14.5c-8,9.3-12,20-12,32.1c0,12.9,3.8,23.7,11.3,32.3c7.9,9,18.3,13.6,31.1,13.6c11.9,0,22.1-4.8,30.4-14.3
		C427.1,1827.1,431.1,1816.5,431.1,1804.4z"/>
	<path class="st3" d="M597.6,1835.1c0,17.2-7.2,31.9-21.7,44.1c-12.7,10.8-28.1,17.7-46.3,20.7c-0.7,0.1-1.2,0.1-1.6,0.1
		c-1.9,0-6.3-5.9-12.9-17.8c-6.7-11.9-10-19.1-10-21.8c0-0.9,0.6-1.5,1.9-1.8c12.3-2.8,20.4-5.2,24.4-7.1
		c8.8-4.4,13.2-10.9,13.2-19.5c0-5.5-2.9-11.6-8.6-18.4c-10-11.5-15.4-17.9-16.2-19.2c-5.8-8.8-8.8-18.5-8.8-29.2
		c0-15.5,7.1-28.3,21.4-38.6c11.7-8.5,26-14,43-16.5c0.9-0.1,1.6-0.1,2.2-0.1c1.3,0,2.3,1,3,3c2.2,6.2,7.3,17.3,15.3,33.5
		c0.3,0.5,0.4,0.9,0.4,1.3c0,1.4-0.8,2.2-2.3,2.2c-0.7,0-1.8-0.1-3.4-0.4c-1.6-0.3-2.8-0.4-3.7-0.4c-6.1,0-11.4,1.4-16,4.2
		c-5.5,3.2-8.2,7.7-8.2,13.4c0,5.2,3,11.5,9.1,19c10.7,13.5,16.4,20.6,16.9,21.3C594.6,1816.7,597.6,1825.9,597.6,1835.1z"/>
	<path class="st3" d="M875,1803.5c0,24.9-8,46.4-24,64.7c-14.1,16.3-33.9,24.9-59.5,25.7c-4.9,0.2-18.4,0.3-40.5,0.3
		c-4.1,0-10.4-0.1-18.7-0.4c-8.3-0.3-14.6-0.4-18.7-0.4c-2.5,0-3.7-1-3.7-2.9c0-9.3,0.4-23.3,1.1-41.9c0.7-18.6,1.1-32.6,1.1-41.9
		c0-9.7-0.4-24.3-1.1-43.7c-0.7-19.4-1.1-33.9-1.1-43.6c0-1.8,1.2-2.8,3.7-3.2c6-0.7,15.9-1,29.6-1c26,0,42.9,0.4,50.6,1.1
		c20,2,35.7,7.1,47.1,15.2c10.7,7.6,19.1,18.3,25.2,32C872.1,1776.5,875,1789.8,875,1803.5z M826.5,1803.5c0-14.3-4.3-26-12.8-35
		c-8.6-9.4-20-14.1-34.2-14.1c-13,0-19.5,1.7-19.5,5.2c0,5-0.1,12.5-0.3,22.5c-0.2,10-0.3,17.5-0.3,22.5c0,4.9,0.1,12.3,0.3,22.1
		c0.2,9.9,0.3,17.3,0.3,22.3c0,3.6,6.8,5.5,20.3,5.5c14.6,0,26.1-4.9,34.5-14.6C822.5,1830.7,826.5,1818.6,826.5,1803.5z"/>
	<path class="st3" d="M1037.6,1854c0,3.6-0.7,10.3-2.2,20c-1.5,10.6-2.9,16.9-4.1,18.9c-1,1.6-2.4,2.4-4.2,2.4c-0.8,0-2-0.1-3.8-0.4
		c-6.2-0.8-24.2-1.3-54-1.3c-6.5,0-16.2,0-29-0.1c-12.9-0.1-22.5-0.1-28.9-0.1c-2.8,0-4.2-1.2-4.2-3.7c0-9.5,0.5-23.7,1.6-42.7
		c1.1-19,1.6-33.2,1.6-42.7c0-9.6-0.5-27.6-1.5-53.9c-0.3-6.8-0.7-16.9-1.4-30.3l-0.1-1.8c-0.2-1.9,0.9-2.9,3.2-2.9
		c6.3,0,15.7,0.2,28.2,0.5c12.6,0.3,22,0.5,28.2,0.5c6.2,0,15.5-0.2,27.9-0.5c12.4-0.3,21.7-0.5,27.9-0.5c4.4,0,6.9,1.6,7.6,4.9
		c0.4,1.9,1.1,7.8,2,17.7c0.9,9.9,1.3,15.8,1.3,17.9c0,1.8-0.8,2.7-2.5,2.7c-0.5,0-1.4,0-2.7-0.1c-22.5-1.9-42.7-2.8-60.6-2.8
		c-4.5,0-7.2,1.1-8.2,3.2c-0.4,1-0.6,4.3-0.6,9.8c0,5.8,0.8,9.6,2.5,11.4c1.4,1.6,4.2,2.4,8.2,2.4c0.8,0,2.5-0.1,4.9-0.2
		c2.5-0.1,4.5-0.2,6.1-0.2c10.7,0,21.4-0.3,32.3-0.9c0.9-0.1,3.3-0.3,7-0.6c2.9-0.3,5.2-0.5,6.8-0.5c2,0,3,1,3,2.9
		c0-1.8-0.8,4.7-2.3,19.4c-0.7,6.8-1,13.5-1,20.3c0,1.7-1.2,2.5-3.7,2.5l-11.4-1.3c-4.8-0.5-15.8-0.8-33-0.8h-13.4
		c-3.5,0-5.5,0.8-6.1,2.5c-0.1,0.4-0.1,3-0.1,7.9c0,6.4,0.4,10.6,1.3,12.4c1.4,3.2,6.8,5.1,16.2,5.7c-0.2,0,6,0,18.5,0
		c4.5,0,11.1-0.4,20-1.2c8.8-0.8,15.5-1.2,19.9-1.2C1036.6,1849.5,1037.6,1851,1037.6,1854z"/>
	<path class="st3" d="M1153.9,1835.1c0,17.2-7.2,31.9-21.7,44.1c-12.7,10.8-28.1,17.7-46.3,20.7c-0.7,0.1-1.2,0.1-1.6,0.1
		c-1.9,0-6.3-5.9-12.9-17.8c-6.7-11.9-10-19.1-10-21.8c0-0.9,0.6-1.5,1.9-1.8c12.3-2.8,20.4-5.2,24.4-7.1
		c8.8-4.4,13.2-10.9,13.2-19.5c0-5.5-2.9-11.6-8.6-18.4c-10-11.5-15.4-17.9-16.2-19.2c-5.8-8.8-8.8-18.5-8.8-29.2
		c0-15.5,7.1-28.3,21.4-38.6c11.7-8.5,26-14,43-16.5c0.9-0.1,1.6-0.1,2.2-0.1c1.3,0,2.3,1,3,3c2.2,6.2,7.3,17.3,15.3,33.5
		c0.3,0.5,0.4,0.9,0.4,1.3c0,1.4-0.8,2.2-2.3,2.2c-0.7,0-1.8-0.1-3.4-0.4c-1.6-0.3-2.8-0.4-3.7-0.4c-6.1,0-11.4,1.4-16,4.2
		c-5.5,3.2-8.2,7.7-8.2,13.4c0,5.2,3,11.5,9.1,19c10.7,13.5,16.4,20.6,16.9,21.3C1150.9,1816.7,1153.9,1825.9,1153.9,1835.1z"/>
	<path class="st3" d="M1339.9,1783.4c0,20.5-5.4,37-16.1,49.7c-11.5,13.4-27.4,20.2-47.6,20.2c-3.4,0-8.5-0.2-15.3-0.6
		c-6.8-0.4-11.9-0.6-15.3-0.6c-3.6,0-5.5,1.6-5.5,4.7c0,3.9,0.4,9.7,1.1,17.4c0.8,7.7,1.1,13.4,1.1,17.2c0,1.9-0.9,2.9-2.7,2.9
		c-5.2,0-12.9-0.1-23.2-0.4c-10.3-0.3-18.1-0.4-23.2-0.4c-2.5,0-3.7-1.2-3.7-3.7c0-9.4,0.1-23.5,0.4-42.3
		c0.3-18.8,0.4-32.9,0.4-42.3c0-26.6-1.1-54.5-3.4-83.7l-0.1-1.8c-0.2-1.6,1.1-2.6,3.8-2.9c6.6-0.8,21.1-1.3,43.6-1.3
		c13.3,0,26,0.2,38.2,0.5c20,0.6,36.2,6.9,48.5,18.9C1333.7,1747.3,1339.9,1763.4,1339.9,1783.4z M1289.3,1785.4
		c0-19.7-9.6-29.6-28.8-29.6c-13.5,0-20.6,0.8-21.3,2.3c-0.6,1.1-0.9,10.9-0.9,29.3c0,2.6,0.1,6.5,0.3,11.6c0.2,5.1,0.3,9,0.3,11.6
		c0,1.7,7.6,2.5,22.8,2.5C1280.1,1813.2,1289.3,1803.9,1289.3,1785.4z"/>
	<path class="st3" d="M1546.5,1804.7c0,26.4-8.4,48.5-25.2,66.3c-17.2,18.1-38.9,27.1-65.2,27.1c-26.1,0-47.8-9.1-65.1-27.4
		c-16.9-17.8-25.4-39.9-25.4-66.1c0-26.3,8.5-48.4,25.4-66.3c17.2-18.3,38.9-27.5,65.1-27.5c26,0,47.6,9.2,64.9,27.5
		C1538,1756.4,1546.5,1778.6,1546.5,1804.7z M1498.4,1804.4c0-12.7-3.8-23.5-11.5-32.3c-8-9.3-18.3-14-30.8-14
		c-11.9,0-22,4.8-30.3,14.5c-8,9.3-12,20-12,32.1c0,12.9,3.8,23.7,11.3,32.3c7.9,9,18.3,13.6,31.1,13.6c11.9,0,22.1-4.8,30.4-14.3
		C1494.4,1827.1,1498.4,1816.5,1498.4,1804.4z"/>
	<path class="st3" d="M1701.9,1754.3c0,1.7-0.9,2.5-2.8,2.5c-3.2,0-15.9-0.6-38.2-1.9c-0.5,21.4-0.8,36.3-0.8,44.8
		c0,10,0.4,25,1.2,45c0.8,20,1.2,35.1,1.2,45c0,1.6-0.4,2.6-1.1,3c-0.3,0.2-1.4,0.4-3.6,0.6c-5.1,0.7-12.5,1-22.3,1
		c-10.9,0-18.6-0.3-23-1c-2.4-0.4-3.6-1.7-3.6-3.9c0-10,0.4-24.9,1.3-44.9c0.8-20,1.3-34.9,1.3-44.9c0-6.6-0.3-21.3-1-44.1
		c-16.9,1.7-30.4,2.5-40.5,2.5c-1.4,0-2-0.4-2-1.3c0-1.1,0.6-4.4,1.8-9.8c1.4-5.9,2.1-9.5,2.3-10.8c0.3-4,0.5-7.9,0.9-11.9
		c0.6-6.3,1.6-9.5,3-9.5c0.2,0,0.8,0,1.8,0.1c13.7,1.8,33.9,2.7,60.8,2.7c7.6,0,21.6-0.8,42.1-2.4c11-0.8,16.5-1.3,16.6-1.3
		c1.7,0,2.7,0.1,2.9,0.3c0.3,0.2,0.4,1,0.5,2.5c0,2.3-0.1,5.5-0.3,9.5c-0.2,4.5-0.3,7.7-0.3,9.5c0,2.1,0.3,5.2,0.8,9.3
		C1701.6,1749.2,1701.9,1752.3,1701.9,1754.3z"/>
	<path class="st3" d="M1904.6,1804.7c0,26.4-8.4,48.5-25.2,66.3c-17.2,18.1-38.9,27.1-65.2,27.1c-26.1,0-47.8-9.1-65.1-27.4
		c-16.9-17.8-25.4-39.9-25.4-66.1c0-26.3,8.5-48.4,25.4-66.3c17.2-18.3,38.9-27.5,65.1-27.5c26,0,47.6,9.2,64.9,27.5
		C1896.1,1756.4,1904.6,1778.6,1904.6,1804.7z M1856.6,1804.4c0-12.7-3.8-23.5-11.5-32.3c-8-9.3-18.3-14-30.8-14
		c-11.9,0-22,4.8-30.3,14.5c-8,9.3-12,20-12,32.1c0,12.9,3.8,23.7,11.3,32.3c7.9,9,18.3,13.6,31.1,13.6c11.9,0,22.1-4.8,30.4-14.3
		C1852.6,1827.1,1856.6,1816.5,1856.6,1804.4z"/>
</g>
<g class="st2">
	<polyline class="st4" points="-296.9,1905.3 -296.9,1700.3 -133.3,1700.3 -186.4,1712.7 -196.2,1714.8 -206,1717.4 -215.6,1720.4 
		-225.1,1724 -234.4,1727.9 -243.5,1732.4 -252.3,1737.3 -257,1740.4 -261.4,1743.9 -265.6,1747.6 -269.6,1751.6 -272.3,1754.6 
		-274.8,1758 -276.9,1761.5 -278.3,1764.5 -279.2,1767.6 -279.7,1770.9 -279.7,1774.2 -279.1,1777.5 -278.1,1780.6 -276.7,1783.6 
		-274.3,1786.6 -271.6,1789.4 -268.6,1791.9 -263.6,1795.3 -258.5,1798.5 -245.8,1806.4 -235.5,1812.9 -224.9,1818.9 -214.1,1824.5 
		-203,1829.5 -196.8,1832.1 -190.7,1835 -184.8,1838.2 -181.6,1840.3 -178.8,1842.8 -176.2,1845.6 -174,1848.7 -172.1,1852 
		-171,1854.9 -170.3,1858.1 -170,1861.2 -170.2,1864.4 -170.9,1867.5 -171.8,1870.1 -173.1,1872.5 -174.7,1874.7 -176.6,1876.6 
		-180,1879.4 -183.8,1881.6 -187.8,1883.4 -200.8,1887.9 -213.9,1891.9 -227.2,1895.5 -243.9,1900.2 -260.5,1905.3 -296.9,1905.3 	
		"/>
	<polyline class="st4" points="-198.6,1747.5 -196.6,1743.4 -194.2,1739.4 -191.4,1735.8 -188.3,1732.4 -184.8,1729.4 -181,1726.8 
		-174.5,1722.6 -167.8,1718.8 -160.8,1715.4 -153.7,1712.4 -146.4,1709.8 -137.7,1707.2 -128.9,1704.9 -120,1703 -111,1701.5 
		-101.9,1700.3 -41.7,1700.3 -41.7,1905.3 -66.3,1905.3 -62.9,1900.6 -59.9,1895.6 -57.4,1890.4 -55.4,1885 -53.9,1879.4 
		-52.9,1873.6 -52.5,1867.8 -52.6,1862 -53.3,1856.3 -54.5,1850.6 -56.2,1845.1 -58.4,1839.7 -61.1,1834.6 -64.3,1829.7 
		-67.9,1825.2 -71.9,1821 -76.4,1817.3 -81.1,1813.9 -86.1,1811 -91.4,1808.6 -96.9,1806.7 -102.5,1805.3 -118,1801.5 
		-133.3,1797.4 -148.7,1793 -159.1,1789.8 -169.5,1786.5 -174.5,1784.8 -179.5,1782.7 -184.3,1780.4 -187.7,1778.5 -190.8,1776.1 
		-193.5,1773.3 -195.8,1770.1 -197.6,1766.6 -198.9,1763 -199.6,1759.1 -199.9,1755.2 -199.5,1751.3 -198.6,1747.5 	"/>
</g>
<g>
	<path class="st5" d="M185.3,732.9c0,0.6-0.8,1-2.5,1.3c-3.2,0.5-11.3,0.8-24.2,0.8c-11.1,0-18.6-0.3-22.6-0.8
		c-1.9-0.3-2.9-0.5-3.2-0.6c-0.5-0.3-1.1-1.1-1.8-2.5c-1.3-3.3-3.1-8.2-5.6-14.7c-3.3-8.5-8.5-20.9-15.5-37.4
		c-1.5-3.3-5-5.1-10.5-5.5c2.5,0.2-1.8,0.3-13.1,0.3c-1.3,0-1.9,2.2-1.9,6.5c0,5.8,0.5,14.3,1.6,25.7c1.1,11.4,1.6,20,1.6,25.7
		c0,1.4-0.4,2.3-1.1,2.5c-1.2,0.1-2.4,0.2-3.6,0.3c-5,0.3-12.8,0.5-23.3,0.5c-12.1,0-19.4-0.3-21.8-0.8c-2.5-0.5-3.7-1.8-3.7-3.9
		c0-9.3,0.4-23.3,1.3-42.1c0.9-18.8,1.3-32.9,1.3-42.2c0-35.8-0.8-63.7-2.4-83.7l-0.1-1.8c-0.1-1.4,1.2-2.4,4-2.9
		c2.7-0.5,15.7-1,38.7-1.5c15.6-0.3,28.1-0.5,37.4-0.5c19.3,0,35,4.4,47.2,13.1c13.8,9.8,20.7,24,20.7,42.5
		c0,12.3-1.8,22.2-5.3,29.6c-3.6,7.4-10.1,14.5-19.7,21.4c-1.9,1.4-2.9,2.6-2.9,3.8c0-0.1,5.2,10.5,15.5,31.8
		C180.2,718.9,185.3,730.7,185.3,732.9z M132,619.1c0-10.3-3.4-17.5-10.1-21.4c-5.2-3-13.4-4.6-24.6-4.6c-8,0-12.3,1.2-12.8,3.7
		c-0.5,2.9-0.8,11.2-0.8,24.9c0,1.9,0,4.8,0.1,8.6c0.1,3.8,0.1,6.6,0.1,8.5c0,0.4,1.4,0.8,4.1,1.3c5.2,0.8,10.6,1.1,16.2,1.1
		C122.8,641.2,132,633.8,132,619.1z"/>
	<path class="st5" d="M264.1,640.4c0,10,0.3,25,0.8,45s0.8,35.1,0.8,45c0,1.7-0.4,2.7-1.1,3.2c-0.2,0.1-1.3,0.3-3.3,0.5
		c-5.5,0.7-12.9,1-22.1,1c-12.3,0-20.2-0.3-23.6-1c-2.5-0.5-3.7-1.8-3.7-3.9c0,1.4,0.4-6.1,1.1-22.3c1.5-34.2,2.3-56.7,2.3-67.5
		c0-9-0.3-22.6-0.9-40.7c-0.6-18.1-0.9-31.7-0.9-40.7c0-1.9,1-2.8,2.9-2.8c2.6,0,6.6,0.1,11.9,0.4c5.3,0.3,9.2,0.4,11.9,0.4
		c2.6,0,6.5-0.1,11.6-0.4c5.1-0.3,9-0.4,11.6-0.4c2.5,0,3.7,0.9,3.7,2.8c0,9-0.5,22.6-1.5,40.7C264.6,617.8,264.1,631.3,264.1,640.4
		z"/>
	<path class="st5" d="M479.2,645.3c0,26.4-8.4,48.5-25.2,66.3c-17.2,18.1-38.9,27.1-65.2,27.1c-26.1,0-47.8-9.1-65.1-27.4
		c-16.9-17.8-25.4-39.9-25.4-66.1c0-26.3,8.5-48.4,25.4-66.3c17.2-18.3,38.9-27.5,65.1-27.5c26,0,47.6,9.2,64.9,27.5
		C470.7,597.1,479.2,619.2,479.2,645.3z M431.1,645.1c0-12.7-3.8-23.5-11.5-32.3c-8-9.3-18.3-14-30.8-14c-11.9,0-22,4.8-30.3,14.5
		c-8,9.3-12,20-12,32.1c0,12.9,3.8,23.7,11.3,32.3c7.9,9,18.3,13.6,31.1,13.6c11.9,0,22.1-4.8,30.4-14.3
		C427.1,667.8,431.1,657.2,431.1,645.1z"/>
	<path class="st5" d="M597.6,675.8c0,17.2-7.2,31.9-21.7,44.1c-12.7,10.8-28.1,17.7-46.3,20.7c-0.7,0.1-1.2,0.1-1.6,0.1
		c-1.9,0-6.3-5.9-12.9-17.8c-6.7-11.9-10-19.1-10-21.8c0-0.9,0.6-1.5,1.9-1.8c12.3-2.8,20.4-5.2,24.4-7.1
		c8.8-4.4,13.2-10.9,13.2-19.5c0-5.5-2.9-11.6-8.6-18.4c-10-11.5-15.4-17.9-16.2-19.2c-5.8-8.8-8.8-18.5-8.8-29.2
		c0-15.5,7.1-28.3,21.4-38.6c11.7-8.5,26-14,43-16.5c0.9-0.1,1.6-0.1,2.2-0.1c1.3,0,2.3,1,3,3c2.2,6.2,7.3,17.3,15.3,33.5
		c0.3,0.5,0.4,0.9,0.4,1.3c0,1.4-0.8,2.2-2.3,2.2c-0.7,0-1.8-0.1-3.4-0.4c-1.6-0.3-2.8-0.4-3.7-0.4c-6.1,0-11.4,1.4-16,4.2
		c-5.5,3.2-8.2,7.7-8.2,13.4c0,5.2,3,11.5,9.1,19c10.7,13.5,16.4,20.6,16.9,21.3C594.6,657.3,597.6,666.6,597.6,675.8z"/>
</g>
<g>
	<polyline class="st6" points="39.6,497.7 39.6,59.5 389.4,59.5 276,85.8 254.8,90.3 233.9,95.8 213.3,102.4 193.1,109.9 
		173.2,118.5 153.8,128 134.9,138.5 124.9,145.2 115.4,152.6 106.4,160.5 97.9,169 92.1,175.6 86.9,182.7 82.4,190.2 79.3,196.6 
		77.3,203.4 76.3,210.4 76.4,217.4 77.6,224.4 79.7,231.1 82.9,237.5 87.9,244 93.6,250 100,255.2 110.7,262.6 121.8,269.5 
		148.8,286.4 170.9,300.2 193.5,313.1 216.7,324.9 240.3,335.7 253.7,341.1 266.7,347.3 279.4,354.3 286.1,358.8 292.2,364.1 
		297.7,370.1 302.4,376.7 306.4,383.7 308.8,390.1 310.4,396.8 310.9,403.6 310.5,410.4 309.1,417.1 307,422.5 304.2,427.6 
		300.8,432.3 296.9,436.5 289.5,442.3 281.4,447.2 272.8,451.1 245.1,460.7 217,469.2 188.7,476.7 153,487 117.4,497.7 39.6,497.7 	
		"/>
	<polyline class="st6" points="249.8,160.4 254,151.5 259.2,143.1 265.2,135.3 271.9,128.1 279.3,121.6 287.4,116 301.3,107 
		315.7,98.9 330.6,91.6 345.8,85.2 361.4,79.6 380.1,74 398.9,69.2 418,65.2 437.2,61.9 456.5,59.5 585.2,59.5 585.2,497.7 
		532.7,497.7 540,487.7 546.4,477.1 551.8,465.9 556.1,454.3 559.3,442.3 561.4,430.1 562.3,417.7 562,405.3 560.6,393 558.1,380.8 
		554.4,369 549.6,357.5 543.8,346.5 537,336.2 529.3,326.5 520.7,317.6 511.2,309.5 501.1,302.3 490.4,296.1 479.1,291 467.4,286.9 
		455.3,283.9 422.3,275.7 389.4,266.9 356.6,257.5 334.3,250.8 312.1,243.7 301.3,240 290.7,235.7 280.4,230.8 273.1,226.6 
		266.5,221.5 260.7,215.4 255.8,208.7 252,201.2 249.2,193.4 247.6,185.2 247.1,176.8 247.9,168.5 249.8,160.4 	"/>
</g>
</svg>
