<?xml version="1.0" encoding="utf-8"?>
<!-- Generator: Adobe Illustrator 26.2.1, SVG Export Plug-In . SVG Version: 6.00 Build 0)  -->
<svg version="1.1" id="Layer_1" xmlns="http://www.w3.org/2000/svg" xmlns:xlink="http://www.w3.org/1999/xlink" x="0px" y="0px"
	 viewBox="0 0 808.87 438.24" style="enable-background:new 0 0 808.87 438.24;" xml:space="preserve">
<style type="text/css">
	
		.st0{clip-path:url(#SVGID_00000002365253209273604970000011509171698014870656_);fill-rule:evenodd;clip-rule:evenodd;fill:#FE8801;}
	
		.st1{clip-path:url(#SVGID_00000002365253209273604970000011509171698014870656_);fill-rule:evenodd;clip-rule:evenodd;fill:#F0117F;}
	
		.st2{clip-path:url(#SVGID_00000002365253209273604970000011509171698014870656_);fill-rule:evenodd;clip-rule:evenodd;fill:#419BDB;}
	
		.st3{clip-path:url(#SVGID_00000002365253209273604970000011509171698014870656_);fill-rule:evenodd;clip-rule:evenodd;fill:#FBCC02;}
	
		.st4{clip-path:url(#SVGID_00000002365253209273604970000011509171698014870656_);fill-rule:evenodd;clip-rule:evenodd;fill:#FF0000;}
	
		.st5{clip-path:url(#SVGID_00000002365253209273604970000011509171698014870656_);fill-rule:evenodd;clip-rule:evenodd;fill:#F7F5F3;stroke:#000000;stroke-miterlimit:10;}
	
		.st6{clip-path:url(#SVGID_00000002365253209273604970000011509171698014870656_);fill-rule:evenodd;clip-rule:evenodd;fill:#E41074;}
	.st7{clip-path:url(#SVGID_00000002365253209273604970000011509171698014870656_);fill:#6A6A6A;}
	.st8{clip-path:url(#SVGID_00000002365253209273604970000011509171698014870656_);}
	.st9{clip-path:url(#SVGID_00000002365253209273604970000011509171698014870656_);fill-rule:evenodd;clip-rule:evenodd;}
</style>
<g>
	<g>
		<defs>
			<polyline id="SVGID_1_" points="826.37,-101.2 826.37,496.8 -17.63,496.8 -17.63,-101.2 826.37,-101.2 			"/>
		</defs>
		<clipPath id="SVGID_00000120555232046674871380000004440306012963953303_">
			<use xlink:href="#SVGID_1_"  style="overflow:visible;"/>
		</clipPath>
		
			<path style="clip-path:url(#SVGID_00000120555232046674871380000004440306012963953303_);fill-rule:evenodd;clip-rule:evenodd;fill:#FE8801;" d="
			M401.31,263.46v-39.53l-1.62-1.58l-0.88-2.09v-2.26l0.88-2.09l1.62-1.58v-39.54l-6.28,0.9l-6.09,1.78l-5.77,2.63l-5.34,3.43
			l-4.8,4.15l-4.16,4.8l-3.43,5.34l-2.64,5.77l-1.79,6.09l-0.9,6.28v6.34l0.9,6.28l1.79,6.09l2.64,5.77l3.43,5.34l4.16,4.8l4.8,4.15
			l5.34,3.43l5.77,2.63l6.09,1.78L401.31,263.46 M57.91,69.65V368.6l9.86-0.49l9.78-1.36l9.62-2.21l9.39-3.06l9.08-3.87l8.71-4.65
			l8.26-5.4l7.76-6.11l7.18-6.77l6.56-7.38l5.88-7.93l5.16-8.42l4.4-8.84l3.61-9.19l2.78-9.47l1.93-9.68l1.08-9.81l0.07-1.29
			l0.16-5.98v-75.13l-0.16-5.98l-0.07-1.29l-1.08-9.81l-1.93-9.68l-2.78-9.47l-3.61-9.19l-4.4-8.84l-5.16-8.42l-5.88-7.93
			l-6.56-7.38l-7.18-6.77l-7.76-6.11l-8.26-5.4l-8.71-4.66l-9.08-3.87l-9.39-3.05l-9.62-2.21l-9.78-1.36L57.91,69.65 M57.91,63.38
			l10.44,0.52l10.35,1.44l10.18,2.35l9.94,3.24l9.61,4.1l9.21,4.94l8.74,5.73l8.2,6.48l7.59,7.18l6.93,7.82l6.21,8.41l5.45,8.92
			l4.64,9.37l3.79,9.74l2.91,10.04l2.02,10.26l1.1,10.39l0.07,1.31l0.15,5.93v75.13l-0.15,5.93l-0.07,1.31l-1.1,10.39l-2.02,10.26
			l-2.91,10.04l-3.79,9.74l-4.64,9.37l-5.45,8.92l-6.21,8.41l-6.93,7.82l-7.59,7.18l-8.2,6.48l-8.74,5.73l-9.21,4.94l-9.61,4.1
			l-9.94,3.24L78.7,372.9l-10.35,1.44l-10.44,0.52v4.33v3.42v1.25v2.24v4.58v12.19H70.1h331.21V269.74l-6.89-0.9l-6.7-1.84
			l-6.39-2.74l-5.96-3.59l-5.41-4.37l-4.76-5.07l-4.02-5.67l-3.21-6.17l-2.34-6.55l-1.42-6.8l-0.48-6.94l0.48-6.93l1.42-6.81
			l2.34-6.55l3.21-6.17l4.02-5.67l4.76-5.06l5.41-4.37l5.96-3.59l6.39-2.74l6.7-1.84l6.89-0.9V35.37H70.1H57.91v12.19V63.38
			 M51.65,409.13V29.11h352.79v380.02H51.65"/>
		
			<polyline style="clip-path:url(#SVGID_00000120555232046674871380000004440306012963953303_);fill-rule:evenodd;clip-rule:evenodd;fill:#F0117F;" points="
			592.65,212.86 597.65,212.86 597.65,225.38 592.65,225.38 592.65,212.86 		"/>
		
			<polyline style="clip-path:url(#SVGID_00000120555232046674871380000004440306012963953303_);fill-rule:evenodd;clip-rule:evenodd;fill:#419BDB;" points="
			216.22,212.86 216.22,225.38 211.23,225.38 211.23,212.86 216.22,212.86 		"/>
		
			<path style="clip-path:url(#SVGID_00000120555232046674871380000004440306012963953303_);fill-rule:evenodd;clip-rule:evenodd;fill:#FBCC02;" d="
			M217.69,201.87l-0.38-1.67l-1.07-1.34l-1.54-0.74h-1.71l-1.54,0.74l-1.07,1.34l-0.38,1.67l0.38,1.67l1.07,1.34l1.54,0.74h1.71
			l1.54-0.74l1.07-1.34L217.69,201.87 M220.12,201.87l-0.38,2.15l-1.09,1.89l-1.67,1.4l-2.05,0.75h-2.18l-2.05-0.75l-1.67-1.4
			l-1.09-1.89l-0.38-2.15l0.38-2.15l1.09-1.89l1.67-1.4l2.05-0.75h2.18l2.05,0.75l1.67,1.4l1.09,1.89L220.12,201.87"/>
		
			<polyline style="clip-path:url(#SVGID_00000120555232046674871380000004440306012963953303_);fill-rule:evenodd;clip-rule:evenodd;fill:#FF0000;" points="
			326.18,400.92 326.18,392.5 328.68,392.5 328.68,400.92 326.18,400.92 		"/>
		
			<polyline style="clip-path:url(#SVGID_00000120555232046674871380000004440306012963953303_);fill-rule:evenodd;clip-rule:evenodd;fill:#FF0000;" points="
			331.02,400.92 331.02,392.5 333.52,392.5 333.52,400.92 331.02,400.92 		"/>
		
			<polyline style="clip-path:url(#SVGID_00000120555232046674871380000004440306012963953303_);fill-rule:evenodd;clip-rule:evenodd;fill:#FF0000;" points="
			335.86,400.92 335.86,392.5 338.37,392.5 338.37,400.92 335.86,400.92 		"/>
		
			<polyline style="clip-path:url(#SVGID_00000120555232046674871380000004440306012963953303_);fill-rule:evenodd;clip-rule:evenodd;fill:#FF0000;" points="
			340.7,400.92 340.7,392.5 343.21,392.5 343.21,400.92 340.7,400.92 		"/>
		
			<polyline style="clip-path:url(#SVGID_00000120555232046674871380000004440306012963953303_);fill-rule:evenodd;clip-rule:evenodd;fill:#FF0000;" points="
			345.54,400.92 345.54,392.5 348.05,392.5 348.05,400.92 345.54,400.92 		"/>
		
			<polyline style="clip-path:url(#SVGID_00000120555232046674871380000004440306012963953303_);fill-rule:evenodd;clip-rule:evenodd;fill:#FF0000;" points="
			350.39,400.92 350.39,392.5 352.89,392.5 352.89,400.92 350.39,400.92 		"/>
		
			<polyline style="clip-path:url(#SVGID_00000120555232046674871380000004440306012963953303_);fill-rule:evenodd;clip-rule:evenodd;fill:#FF0000;" points="
			355.23,400.92 355.23,392.5 357.73,392.5 357.73,400.92 355.23,400.92 		"/>
		
			<polyline style="clip-path:url(#SVGID_00000120555232046674871380000004440306012963953303_);fill-rule:evenodd;clip-rule:evenodd;fill:#FF0000;" points="
			360.07,400.92 360.07,392.5 362.57,392.5 362.57,400.92 360.07,400.92 		"/>
		
			<polyline style="clip-path:url(#SVGID_00000120555232046674871380000004440306012963953303_);fill-rule:evenodd;clip-rule:evenodd;fill:#FF0000;" points="
			364.91,400.92 364.91,392.5 367.42,392.5 367.42,400.92 364.91,400.92 		"/>
		
			<polyline style="clip-path:url(#SVGID_00000120555232046674871380000004440306012963953303_);fill-rule:evenodd;clip-rule:evenodd;fill:#FF0000;" points="
			369.75,400.92 369.75,392.5 372.26,392.5 372.26,400.92 369.75,400.92 		"/>
		
			<polyline style="clip-path:url(#SVGID_00000120555232046674871380000004440306012963953303_);fill-rule:evenodd;clip-rule:evenodd;fill:#FF0000;" points="
			374.59,400.92 374.59,392.5 377.1,392.5 377.1,400.92 374.59,400.92 		"/>
		
			<polyline style="clip-path:url(#SVGID_00000120555232046674871380000004440306012963953303_);fill-rule:evenodd;clip-rule:evenodd;fill:#FF0000;" points="
			379.43,400.92 379.43,392.5 381.94,392.5 381.94,400.92 379.43,400.92 		"/>
		
			<polyline style="clip-path:url(#SVGID_00000120555232046674871380000004440306012963953303_);fill-rule:evenodd;clip-rule:evenodd;fill:#FF0000;" points="
			384.28,400.92 384.28,392.5 386.78,392.5 386.78,400.92 384.28,400.92 		"/>
		
			<polyline style="clip-path:url(#SVGID_00000120555232046674871380000004440306012963953303_);fill-rule:evenodd;clip-rule:evenodd;fill:#FF0000;" points="
			389.12,400.92 389.12,392.5 391.62,392.5 391.62,400.92 389.12,400.92 		"/>
		
			<polyline style="clip-path:url(#SVGID_00000120555232046674871380000004440306012963953303_);fill-rule:evenodd;clip-rule:evenodd;fill:#FF0000;" points="
			417.25,400.92 417.25,392.5 419.76,392.5 419.76,400.92 417.25,400.92 		"/>
		
			<polyline style="clip-path:url(#SVGID_00000120555232046674871380000004440306012963953303_);fill-rule:evenodd;clip-rule:evenodd;fill:#FF0000;" points="
			422.09,400.92 422.09,392.5 424.6,392.5 424.6,400.92 422.09,400.92 		"/>
		
			<polyline style="clip-path:url(#SVGID_00000120555232046674871380000004440306012963953303_);fill-rule:evenodd;clip-rule:evenodd;fill:#FF0000;" points="
			426.93,400.92 426.93,392.5 429.44,392.5 429.44,400.92 426.93,400.92 		"/>
		
			<polyline style="clip-path:url(#SVGID_00000120555232046674871380000004440306012963953303_);fill-rule:evenodd;clip-rule:evenodd;fill:#FF0000;" points="
			431.77,400.92 431.77,392.5 434.28,392.5 434.28,400.92 431.77,400.92 		"/>
		
			<polyline style="clip-path:url(#SVGID_00000120555232046674871380000004440306012963953303_);fill-rule:evenodd;clip-rule:evenodd;fill:#FF0000;" points="
			436.62,400.92 436.62,392.5 439.12,392.5 439.12,400.92 436.62,400.92 		"/>
		
			<polyline style="clip-path:url(#SVGID_00000120555232046674871380000004440306012963953303_);fill-rule:evenodd;clip-rule:evenodd;fill:#FF0000;" points="
			441.46,400.92 441.46,392.5 443.96,392.5 443.96,400.92 441.46,400.92 		"/>
		
			<polyline style="clip-path:url(#SVGID_00000120555232046674871380000004440306012963953303_);fill-rule:evenodd;clip-rule:evenodd;fill:#FF0000;" points="
			446.3,400.92 446.3,392.5 448.8,392.5 448.8,400.92 446.3,400.92 		"/>
		
			<polyline style="clip-path:url(#SVGID_00000120555232046674871380000004440306012963953303_);fill-rule:evenodd;clip-rule:evenodd;fill:#FF0000;" points="
			451.14,400.92 451.14,392.5 453.65,392.5 453.65,400.92 451.14,400.92 		"/>
		
			<polyline style="clip-path:url(#SVGID_00000120555232046674871380000004440306012963953303_);fill-rule:evenodd;clip-rule:evenodd;fill:#FF0000;" points="
			455.98,400.92 455.98,392.5 458.49,392.5 458.49,400.92 455.98,400.92 		"/>
		
			<polyline style="clip-path:url(#SVGID_00000120555232046674871380000004440306012963953303_);fill-rule:evenodd;clip-rule:evenodd;fill:#FF0000;" points="
			460.82,400.92 460.82,392.5 463.33,392.5 463.33,400.92 460.82,400.92 		"/>
		
			<polyline style="clip-path:url(#SVGID_00000120555232046674871380000004440306012963953303_);fill-rule:evenodd;clip-rule:evenodd;fill:#FF0000;" points="
			465.67,400.92 465.67,392.5 468.17,392.5 468.17,400.92 465.67,400.92 		"/>
		
			<polyline style="clip-path:url(#SVGID_00000120555232046674871380000004440306012963953303_);fill-rule:evenodd;clip-rule:evenodd;fill:#FF0000;" points="
			470.51,400.92 470.51,392.5 473.01,392.5 473.01,400.92 470.51,400.92 		"/>
		
			<polyline style="clip-path:url(#SVGID_00000120555232046674871380000004440306012963953303_);fill-rule:evenodd;clip-rule:evenodd;fill:#FF0000;" points="
			475.35,400.92 475.35,392.5 477.85,392.5 477.85,400.92 475.35,400.92 		"/>
		
			<polyline style="clip-path:url(#SVGID_00000120555232046674871380000004440306012963953303_);fill-rule:evenodd;clip-rule:evenodd;fill:#FF0000;" points="
			480.19,400.92 480.19,392.5 482.7,392.5 482.7,400.92 480.19,400.92 		"/>
		
			<polyline style="clip-path:url(#SVGID_00000120555232046674871380000004440306012963953303_);fill-rule:evenodd;clip-rule:evenodd;fill:#F7F5F3;stroke:#000000;stroke-miterlimit:10;" points="
			45.37,114.27 44.97,117.02 43.82,119.55 42,121.65 39.66,123.16 36.99,123.94 34.21,123.94 31.54,123.16 29.2,121.65 
			27.38,119.55 26.22,117.02 25.83,114.27 26.22,111.51 27.38,108.98 29.2,106.88 31.54,105.38 34.21,104.6 36.99,104.6 
			39.66,105.38 42,106.88 43.82,108.98 44.97,111.51 45.37,114.27 		"/>
		
			<polyline style="clip-path:url(#SVGID_00000120555232046674871380000004440306012963953303_);fill-rule:evenodd;clip-rule:evenodd;fill:#F7F5F3;stroke:#000000;stroke-miterlimit:10;" points="
			304.85,392.37 304.45,395.12 303.3,397.65 301.48,399.75 299.14,401.26 296.47,402.04 293.69,402.04 291.02,401.26 288.68,399.75 
			286.86,397.65 285.7,395.12 285.3,392.37 285.7,389.61 286.86,387.08 288.68,384.98 291.02,383.48 293.69,382.69 296.47,382.69 
			299.14,383.48 301.48,384.98 303.3,387.08 304.45,389.61 304.85,392.37 		"/>
		
			<polyline style="clip-path:url(#SVGID_00000120555232046674871380000004440306012963953303_);fill-rule:evenodd;clip-rule:evenodd;fill:#F7F5F3;stroke:#000000;stroke-miterlimit:10;" points="
			292.64,47.2 292.25,49.96 291.09,52.49 289.27,54.59 286.93,56.09 284.26,56.88 281.48,56.88 278.81,56.09 276.47,54.59 
			274.65,52.49 273.5,49.96 273.1,47.2 273.5,44.45 274.65,41.92 276.47,39.82 278.81,38.31 281.48,37.53 284.26,37.53 
			286.93,38.31 289.27,39.82 291.09,41.92 292.25,44.45 292.64,47.2 		"/>
		
			<polyline style="clip-path:url(#SVGID_00000120555232046674871380000004440306012963953303_);fill-rule:evenodd;clip-rule:evenodd;fill:#F7F5F3;stroke:#000000;stroke-miterlimit:10;" points="
			778.3,134.59 777.9,137.34 776.75,139.87 774.92,141.98 772.58,143.48 769.92,144.26 767.13,144.26 764.47,143.48 762.13,141.98 
			760.3,139.87 759.15,137.34 758.75,134.59 759.15,131.84 760.3,129.31 762.13,127.2 764.47,125.7 767.13,124.92 769.92,124.92 
			772.58,125.7 774.92,127.2 776.75,129.31 777.9,131.84 778.3,134.59 		"/>
		
			<polyline style="clip-path:url(#SVGID_00000120555232046674871380000004440306012963953303_);fill-rule:evenodd;clip-rule:evenodd;fill:#FE8801;" points="
			759.22,181.56 764.43,181.56 764.43,184.06 759.22,184.06 759.22,181.56 		"/>
		
			<polyline style="clip-path:url(#SVGID_00000120555232046674871380000004440306012963953303_);fill-rule:evenodd;clip-rule:evenodd;fill:#FE8801;" points="
			759.22,186.4 764.43,186.4 764.43,188.9 759.22,188.9 759.22,186.4 		"/>
		
			<polyline style="clip-path:url(#SVGID_00000120555232046674871380000004440306012963953303_);fill-rule:evenodd;clip-rule:evenodd;fill:#FE8801;" points="
			759.22,191.24 764.43,191.24 764.43,193.75 759.22,193.75 759.22,191.24 		"/>
		
			<polyline style="clip-path:url(#SVGID_00000120555232046674871380000004440306012963953303_);fill-rule:evenodd;clip-rule:evenodd;fill:#FE8801;" points="
			759.22,196.08 764.43,196.08 764.43,198.59 759.22,198.59 759.22,196.08 		"/>
		
			<polyline style="clip-path:url(#SVGID_00000120555232046674871380000004440306012963953303_);fill-rule:evenodd;clip-rule:evenodd;fill:#FE8801;" points="
			759.22,200.92 764.43,200.92 764.43,203.43 759.22,203.43 759.22,200.92 		"/>
		
			<polyline style="clip-path:url(#SVGID_00000120555232046674871380000004440306012963953303_);fill-rule:evenodd;clip-rule:evenodd;fill:#FE8801;" points="
			759.22,205.77 764.43,205.77 764.43,208.27 759.22,208.27 759.22,205.77 		"/>
		
			<polyline style="clip-path:url(#SVGID_00000120555232046674871380000004440306012963953303_);fill-rule:evenodd;clip-rule:evenodd;fill:#FE8801;" points="
			759.22,210.61 764.43,210.61 764.43,213.11 759.22,213.11 759.22,210.61 		"/>
		
			<polyline style="clip-path:url(#SVGID_00000120555232046674871380000004440306012963953303_);fill-rule:evenodd;clip-rule:evenodd;fill:#FE8801;" points="
			759.22,215.45 764.43,215.45 764.43,217.95 759.22,217.95 759.22,215.45 		"/>
		
			<polyline style="clip-path:url(#SVGID_00000120555232046674871380000004440306012963953303_);fill-rule:evenodd;clip-rule:evenodd;fill:#FE8801;" points="
			759.22,220.29 764.43,220.29 764.43,222.8 759.22,222.8 759.22,220.29 		"/>
		
			<polyline style="clip-path:url(#SVGID_00000120555232046674871380000004440306012963953303_);fill-rule:evenodd;clip-rule:evenodd;fill:#FE8801;" points="
			759.22,225.13 764.43,225.13 764.43,227.64 759.22,227.64 759.22,225.13 		"/>
		
			<polyline style="clip-path:url(#SVGID_00000120555232046674871380000004440306012963953303_);fill-rule:evenodd;clip-rule:evenodd;fill:#FE8801;" points="
			759.22,229.97 764.43,229.97 764.43,232.48 759.22,232.48 759.22,229.97 		"/>
		
			<polyline style="clip-path:url(#SVGID_00000120555232046674871380000004440306012963953303_);fill-rule:evenodd;clip-rule:evenodd;fill:#FE8801;" points="
			759.22,234.81 764.43,234.81 764.43,237.32 759.22,237.32 759.22,234.81 		"/>
		
			<polyline style="clip-path:url(#SVGID_00000120555232046674871380000004440306012963953303_);fill-rule:evenodd;clip-rule:evenodd;fill:#FE8801;" points="
			759.22,239.66 764.43,239.66 764.43,242.16 759.22,242.16 759.22,239.66 		"/>
		
			<polyline style="clip-path:url(#SVGID_00000120555232046674871380000004440306012963953303_);fill-rule:evenodd;clip-rule:evenodd;fill:#FE8801;" points="
			759.22,244.5 764.43,244.5 764.43,247 759.22,247 759.22,244.5 		"/>
		
			<polyline style="clip-path:url(#SVGID_00000120555232046674871380000004440306012963953303_);fill-rule:evenodd;clip-rule:evenodd;fill:#FE8801;" points="
			759.22,249.34 764.43,249.34 764.43,251.85 759.22,251.85 759.22,249.34 		"/>
		
			<polyline style="clip-path:url(#SVGID_00000120555232046674871380000004440306012963953303_);fill-rule:evenodd;clip-rule:evenodd;fill:#FE8801;" points="
			759.22,254.18 764.43,254.18 764.43,256.69 759.22,256.69 759.22,254.18 		"/>
		
			<path style="clip-path:url(#SVGID_00000120555232046674871380000004440306012963953303_);fill-rule:evenodd;clip-rule:evenodd;fill:#419BDB;" d="
			M639.67,181.56v75.13l0.47,10.29l1.42,10.2l2.35,10.03l3.26,9.77l4.15,9.43l5,9.01l5.8,8.51l6.56,7.94l7.26,7.3l7.9,6.6l8.48,5.85
			l8.98,5.05l9.41,4.2l9.75,3.32l10.02,2.4l10.19,1.48l10.29,0.53V69.65l-10.29,0.53l-10.19,1.48l-10.02,2.41l-9.75,3.32l-9.41,4.2
			l-8.98,5.05l-8.48,5.85l-7.9,6.61l-7.26,7.3l-6.56,7.94l-5.8,8.51l-5,9.01l-4.15,9.43l-3.26,9.77l-2.35,10.03l-1.42,10.2
			L639.67,181.56 M407.57,263.46l6.28-0.9l6.09-1.78l5.77-2.63l5.34-3.43l4.8-4.15l4.16-4.8l3.43-5.34l2.64-5.77l1.79-6.09l0.9-6.28
			v-6.34l-0.9-6.28l-1.79-6.09l-2.64-5.77l-3.43-5.34l-4.16-4.8l-4.8-4.15l-5.34-3.43l-5.77-2.63l-6.09-1.78l-6.28-0.9v39.54
			l1.62,1.58l0.88,2.09v2.26l-0.88,2.09l-1.62,1.58V263.46 M407.57,269.74v133.14h331.21h12.18v-12.19v-15.83l-10.26-0.5
			l-10.18-1.39l-10.02-2.27l-9.79-3.13l-9.48-3.97l-9.1-4.78l-8.65-5.55l-8.13-6.28l-7.56-6.96l-6.92-7.59l-6.24-8.16l-5.5-8.68
			l-4.73-9.12l-3.92-9.5l-3.08-9.8l-2.22-10.03l-1.34-10.19l-0.45-10.26v-75.13l0.45-10.27l1.34-10.19l2.22-10.03l3.08-9.8l3.92-9.5
			l4.73-9.12l5.5-8.68l6.24-8.17l6.92-7.59l7.56-6.96l8.13-6.28l8.65-5.55l9.1-4.78l9.48-3.97l9.79-3.13l10.02-2.27l10.18-1.39
			l10.26-0.5V35.37h-343.4v133.14l6.89,0.9l6.7,1.84l6.39,2.74l5.96,3.59l5.41,4.37l4.76,5.06l4.02,5.67l3.21,6.17l2.34,6.55
			l1.42,6.81l0.48,6.93l-0.48,6.94l-1.42,6.8l-2.34,6.55l-3.21,6.17l-4.02,5.67l-4.76,5.07l-5.41,4.37l-5.96,3.59l-6.39,2.74
			l-6.7,1.84L407.57,269.74 M404.44,409.13V29.11h352.79v380.02H404.44"/>
		
			<polyline style="clip-path:url(#SVGID_00000120555232046674871380000004440306012963953303_);fill-rule:evenodd;clip-rule:evenodd;fill:#E41074;" points="
			0,438.24 0,0 378.34,0 379.55,0.31 380.46,1.18 380.84,2.37 380.59,3.6 379.77,4.56 373.76,8.77 8.76,8.77 8.76,429.48 
			800.11,429.48 800.11,8.77 435.11,8.77 429.1,4.56 428.29,3.6 428.04,2.37 428.41,1.18 429.32,0.31 430.54,0 808.87,0 
			808.87,438.24 0,438.24 		"/>
		
			<polyline style="clip-path:url(#SVGID_00000120555232046674871380000004440306012963953303_);fill-rule:evenodd;clip-rule:evenodd;fill:#FBCC02;" points="
			240.25,217.26 240.53,215.83 241.35,214.61 242.57,213.79 244,213.51 301.47,213.51 302.91,213.79 304.12,214.61 304.94,215.83 
			305.22,217.26 305.22,234 304.94,235.44 304.12,236.66 302.91,237.48 301.47,237.76 244,237.76 242.57,237.48 241.35,236.66 
			240.53,235.44 240.25,234 240.25,217.26 		"/>
		
			<polyline style="clip-path:url(#SVGID_00000120555232046674871380000004440306012963953303_);fill-rule:evenodd;clip-rule:evenodd;fill:#FBCC02;" points="
			508.16,45.72 508.41,44.78 509.1,44.09 510.04,43.84 571.26,43.84 572.2,44.09 572.89,44.78 573.14,45.72 573.14,58.71 
			572.89,59.65 572.2,60.33 571.26,60.59 510.04,60.59 509.1,60.33 508.41,59.65 508.16,58.71 508.16,45.72 		"/>
		
			<polyline style="clip-path:url(#SVGID_00000120555232046674871380000004440306012963953303_);fill-rule:evenodd;clip-rule:evenodd;fill:#FBCC02;" points="
			493.31,369.58 493.57,368.64 494.25,367.95 495.19,367.7 556.41,367.7 557.35,367.95 558.04,368.64 558.29,369.58 558.29,382.57 
			558.04,383.5 557.35,384.19 556.41,384.44 495.19,384.44 494.25,384.19 493.57,383.5 493.31,382.57 493.31,369.58 		"/>
		<polyline style="clip-path:url(#SVGID_00000120555232046674871380000004440306012963953303_);fill:#6A6A6A;" points="
			508.16,52.11 467.63,52.11 467.53,52.21 467.63,52.31 508.16,52.31 508.26,52.21 508.16,52.11 		"/>
		<polyline style="clip-path:url(#SVGID_00000120555232046674871380000004440306012963953303_);fill:#6A6A6A;" points="
			467.73,52.21 467.73,38.66 467.63,38.57 467.53,38.66 467.53,52.21 467.63,52.31 467.73,52.21 		"/>
		<polyline style="clip-path:url(#SVGID_00000120555232046674871380000004440306012963953303_);" points="57.97,181.64 
			143.59,115.34 143.61,115.2 143.47,115.18 57.85,181.48 57.83,181.62 57.97,181.64 		"/>
		
			<polyline style="clip-path:url(#SVGID_00000120555232046674871380000004440306012963953303_);fill-rule:evenodd;clip-rule:evenodd;" points="
			146.01,113.34 145.45,117.73 141.61,112.78 146.01,113.34 		"/>
		<polyline style="clip-path:url(#SVGID_00000120555232046674871380000004440306012963953303_);" points="145.53,117.67 
			141.69,112.72 141.55,112.7 141.54,112.84 145.37,117.79 145.51,117.81 145.53,117.67 		"/>
		<polyline style="clip-path:url(#SVGID_00000120555232046674871380000004440306012963953303_);" points="145.91,113.33 
			145.35,117.72 145.44,117.83 145.55,117.75 146.11,113.35 146.02,113.24 145.91,113.33 		"/>
		<polyline style="clip-path:url(#SVGID_00000120555232046674871380000004440306012963953303_);" points="146.02,113.24 
			141.63,112.68 141.52,112.77 141.6,112.88 145.99,113.44 146.11,113.35 146.02,113.24 		"/>
		<polyline style="clip-path:url(#SVGID_00000120555232046674871380000004440306012963953303_);" points="404.4,219.21 
			442.3,235.67 442.43,235.62 442.38,235.49 404.48,219.03 404.35,219.08 404.4,219.21 		"/>
		
			<polyline style="clip-path:url(#SVGID_00000120555232046674871380000004440306012963953303_);fill-rule:evenodd;clip-rule:evenodd;" points="
			445.21,236.83 441.09,238.45 443.58,232.71 445.21,236.83 		"/>
		<polyline style="clip-path:url(#SVGID_00000120555232046674871380000004440306012963953303_);" points="441.18,238.49 
			443.67,232.75 443.62,232.62 443.49,232.67 441,238.41 441.05,238.55 441.18,238.49 		"/>
		<polyline style="clip-path:url(#SVGID_00000120555232046674871380000004440306012963953303_);" points="445.17,236.74 
			441.06,238.36 441,238.49 441.13,238.55 445.24,236.92 445.3,236.79 445.17,236.74 		"/>
		<polyline style="clip-path:url(#SVGID_00000120555232046674871380000004440306012963953303_);" points="445.3,236.79 
			443.68,232.68 443.55,232.62 443.49,232.75 445.12,236.87 445.24,236.92 445.3,236.79 		"/>
		<polyline style="clip-path:url(#SVGID_00000120555232046674871380000004440306012963953303_);fill:#6A6A6A;" points="
			493.31,375.97 452.78,375.97 452.68,376.07 452.78,376.17 493.31,376.17 493.41,376.07 493.31,375.97 		"/>
		<polyline style="clip-path:url(#SVGID_00000120555232046674871380000004440306012963953303_);fill:#6A6A6A;" points="
			452.68,376.07 452.68,385.1 452.78,385.2 452.88,385.1 452.88,376.07 452.78,375.97 452.68,376.07 		"/>
		<g style="clip-path:url(#SVGID_00000120555232046674871380000004440306012963953303_);">
			<defs>
				<polyline id="SVGID_00000085957511175818034560000008333637905264835205_" points="-7.85,448.92 -7.85,-8.64 820.45,-8.64 
					820.45,448.92 -7.85,448.92 				"/>
			</defs>
			<clipPath id="SVGID_00000070798605303950591130000015451935650094365312_">
				<use xlink:href="#SVGID_00000085957511175818034560000008333637905264835205_"  style="overflow:visible;"/>
			</clipPath>
		</g>
		<g style="clip-path:url(#SVGID_00000120555232046674871380000004440306012963953303_);">
			<defs>
				<polyline id="SVGID_00000028289140041903981170000017392185444778194341_" points="-7.85,448.92 -7.85,-8.64 820.45,-8.64 
					820.45,448.92 -7.85,448.92 				"/>
			</defs>
			<clipPath id="SVGID_00000014601593418248200030000009869460276702957238_">
				<use xlink:href="#SVGID_00000028289140041903981170000017392185444778194341_"  style="overflow:visible;"/>
			</clipPath>
		</g>
		<g style="clip-path:url(#SVGID_00000120555232046674871380000004440306012963953303_);">
			<defs>
				<polyline id="SVGID_00000116930403252929703020000005398195732329981116_" points="-7.85,448.92 -7.85,-8.64 820.45,-8.64 
					820.45,448.92 -7.85,448.92 				"/>
			</defs>
			<clipPath id="SVGID_00000148657210830829762080000014665844452074961068_">
				<use xlink:href="#SVGID_00000116930403252929703020000005398195732329981116_"  style="overflow:visible;"/>
			</clipPath>
		</g>
		<g style="clip-path:url(#SVGID_00000120555232046674871380000004440306012963953303_);">
			<defs>
				<polyline id="SVGID_00000147911610839356901440000002069310172802734209_" points="-7.85,448.92 -7.85,-8.64 820.45,-8.64 
					820.45,448.92 -7.85,448.92 				"/>
			</defs>
			<clipPath id="SVGID_00000167393454438163647270000016367929178019793316_">
				<use xlink:href="#SVGID_00000147911610839356901440000002069310172802734209_"  style="overflow:visible;"/>
			</clipPath>
		</g>
		<g style="clip-path:url(#SVGID_00000120555232046674871380000004440306012963953303_);">
			<defs>
				<polyline id="SVGID_00000091708172898332574030000017226767639159507099_" points="-7.85,448.92 -7.85,-8.64 820.45,-8.64 
					820.45,448.92 -7.85,448.92 				"/>
			</defs>
			<clipPath id="SVGID_00000019653433857944584300000010082541572546650515_">
				<use xlink:href="#SVGID_00000091708172898332574030000017226767639159507099_"  style="overflow:visible;"/>
			</clipPath>
		</g>
		<g style="clip-path:url(#SVGID_00000120555232046674871380000004440306012963953303_);">
			<defs>
				<polyline id="SVGID_00000021831681362350681240000017618645872977771962_" points="-7.85,448.92 -7.85,-8.64 820.45,-8.64 
					820.45,448.92 -7.85,448.92 				"/>
			</defs>
			<clipPath id="SVGID_00000066512327980597591580000012898929931552971197_">
				<use xlink:href="#SVGID_00000021831681362350681240000017618645872977771962_"  style="overflow:visible;"/>
			</clipPath>
		</g>
		<g style="clip-path:url(#SVGID_00000120555232046674871380000004440306012963953303_);">
			<defs>
				<polyline id="SVGID_00000031920038327456803740000003753036241264005300_" points="-7.85,448.92 -7.85,-8.64 820.45,-8.64 
					820.45,448.92 -7.85,448.92 				"/>
			</defs>
			<clipPath id="SVGID_00000138572536801893029700000008026243037752201895_">
				<use xlink:href="#SVGID_00000031920038327456803740000003753036241264005300_"  style="overflow:visible;"/>
			</clipPath>
		</g>
		<polyline style="clip-path:url(#SVGID_00000120555232046674871380000004440306012963953303_);fill:#6A6A6A;" points="
			220.12,201.97 270.07,201.97 270.17,201.87 270.07,201.77 220.12,201.77 220.02,201.87 220.12,201.97 		"/>
		<polyline style="clip-path:url(#SVGID_00000120555232046674871380000004440306012963953303_);fill:#6A6A6A;" points="
			269.97,201.87 269.97,213.51 270.07,213.61 270.17,213.51 270.17,201.87 270.07,201.77 269.97,201.87 		"/>
		
			<path style="clip-path:url(#SVGID_00000120555232046674871380000004440306012963953303_);fill-rule:evenodd;clip-rule:evenodd;fill:#FBCC02;" d="
			M471.48,32.39l-0.38-1.67l-1.07-1.34l-1.54-0.74h-1.71l-1.54,0.74l-1.07,1.34l-0.38,1.67l0.38,1.67l1.07,1.34l1.54,0.74h1.71
			l1.54-0.74l1.07-1.34L471.48,32.39 M473.91,32.39l-0.38,2.15l-1.09,1.89l-1.67,1.4l-2.05,0.75h-2.18l-2.05-0.75l-1.67-1.4
			l-1.09-1.89l-0.38-2.15l0.38-2.15l1.09-1.89l1.67-1.4l2.05-0.75h2.18l2.05,0.75l1.67,1.4l1.09,1.89L473.91,32.39"/>
		
			<polyline style="clip-path:url(#SVGID_00000120555232046674871380000004440306012963953303_);fill-rule:evenodd;clip-rule:evenodd;fill:#F7F5F3;stroke:#000000;stroke-miterlimit:10;" points="
			119.42,141.78 119.02,144.54 117.87,147.07 116.05,149.17 113.71,150.67 111.04,151.46 108.26,151.46 105.59,150.67 
			103.25,149.17 101.43,147.07 100.27,144.54 99.88,141.78 100.27,139.03 101.43,136.5 103.25,134.4 105.59,132.9 108.26,132.11 
			111.04,132.11 113.71,132.9 116.05,134.4 117.87,136.5 119.02,139.03 119.42,141.78 		"/>
		
			<polyline style="clip-path:url(#SVGID_00000120555232046674871380000004440306012963953303_);fill-rule:evenodd;clip-rule:evenodd;fill:#FBCC02;" points="
			448.26,389.62 448.71,387.66 449.96,386.09 451.78,385.22 453.79,385.22 455.6,386.09 456.85,387.66 457.3,389.62 456.85,391.58 
			455.6,393.15 453.79,394.03 451.78,394.03 449.96,393.15 448.71,391.58 448.26,389.62 		"/>
		<g style="clip-path:url(#SVGID_00000120555232046674871380000004440306012963953303_);">
			<defs>
				<polyline id="SVGID_00000114043393096182956990000008393910911365511870_" points="-7.85,448.92 -7.85,-8.64 820.45,-8.64 
					820.45,448.92 -7.85,448.92 				"/>
			</defs>
			<clipPath id="SVGID_00000017495685339314334320000014939121243355838859_">
				<use xlink:href="#SVGID_00000114043393096182956990000008393910911365511870_"  style="overflow:visible;"/>
			</clipPath>
		</g>
	</g>
</g>
<g>
	<g>
		<path d="M255.46,222.02c0-0.65,0.01-1.37,0.03-1.8h-0.03c-0.18,0.77-0.56,2.03-0.92,3.22h-0.7c-0.28-1.04-0.67-2.47-0.83-3.23
			h-0.03c0.03,0.44,0.05,1.22,0.05,1.87v1.36h-0.75v-3.79h1.22c0.29,0.99,0.63,2.23,0.74,2.8h0.01c0.09-0.5,0.51-1.83,0.83-2.8h1.17
			v3.79h-0.79V222.02z"/>
		<path d="M257.86,222.56l-0.3,0.87h-0.8l1.29-3.79h1.03l1.34,3.79h-0.86l-0.31-0.87H257.86z M259.07,221.89
			c-0.27-0.8-0.44-1.31-0.53-1.65h-0.01c-0.09,0.37-0.28,0.97-0.5,1.65H259.07z"/>
		<path d="M261.73,221.92v1.52h-0.8v-3.79h1.66c0.83,0,1.27,0.46,1.27,1.04c0,0.51-0.28,0.78-0.55,0.9
			c0.19,0.07,0.47,0.26,0.47,0.94v0.19c0,0.25,0,0.54,0.05,0.72h-0.78c-0.07-0.16-0.08-0.45-0.08-0.85v-0.06
			c0-0.41-0.1-0.61-0.71-0.61H261.73z M261.73,221.27h0.69c0.45,0,0.62-0.17,0.62-0.49c0-0.31-0.2-0.48-0.6-0.48h-0.71V221.27z"/>
		<path d="M267.78,222.27c-0.15,0.71-0.68,1.22-1.63,1.22c-1.2,0-1.77-0.85-1.77-1.93c0-1.04,0.59-1.97,1.81-1.97
			c1.01,0,1.5,0.59,1.59,1.23h-0.82c-0.08-0.29-0.28-0.58-0.8-0.58c-0.68,0-0.94,0.61-0.94,1.3c0,0.64,0.23,1.31,0.96,1.31
			c0.54,0,0.7-0.36,0.77-0.58H267.78z"/>
		<path d="M269.18,222.56l-0.3,0.87h-0.8l1.29-3.79h1.03l1.34,3.79h-0.86l-0.31-0.87H269.18z M270.39,221.89
			c-0.27-0.8-0.44-1.31-0.53-1.65h-0.01c-0.09,0.37-0.28,0.97-0.5,1.65H270.39z"/>
		<path d="M275.46,222.27c-0.15,0.71-0.68,1.22-1.63,1.22c-1.2,0-1.77-0.85-1.77-1.93c0-1.04,0.59-1.97,1.81-1.97
			c1.01,0,1.5,0.59,1.59,1.23h-0.82c-0.08-0.29-0.28-0.58-0.8-0.58c-0.68,0-0.94,0.61-0.94,1.3c0,0.64,0.23,1.31,0.96,1.31
			c0.54,0,0.7-0.36,0.77-0.58H275.46z M274.22,223.44l-0.23,0.25c0.19,0.05,0.47,0.16,0.47,0.52c0,0.47-0.45,0.57-0.78,0.57
			c-0.17,0-0.33-0.02-0.41-0.06v-0.42c0.07,0.02,0.25,0.03,0.3,0.03c0.18,0,0.24-0.04,0.24-0.14c0-0.15-0.24-0.18-0.47-0.19v-0.19
			l0.38-0.44L274.22,223.44z"/>
		<path d="M276.87,222.56l-0.3,0.87h-0.8l1.29-3.79h1.03l1.34,3.79h-0.86l-0.31-0.87H276.87z M276.58,219.28v-0.19
			c0-0.45,0.21-0.59,0.53-0.59c0.37,0,0.66,0.25,0.84,0.25c0.08,0,0.14-0.04,0.14-0.19v-0.05h0.5v0.14c0,0.52-0.21,0.66-0.55,0.66
			c-0.3,0-0.64-0.25-0.82-0.25c-0.08,0-0.13,0.04-0.13,0.13v0.08H276.58z M278.07,221.89c-0.27-0.8-0.44-1.31-0.53-1.65h-0.01
			c-0.09,0.37-0.28,0.97-0.5,1.65H278.07z"/>
		<path d="M283.42,221.53c0,1.05-0.63,1.96-1.86,1.96c-1.19,0-1.81-0.86-1.81-1.95c0-1.1,0.69-1.95,1.86-1.95
			C282.72,219.59,283.42,220.37,283.42,221.53z M280.59,221.53c0,0.74,0.33,1.3,1,1.3c0.73,0,0.99-0.61,0.99-1.28
			c0-0.72-0.29-1.28-1-1.28C280.89,220.26,280.59,220.79,280.59,221.53z"/>
	</g>
</g>
<g>
	<g>
		<path d="M286.44,219.65h1.5c1.1,0,1.82,0.73,1.82,1.85c0,1.1-0.7,1.94-1.86,1.94h-1.47V219.65z M287.26,222.78h0.61
			c0.73,0,1.05-0.54,1.05-1.28c0-0.62-0.3-1.19-1.04-1.19h-0.62V222.78z"/>
		<path d="M293.09,221.8h-1.81v0.96h2l-0.1,0.67h-2.7v-3.79h2.69v0.67h-1.89v0.81h1.81V221.8z"/>
	</g>
</g>
<g>
	<g>
		<path d="M245.97,229.73h-0.6c-0.03-0.12-0.05-0.25-0.06-0.37c-0.21,0.28-0.58,0.44-1.11,0.44c-1.1,0-1.71-0.83-1.71-1.91
			c0-1.14,0.66-2,1.86-2c0.97,0,1.55,0.55,1.64,1.2h-0.82c-0.08-0.25-0.28-0.55-0.83-0.55c-0.78,0-1,0.65-1,1.32
			c0,0.65,0.25,1.29,1,1.29c0.7,0,0.83-0.49,0.83-0.82v-0.03h-0.83v-0.67h1.63V229.73z"/>
		<path d="M247.6,228.21v1.52h-0.8v-3.79h1.66c0.83,0,1.27,0.46,1.27,1.04c0,0.51-0.28,0.78-0.55,0.9c0.19,0.07,0.47,0.26,0.47,0.94
			v0.19c0,0.25,0,0.54,0.05,0.72h-0.78c-0.07-0.17-0.08-0.45-0.08-0.85v-0.05c0-0.42-0.1-0.61-0.71-0.61H247.6z M247.6,227.56h0.69
			c0.45,0,0.62-0.17,0.62-0.49c0-0.31-0.2-0.48-0.6-0.48h-0.71V227.56z"/>
		<path d="M251.15,228.85l-0.3,0.88h-0.8l1.29-3.79h1.03l1.34,3.79h-0.86l-0.31-0.88H251.15z M252.35,228.18
			c-0.27-0.8-0.44-1.31-0.53-1.65h-0.01c-0.09,0.37-0.28,0.97-0.5,1.65H252.35z"/>
		<path d="M254.21,229.73v-3.79h1.01c0.47,0.85,1.35,2.38,1.52,2.8h0.01c-0.04-0.4-0.04-1.05-0.04-1.67v-1.12h0.74v3.79h-0.96
			c-0.41-0.74-1.38-2.5-1.56-2.94h-0.01c0.03,0.33,0.04,1.11,0.04,1.79v1.15H254.21z"/>
		<path d="M258.36,225.94h1.5c1.1,0,1.82,0.73,1.82,1.85c0,1.1-0.7,1.94-1.86,1.94h-1.47V225.94z M259.18,229.07h0.61
			c0.73,0,1.05-0.54,1.05-1.28c0-0.62-0.3-1.19-1.04-1.19h-0.62V229.07z"/>
		<path d="M265,228.09h-1.81v0.96h2l-0.1,0.67h-2.7v-3.79h2.69v0.67h-1.89v0.81H265V228.09z"/>
	</g>
</g>
<g>
	<g>
		<path d="M267.99,225.94h1.57c0.8,0,1.35,0.45,1.35,1.17c0,0.82-0.62,1.2-1.37,1.2h-0.73v1.42h-0.82V225.94z M268.81,227.66h0.62
			c0.38,0,0.65-0.15,0.65-0.53c0-0.39-0.28-0.54-0.63-0.54h-0.64V227.66z"/>
		<path d="M274.18,228.09h-1.81v0.96h2l-0.1,0.67h-2.7v-3.79h2.69v0.67h-1.89v0.81h1.81V228.09z"/>
		<path d="M274.97,229.73v-3.79h1.01c0.47,0.85,1.35,2.38,1.52,2.8h0.01c-0.04-0.4-0.04-1.05-0.04-1.67v-1.12h0.74v3.79h-0.96
			c-0.41-0.74-1.38-2.5-1.56-2.94h-0.01c0.03,0.33,0.04,1.11,0.04,1.79v1.15H274.97z"/>
		<path d="M279.83,228.85l-0.3,0.88h-0.8l1.29-3.79h1.03l1.34,3.79h-0.86l-0.31-0.88H279.83z M281.03,228.18
			c-0.27-0.8-0.44-1.31-0.53-1.65h-0.01c-0.09,0.37-0.28,0.97-0.5,1.65H281.03z"/>
		<path d="M282.89,225.94h0.82v3.12h1.89l-0.09,0.67h-2.61V225.94z"/>
		<path d="M286.93,225.94v3.79h-0.82v-3.79H286.93z"/>
		<path d="M287.83,225.94h1.5c1.1,0,1.82,0.73,1.82,1.85c0,1.1-0.7,1.94-1.86,1.94h-1.47V225.94z M288.65,229.07h0.61
			c0.73,0,1.05-0.54,1.05-1.28c0-0.62-0.3-1.19-1.04-1.19h-0.62V229.07z"/>
		<path d="M292.58,228.85l-0.3,0.88h-0.8l1.29-3.79h1.03l1.34,3.79h-0.86l-0.31-0.88H292.58z M293.78,228.18
			c-0.27-0.8-0.44-1.31-0.53-1.65h-0.01c-0.09,0.37-0.28,0.97-0.5,1.65H293.78z"/>
		<path d="M295.64,225.94h1.5c1.1,0,1.82,0.73,1.82,1.85c0,1.1-0.7,1.94-1.86,1.94h-1.47V225.94z M296.46,229.07h0.61
			c0.73,0,1.05-0.54,1.05-1.28c0-0.62-0.3-1.19-1.04-1.19h-0.62V229.07z"/>
		<path d="M302.29,228.09h-1.81v0.96h2l-0.1,0.67h-2.7v-3.79h2.69v0.67h-1.89v0.81h1.81V228.09z"/>
	</g>
</g>
<g>
	<g>
		<path d="M520.4,49.46h0.82v3.12h1.89l-0.09,0.67h-2.61V49.46z"/>
		<path d="M524.4,49.46v3.79h-0.82v-3.79H524.4z"/>
		<path d="M525.27,53.24v-3.79h1.01c0.47,0.85,1.35,2.38,1.52,2.8h0.01c-0.04-0.4-0.04-1.05-0.04-1.67v-1.12h0.74v3.79h-0.96
			c-0.41-0.74-1.38-2.5-1.56-2.94h-0.01c0.03,0.33,0.04,1.11,0.04,1.79v1.15H525.27z"/>
		<path d="M529.37,49.46h0.82v1.48h1.52v-1.48h0.82v3.79h-0.82V51.6h-1.52v1.64h-0.82V49.46z"/>
	</g>
</g>
<g>
	<g>
		<path d="M533.76,52.37l-0.29,0.88h-0.8l1.29-3.79h1.03l1.34,3.79h-0.86l-0.31-0.88H533.76z M534.97,51.7
			c-0.27-0.8-0.44-1.31-0.53-1.65h-0.01c-0.09,0.37-0.28,0.97-0.5,1.65H534.97z"/>
	</g>
</g>
<g>
	<g>
		<path d="M538.49,49.46h0.82v3.12h1.89l-0.09,0.67h-2.61V49.46z"/>
		<path d="M542.36,52.37l-0.29,0.88h-0.8l1.29-3.79h1.03l1.34,3.79h-0.86l-0.31-0.88H542.36z M543.57,51.7
			c-0.27-0.8-0.44-1.31-0.53-1.65h-0.01c-0.09,0.37-0.28,0.97-0.5,1.65H543.57z"/>
		<path d="M546.13,50.13h-1.15v-0.67h3.12v0.67h-1.15v3.12h-0.82V50.13z"/>
		<path d="M551.15,51.61h-1.81v0.96h2l-0.1,0.67h-2.7v-3.79h2.69v0.67h-1.89v0.81h1.81V51.61z"/>
		<path d="M552.67,51.73v1.52h-0.8v-3.79h1.66c0.83,0,1.27,0.45,1.27,1.04c0,0.51-0.28,0.78-0.55,0.9c0.19,0.07,0.47,0.26,0.47,0.94
			v0.19c0,0.25,0,0.54,0.05,0.72h-0.78c-0.07-0.16-0.08-0.45-0.08-0.85v-0.06c0-0.41-0.11-0.61-0.71-0.61H552.67z M552.67,51.08
			h0.69c0.45,0,0.62-0.17,0.62-0.49c0-0.31-0.2-0.48-0.6-0.48h-0.71V51.08z"/>
		<path d="M556.16,52.37l-0.29,0.88h-0.8l1.29-3.79h1.03l1.34,3.79h-0.86l-0.31-0.88H556.16z M557.36,51.7
			c-0.27-0.8-0.44-1.31-0.53-1.65h-0.01c-0.09,0.37-0.28,0.97-0.5,1.65H557.36z"/>
	</g>
</g>
<g>
	<g>
		<path d="M560.39,49.46h0.82v3.12h1.89L563,53.24h-2.61V49.46z"/>
	</g>
</g>
<g>
	<g>
		<path d="M34.01,118.7v-6.56c-0.41,0.19-1.15,0.34-1.59,0.38v-1.43c0.83-0.15,1.67-0.63,2.18-1.18h1.35v8.78H34.01z"/>
	</g>
</g>
<g>
	<g>
		<path d="M295.73,396.8v-1.97h-3.97v-1.66l3.66-5.14h2.08v5.26h1.06l-0.18,1.54h-0.88v1.97H295.73z M295.73,391.72
			c0-0.95,0-1.48,0.04-2.03c-0.35,0.73-1.49,2.41-2.32,3.59h2.28V391.72z"/>
	</g>
</g>
<g>
	<g>
		<path d="M279.67,51.64v-0.12c0-1.53,0.69-2.77,2.59-4.15c1.24-0.91,1.61-1.22,1.61-1.98c0-0.76-0.37-1.19-1.11-1.19
			c-0.86,0-1.17,0.53-1.29,1.29h-1.84c0.13-1.51,1.12-2.78,3.13-2.78c2.26,0,3.03,1.34,3.03,2.66c0,1.28-0.55,1.9-2.17,3.03
			c-1.08,0.76-1.52,1.26-1.67,1.66h4.16l-0.24,1.59H279.67z"/>
	</g>
</g>
<g>
	<g>
		<path d="M765.33,132.51c0.12-1.08,0.88-2.42,3.08-2.42c2.03,0,2.94,1.15,2.94,2.39c0,1.06-0.61,1.56-1.09,1.78v0.04
			c0.57,0.21,1.43,0.75,1.43,2.12c0,1.27-0.77,2.77-3.29,2.77c-2.35,0-3.15-1.42-3.24-2.58h1.86c0.12,0.6,0.53,1.12,1.44,1.12
			c0.88,0,1.32-0.57,1.32-1.34c0-0.81-0.42-1.3-1.44-1.3h-0.79v-1.47h0.7c0.88,0,1.23-0.29,1.23-1.03c0-0.6-0.36-1.01-1.11-1.01
			c-0.89,0-1.1,0.5-1.2,0.93H765.33z"/>
	</g>
</g>
<g>
	<g>
		<path d="M506.1,375.98c0.09,0.38,0.36,0.55,0.8,0.55s0.62-0.17,0.62-0.45c0-0.31-0.18-0.44-0.83-0.59
			c-1.03-0.24-1.29-0.62-1.29-1.13c0-0.66,0.49-1.11,1.39-1.11c1.01,0,1.41,0.54,1.46,1.09h-0.83c-0.04-0.23-0.17-0.49-0.66-0.49
			c-0.33,0-0.53,0.14-0.53,0.41c0,0.26,0.16,0.37,0.77,0.51c1.1,0.26,1.34,0.67,1.34,1.2c0,0.69-0.52,1.17-1.53,1.17
			c-0.96,0-1.47-0.47-1.56-1.16H506.1z"/>
		<path d="M509.8,373.31v2.26c0,0.73,0.37,0.94,0.78,0.94c0.47,0,0.76-0.25,0.76-0.94v-2.26h0.82v2.22c0,1.29-0.76,1.62-1.59,1.62
			c-0.86,0-1.59-0.34-1.59-1.61v-2.23H509.8z"/>
		<path d="M513.01,373.31h1.65c0.92,0,1.26,0.48,1.26,0.97c0,0.43-0.23,0.7-0.48,0.82c0.26,0.1,0.59,0.37,0.59,0.86
			c0,0.65-0.51,1.13-1.31,1.13h-1.71V373.31z M514.57,374.8c0.39,0,0.55-0.17,0.55-0.44c0-0.28-0.21-0.42-0.53-0.42h-0.78v0.86
			H514.57z M513.82,376.46h0.74c0.44,0,0.64-0.19,0.64-0.53c0-0.31-0.2-0.5-0.65-0.5h-0.73V376.46z"/>
		<path d="M517.27,375.98c0.09,0.38,0.36,0.55,0.8,0.55c0.44,0,0.62-0.17,0.62-0.45c0-0.31-0.18-0.44-0.83-0.59
			c-1.03-0.24-1.29-0.62-1.29-1.13c0-0.66,0.49-1.11,1.39-1.11c1.01,0,1.41,0.54,1.46,1.09h-0.82c-0.04-0.23-0.17-0.49-0.66-0.49
			c-0.33,0-0.53,0.14-0.53,0.41c0,0.26,0.16,0.37,0.77,0.51c1.1,0.26,1.34,0.67,1.34,1.2c0,0.69-0.52,1.17-1.52,1.17
			c-0.96,0-1.47-0.47-1.56-1.16H517.27z"/>
		<path d="M520.96,373.98h-1.15v-0.67h3.12v0.67h-1.15v3.12h-0.82V373.98z"/>
		<path d="M524.25,373.31v3.79h-0.82v-3.79H524.25z"/>
		<path d="M525.91,373.98h-1.15v-0.67h3.12v0.67h-1.15v3.12h-0.82V373.98z"/>
		<path d="M529.15,373.31v2.26c0,0.73,0.37,0.94,0.78,0.94c0.47,0,0.76-0.25,0.76-0.94v-2.26h0.82v2.22c0,1.29-0.76,1.62-1.59,1.62
			c-0.86,0-1.59-0.34-1.59-1.61v-2.23H529.15z"/>
		<path d="M533.17,373.31v3.79h-0.82v-3.79H533.17z"/>
	</g>
</g>
<g>
	<g>
		<path d="M537.75,375.92c-0.15,0.71-0.69,1.23-1.64,1.23c-1.21,0-1.78-0.85-1.78-1.94c0-1.04,0.59-1.98,1.82-1.98
			c1.01,0,1.5,0.6,1.6,1.23h-0.82c-0.08-0.29-0.28-0.59-0.8-0.59c-0.68,0-0.94,0.61-0.94,1.3c0,0.64,0.23,1.32,0.96,1.32
			c0.54,0,0.71-0.36,0.78-0.58H537.75z M536.5,377.09l-0.23,0.25c0.19,0.05,0.48,0.16,0.48,0.52c0,0.48-0.45,0.58-0.79,0.58
			c-0.17,0-0.33-0.02-0.41-0.06v-0.42c0.07,0.02,0.25,0.03,0.3,0.03c0.19,0,0.24-0.04,0.24-0.14c0-0.16-0.24-0.18-0.47-0.19v-0.19
			l0.38-0.45L536.5,377.09z"/>
		<path d="M539.16,376.21l-0.3,0.88h-0.81l1.29-3.81h1.04l1.35,3.81h-0.87l-0.31-0.88H539.16z M538.88,372.92v-0.19
			c0-0.45,0.21-0.59,0.53-0.59c0.37,0,0.66,0.25,0.84,0.25c0.08,0,0.14-0.04,0.14-0.19v-0.05h0.5v0.14c0,0.52-0.21,0.67-0.55,0.67
			c-0.3,0-0.64-0.25-0.82-0.25c-0.08,0-0.13,0.04-0.13,0.13v0.08H538.88z M540.38,375.54c-0.27-0.8-0.44-1.32-0.54-1.66h0
			c-0.1,0.38-0.29,0.97-0.5,1.66H540.38z"/>
	</g>
</g>
<g>
	<g>
		<path d="M545.97,375.19c0,1.05-0.63,1.96-1.86,1.96c-1.19,0-1.81-0.86-1.81-1.95c0-1.1,0.69-1.95,1.86-1.95
			C545.27,373.25,545.97,374.03,545.97,375.19z M543.15,375.18c0,0.74,0.32,1.3,1,1.3c0.73,0,0.99-0.61,0.99-1.28
			c0-0.72-0.29-1.28-1-1.28C543.44,373.92,543.15,374.45,543.15,375.18z"/>
	</g>
</g>
<g>
	<g>
		<path d="M107.98,139.43c0-0.69,0-1.3-0.01-1.87h1.87c0.03,0.15,0.05,0.84,0.05,1.21c0.3-0.79,1.04-1.37,2.21-1.37v1.82
			c-1.39-0.04-2.21,0.34-2.21,2.23v3.01h-1.91V139.43z"/>
	</g>
</g>
</svg>
