<?xml version="1.0" encoding="UTF-8"?><svg id="a" xmlns="http://www.w3.org/2000/svg" viewBox="0 0 48.78 54.92"><polygon points="48.78 25.05 48.78 27.14 48.63 28.95 48.35 30.73 47.94 32.5 47.4 34.23 46.74 35.92 45.95 37.55 45.04 39.12 44.01 40.61 42.88 42.03 41.65 43.36 40.32 44.59 38.91 45.72 37.41 46.74 35.84 47.65 34.21 48.44 32.53 49.11 30.8 49.65 29.03 50.06 27.24 50.34 25.43 50.48 23.34 50.48 21.54 50.34 19.75 50.06 17.98 49.65 16.25 49.11 14.57 48.44 12.94 47.65 11.37 46.74 9.87 45.72 8.46 44.59 7.13 43.36 5.9 42.03 4.77 40.61 3.74 39.12 2.83 37.55 2.04 35.92 1.38 34.23 .83 32.5 .42 30.73 .15 28.95 0 27.14 0 25.05 .15 23.24 .42 21.45 .83 19.69 1.38 17.96 2.04 16.27 2.83 14.64 3.74 13.07 4.77 11.58 5.9 10.16 7.13 8.83 8.46 7.6 9.87 6.47 11.37 5.45 12.94 4.54 14.57 3.75 16.25 3.08 17.98 2.54 19.75 2.13 21.54 1.85 23.34 1.7 24.39 1.68 25.43 1.7 27.24 1.85 29.03 2.13 30.8 2.54 32.53 3.08 34.21 3.75 35.84 4.54 37.41 5.45 38.91 6.47 40.32 7.6 41.65 8.83 42.88 10.16 44.01 11.58 45.04 13.07 45.95 14.64 46.74 16.27 47.4 17.96 47.94 19.69 48.35 21.45 48.63 23.24 48.78 25.05" fill="#231f20"/><g><g><path d="M4.23,26.76v-.19l.24-.24c.58-.55,.85-.85,.85-1.19,0-.23-.11-.45-.45-.45-.21,0-.38,.1-.48,.19l-.1-.22c.16-.13,.38-.23,.65-.23,.49,0,.7,.34,.7,.66,0,.42-.31,.76-.79,1.23l-.18,.17h1.02v.26h-1.46Z" fill="#fff"/><path d="M7.91,25.59c0,.78-.29,1.2-.79,1.2-.45,0-.75-.42-.75-1.17,0-.76,.33-1.19,.79-1.19s.75,.43,.75,1.15Zm-1.24,.04c0,.59,.18,.93,.46,.93,.32,0,.47-.37,.47-.95s-.14-.93-.46-.93c-.27,0-.47,.33-.47,.95Z" fill="#fff"/></g><g><path d="M41.16,26.76v-.19l.24-.24c.58-.55,.85-.85,.85-1.19,0-.23-.11-.45-.45-.45-.21,0-.38,.1-.48,.19l-.1-.22c.16-.13,.38-.23,.65-.23,.49,0,.7,.34,.7,.66,0,.42-.31,.76-.79,1.23l-.18,.17h1.02v.26h-1.46Z" fill="#fff"/><path d="M44.72,24.74h-.87l-.09,.59c.05,0,.1-.01,.19-.01,.18,0,.35,.04,.49,.12,.18,.1,.33,.3,.33,.59,0,.45-.35,.78-.85,.78-.25,0-.46-.07-.57-.14l.08-.24c.09,.06,.28,.13,.49,.13,.29,0,.54-.19,.54-.5,0-.29-.2-.51-.66-.51-.13,0-.23,.01-.32,.02l.15-1.1h1.09v.26Z" fill="#fff"/></g><g><path d="M11.37,14.34c.5,.36,.8,.67,.9,.92,.18,.46-.05,1.14-.69,2.02-.29,.4-.54,.69-.75,.86-.35,.27-.7,.36-1.05,.26-.17-.05-.44-.2-.78-.45-.08-.06-.2-.15-.36-.27-.16-.12-.27-.21-.35-.27-.23-.16-.58-.4-1.05-.71-.47-.31-.82-.54-1.05-.71-.05-.03-.06-.07-.03-.11,.09-.12,.22-.3,.41-.54,.19-.24,.32-.42,.41-.54,.04-.05,.08-.06,.12-.03,.26,.19,.65,.48,1.15,.87,.51,.39,.89,.68,1.15,.87,.31,.22,.54,.34,.7,.36,.21,.02,.42-.11,.61-.39,.29-.4,.24-.75-.15-1.03-.29-.21-.72-.51-1.3-.91-.58-.4-1.02-.7-1.3-.91-.06-.04-.07-.09-.04-.14,.08-.12,.21-.29,.36-.54,.16-.24,.28-.42,.36-.54,.04-.06,.09-.07,.13-.03,.23,.16,.56,.42,1.01,.77,.44,.35,.78,.61,1.01,.77,.06,.04,.16,.11,.29,.2,.13,.09,.22,.16,.29,.2Z" fill="#fff"/><path d="M17.16,10.45c.23,.38,.31,.77,.22,1.17-.1,.45-.48,.89-1.17,1.31-.05,.03-.13,.08-.23,.13-.1,.06-.17,.11-.22,.13-.77,.47-1.23,.73-1.4,.79-.07,.03-.12,.01-.15-.04-.14-.22-.33-.57-.58-1.03-.25-.47-.44-.81-.58-1.04-.15-.24-.44-.69-.87-1.34-.11-.17-.28-.42-.5-.75l-.03-.04s0-.08,.05-.13c.06-.05,.3-.2,.71-.45,.66-.4,1.05-.64,1.17-.7,.52-.29,.95-.44,1.28-.44,.44,0,.81,.24,1.09,.7,.07,.12,.12,.28,.13,.46,0,.13,0,.27-.03,.42-.02,.13-.04,.19-.04,.19,0,.01,.05,.02,.12,.02,.2,0,.39,.06,.58,.19,.17,.12,.32,.27,.43,.45Zm-2.41-.94c-.11-.18-.27-.24-.48-.19-.12,.03-.29,.11-.52,.25-.22,.14-.33,.22-.31,.26,.02,.04,.06,.1,.1,.19,.04,.08,.08,.15,.1,.19,.13,.21,.22,.31,.27,.32,.03,0,.17-.07,.41-.21,.45-.27,.59-.54,.44-.79Zm1.16,1.68c-.11-.19-.27-.27-.47-.24-.13,.02-.3,.1-.52,.23-.27,.16-.41,.26-.42,.3-.01,.03,.06,.17,.2,.4,.15,.24,.25,.37,.29,.38,.04,0,.2-.07,.47-.24,.23-.14,.37-.25,.44-.34,.11-.15,.12-.32,0-.5Z" fill="#fff"/><path d="M23.72,8.77c.09,.61,.08,1.04-.03,1.29-.21,.45-.85,.75-1.93,.92-.49,.07-.87,.09-1.14,.06-.44-.06-.74-.25-.92-.57-.09-.16-.16-.45-.23-.87-.01-.1-.03-.25-.06-.44-.02-.2-.04-.34-.05-.44-.04-.28-.12-.7-.23-1.25-.11-.55-.19-.97-.23-1.25,0-.06,.01-.09,.06-.1,.15-.02,.37-.05,.67-.08,.3-.03,.52-.06,.67-.08,.06,0,.09,.01,.1,.07,.05,.32,.11,.8,.18,1.43,.07,.64,.14,1.11,.18,1.43,.06,.38,.13,.63,.23,.75,.13,.16,.37,.22,.7,.17,.49-.07,.7-.35,.63-.83-.05-.35-.14-.87-.26-1.57-.12-.69-.21-1.22-.26-1.57-.01-.07,.01-.12,.07-.13,.14-.02,.36-.06,.64-.11,.28-.06,.5-.09,.64-.11,.07-.01,.11,.01,.12,.07,.04,.28,.09,.7,.15,1.26,.06,.56,.11,.98,.16,1.26,.01,.08,.03,.19,.06,.35,.03,.16,.04,.27,.06,.35Z" fill="#fff"/><path d="M32.02,7.1c-.08,.27-.2,.67-.37,1.19-.17,.53-.3,.93-.37,1.2l-.65,2.32c-.02,.06-.06,.09-.13,.07-.06-.02-.14-.04-.26-.06-.11-.03-.2-.05-.26-.07-.06-.02-.15-.05-.27-.09-.12-.04-.21-.07-.27-.09-.04-.01-.08-.06-.12-.16-.1-.28-.34-.89-.71-1.83-.1-.26-.26-.65-.47-1.17,0-.02-.02-.04-.04-.06-.02,.01-.04,.03-.05,.07-.08,.27-.18,.68-.32,1.23-.14,.55-.24,.96-.32,1.23-.02,.08-.07,.11-.13,.1l-1.22-.34c-.07-.02-.09-.06-.07-.14,.07-.25,.19-.63,.36-1.13,.17-.5,.29-.88,.36-1.14,.08-.27,.18-.68,.3-1.22,.13-.54,.23-.95,.31-1.21,.01-.05,.07-.06,.16-.04,.13,.04,.31,.08,.51,.11,.05,0,.14,.02,.29,.03,.12,.01,.22,.03,.29,.05,.03,0,.06,.06,.1,.16l.81,2.16c.07,.19,.18,.48,.33,.86,.04,.09,.08,.14,.12,.15,.03,0,.07-.08,.12-.26,.07-.25,.16-.62,.27-1.12,.11-.5,.2-.88,.27-1.13,.02-.09,.06-.12,.11-.11,.14,.04,.35,.09,.64,.16s.5,.12,.64,.16c.04,.01,.06,.05,.04,.13Z" fill="#fff"/><path d="M37.54,11.89s-.07,.04-.11,.01c-.07-.06-.35-.29-.84-.71-.39,.48-.65,.82-.8,1.01-.17,.23-.43,.58-.76,1.05-.33,.47-.59,.82-.76,1.05-.03,.04-.05,.05-.08,.05,0,0-.04-.02-.09-.05-.13-.07-.3-.2-.53-.37-.25-.19-.42-.33-.51-.42-.05-.05-.05-.1-.01-.15,.17-.23,.45-.56,.81-1,.37-.44,.64-.77,.82-1,.12-.15,.36-.49,.75-1.03-.42-.26-.74-.47-.97-.65-.03-.02-.04-.05-.02-.06,.02-.03,.09-.09,.21-.19,.13-.11,.21-.18,.24-.21,.07-.09,.15-.17,.23-.26,.12-.13,.2-.19,.24-.16l.04,.03c.28,.28,.73,.65,1.34,1.12,.17,.13,.51,.36,1,.68,.27,.17,.4,.26,.4,.26,.04,.03,.06,.05,.06,.06,0,0,0,.03-.03,.07-.04,.05-.1,.12-.17,.21-.08,.1-.14,.17-.17,.21-.04,.05-.08,.12-.14,.23-.06,.1-.11,.18-.14,.22Z" fill="#fff"/><path d="M40.03,19.02c-.53,.32-.93,.48-1.2,.47-.5-.02-1.03-.49-1.59-1.42-.26-.42-.42-.76-.5-1.03-.12-.42-.06-.78,.17-1.07,.11-.14,.35-.32,.72-.55,.08-.05,.21-.13,.39-.22s.3-.17,.38-.22c.24-.15,.6-.38,1.06-.7,.47-.32,.82-.55,1.06-.7,.05-.03,.09-.02,.12,.02,.08,.13,.19,.32,.33,.58,.15,.26,.26,.46,.34,.58,.03,.05,.02,.09-.02,.12-.27,.17-.69,.41-1.25,.73-.56,.32-.97,.56-1.25,.73-.33,.2-.52,.37-.6,.51-.1,.19-.06,.43,.12,.72,.26,.43,.6,.51,1.01,.26,.3-.18,.75-.47,1.34-.85,.59-.38,1.04-.67,1.34-.85,.06-.04,.11-.03,.14,.02,.08,.12,.19,.3,.35,.54,.16,.24,.28,.42,.36,.54,.04,.06,.03,.11-.02,.14-.24,.15-.61,.36-1.1,.63-.49,.27-.86,.49-1.1,.63-.07,.04-.17,.1-.3,.19-.13,.08-.23,.15-.3,.19Z" fill="#fff"/></g><g><path d="M9.73,38.44c-.25,.19-.44,.3-.58,.31-.25,.02-.55-.19-.9-.63-.16-.2-.26-.36-.31-.49-.08-.21-.08-.39,.02-.55,.05-.08,.16-.19,.33-.32,.04-.03,.1-.08,.18-.14,.08-.06,.14-.11,.18-.14,.11-.09,.28-.23,.5-.42,.22-.19,.38-.33,.5-.42,.02-.02,.04-.02,.06,0,.05,.06,.12,.15,.21,.28s.16,.22,.21,.28c.02,.02,.02,.04,0,.06-.13,.1-.33,.25-.59,.44-.27,.19-.46,.34-.59,.44-.15,.12-.25,.22-.27,.29-.04,.1,0,.22,.1,.36,.16,.2,.33,.23,.53,.07,.14-.11,.35-.28,.63-.51,.28-.23,.49-.4,.63-.51,.03-.02,.05-.02,.07,0,.05,.06,.12,.14,.21,.26,.1,.11,.17,.2,.21,.26,.02,.03,.02,.05,0,.07-.11,.09-.29,.22-.52,.39-.24,.17-.41,.3-.52,.39-.03,.02-.08,.06-.14,.11-.06,.05-.11,.09-.14,.11Z" fill="#fff"/><path d="M13.2,39.47c-.1,.11-.24,.26-.45,.46-.2,.2-.35,.36-.45,.46l-.83,.91s-.05,.02-.07,0c-.02-.02-.06-.05-.1-.09-.05-.04-.08-.07-.1-.09-.02-.02-.06-.06-.1-.1-.04-.05-.08-.08-.1-.1-.02-.02-.02-.05-.02-.1,.01-.15,.05-.48,.09-1,.01-.14,.03-.36,.06-.64,0,0,0-.02,0-.04-.01,0-.03,0-.04,.02-.1,.11-.24,.27-.43,.49-.19,.22-.33,.38-.43,.49-.03,.03-.06,.04-.08,.01l-.48-.44s-.03-.05,0-.08c.09-.1,.23-.25,.43-.44,.19-.19,.34-.34,.43-.44,.1-.11,.24-.27,.42-.49,.18-.22,.32-.38,.42-.49,.02-.02,.05-.01,.08,.02,.05,.05,.12,.11,.21,.17,.02,.01,.06,.04,.12,.08,.05,.03,.09,.06,.12,.09,.01,0,.01,.04,0,.09l-.13,1.18c-.01,.11-.03,.26-.05,.47,0,.05,0,.08,.02,.1,.01,.01,.05-.02,.12-.09,.09-.1,.22-.25,.38-.45,.17-.2,.29-.35,.38-.45,.03-.03,.06-.04,.08-.02,.05,.05,.14,.12,.26,.22,.12,.1,.2,.17,.26,.22,.02,.02,.01,.04-.01,.07Z" fill="#fff"/><path d="M13.57,41.16c-.09,.12-.21,.3-.37,.55-.16,.25-.29,.43-.37,.55-.01,.02-.03,.03-.04,.03,0,0-.02,0-.04-.02-.07-.04-.16-.1-.27-.18-.15-.1-.24-.18-.28-.21-.03-.03-.03-.05-.01-.08-.01,.02,.06-.07,.2-.26,.31-.4,.51-.66,.6-.79,.08-.11,.19-.27,.34-.5,.15-.22,.26-.39,.34-.5,.02-.02,.04-.03,.06,0,.03,.02,.08,.06,.14,.11,.06,.05,.11,.08,.14,.11,.03,.02,.08,.05,.14,.09,.06,.04,.11,.07,.14,.09,.03,.02,.04,.04,.02,.07-.08,.11-.2,.27-.36,.48-.17,.21-.29,.37-.36,.48Z" fill="#fff"/><path d="M15.65,43.91s-.03,.03-.06,.02c-.04,0-.14-.06-.31-.15-.16-.08-.26-.14-.3-.18-.03-.03-.04-.07-.03-.11,.05-.18,.06-.28,.05-.3-.01-.02-.16-.1-.43-.25-.19-.1-.29-.15-.31-.15-.03,0-.08,.05-.16,.14-.07,.08-.12,.12-.16,.11-.04-.01-.17-.07-.38-.19-.17-.09-.24-.15-.23-.18,.01-.03,.33-.31,.94-.85,.66-.58,1.03-.9,1.09-.96,.04-.03,.06-.05,.08-.04,.03,.02,.07,.04,.13,.08,.06,.04,.1,.07,.13,.08,.03,.02,.07,.04,.13,.07,.06,.03,.1,.05,.13,.06,.02,.01,.03,.04,.03,.08,0,.14-.07,.62-.17,1.44-.11,.82-.17,1.25-.19,1.27Zm-.35-2.13s-.15,.12-.29,.25c-.15,.14-.24,.22-.25,.25-.01,.02,.02,.05,.08,.09,.03,.02,.09,.05,.17,.09,.07,.04,.12,.05,.13,.04,0,0,.01-.01,.02-.02,.02-.04,.05-.15,.09-.34,.04-.18,.05-.3,.06-.36Zm1.19-.84c-.22,.08-.41,.08-.56,0-.04-.02-.08-.08-.12-.16-.04-.08-.08-.13-.12-.16-.04-.02-.09-.02-.15,0-.06,.01-.1,.02-.11,.01-.02-.03-.05-.09-.08-.18-.03-.1-.04-.16-.03-.18,.04-.04,.12-.06,.26-.07s.23,0,.28,.03c.05,.03,.1,.08,.15,.16,.05,.08,.1,.13,.15,.16,.04,.02,.09,.03,.17,.02,.07-.01,.12-.01,.13,0s.03,.07,.05,.18c.02,.11,.02,.17,.01,.19h-.01Z" fill="#fff"/><path d="M19.22,43.86c-.13,.37-.35,.64-.67,.8-.33,.17-.67,.19-1.04,.07-.36-.12-.62-.36-.78-.69-.15-.33-.16-.68-.04-1.04,.13-.37,.35-.64,.67-.81,.33-.17,.68-.2,1.04-.07,.36,.12,.62,.35,.77,.7,.15,.33,.16,.68,.04,1.05Zm-.67-.23c.06-.18,.06-.34,0-.51-.07-.17-.19-.28-.36-.34-.17-.06-.33-.04-.49,.06-.16,.09-.26,.22-.32,.39-.06,.18-.06,.35,0,.5,.07,.17,.19,.28,.37,.34,.17,.06,.33,.04,.49-.05,.15-.09,.26-.22,.32-.39Z" fill="#fff"/><path d="M23.46,44.45c-.04,.36-.18,.67-.44,.92-.23,.22-.53,.32-.91,.29-.07,0-.27-.02-.59-.05-.06,0-.15-.02-.27-.03-.12-.02-.21-.03-.27-.03-.04,0-.05-.02-.05-.05,.01-.14,.04-.34,.07-.61,.04-.27,.06-.48,.07-.61,.01-.14,.03-.36,.04-.64,.02-.29,.03-.5,.04-.64,0-.03,.02-.04,.06-.04,.09,0,.23,0,.44,.03,.38,.04,.63,.06,.74,.09,.29,.06,.51,.15,.67,.29,.15,.13,.25,.29,.33,.5,.07,.2,.09,.4,.08,.6Zm-.71-.07c.02-.21-.03-.39-.14-.53-.11-.15-.27-.24-.48-.25-.19-.02-.29,0-.29,.05,0,.07-.02,.18-.04,.33s-.03,.26-.03,.33c0,.07-.02,.18-.03,.32-.01,.15-.02,.25-.03,.33,0,.05,.09,.09,.29,.11,.21,.02,.39-.03,.53-.17,.13-.12,.2-.3,.22-.52Z" fill="#fff"/><path d="M26.03,45.08c0,.05,0,.15-.02,.3-.01,.16-.03,.25-.04,.28-.01,.03-.03,.04-.06,.04-.01,0-.03,0-.06,0-.09,0-.36,0-.8,.03-.1,0-.24,.01-.43,.02-.19,0-.33,.02-.43,.02-.04,0-.06-.01-.06-.05,0-.14-.01-.35-.01-.63,0-.28,0-.49-.01-.63,0-.14-.03-.41-.07-.79,0-.1-.02-.25-.05-.45v-.03s0-.04,.04-.05c.09,0,.23,0,.42-.02,.19,0,.32,0,.42-.02,.09,0,.23-.01,.41-.03s.32-.03,.41-.03c.06,0,.1,.02,.12,.07,0,.03,.02,.12,.04,.26,.02,.14,.03,.23,.03,.26,0,.03,0,.04-.04,.04h-.04c-.33,0-.63,0-.89,0-.07,0-.11,.02-.12,.05,0,.02,0,.06,0,.14,0,.08,.02,.14,.05,.17,.02,.02,.06,.03,.12,.03,.01,0,.04,0,.07,0s.07,0,.09,0c.16,0,.32-.02,.48-.04,.01,0,.05,0,.1-.02,.04,0,.08-.01,.1-.01,.03,0,.05,.01,.05,.04,0-.03,0,.07-.02,.29,0,.1,0,.2,0,.3,0,.02-.02,.04-.05,.04h-.17c-.07-.01-.23,0-.49,0h-.2c-.05,.01-.08,.03-.09,.05,0,0,0,.04,0,.12,0,.09,.01,.15,.03,.18,.02,.05,.1,.07,.24,.07,0,0,.09,0,.27-.02,.07,0,.16-.01,.29-.04,.13-.02,.23-.03,.29-.03,.03,0,.04,.02,.04,.07Z" fill="#fff"/><path d="M27.88,44.48c.04,.25-.02,.48-.2,.7-.16,.19-.36,.33-.62,.42h-.02s-.11-.06-.23-.22c-.13-.16-.2-.25-.2-.29,0-.01,0-.02,.02-.03,.17-.07,.28-.13,.33-.17,.12-.09,.16-.19,.14-.32-.01-.08-.07-.16-.17-.25-.17-.14-.27-.22-.28-.24-.11-.11-.17-.25-.2-.4-.04-.22,.03-.43,.21-.62,.15-.15,.34-.27,.58-.35,.01,0,.02,0,.03,0,.02,0,.04,0,.05,.04,.05,.08,.15,.23,.31,.45,0,0,0,.01,0,.02,0,.02,0,.03-.03,.04,0,0-.03,0-.05,0-.02,0-.04,0-.05,0-.09,.02-.16,.05-.22,.1-.07,.06-.1,.13-.09,.22,.01,.08,.07,.16,.18,.25,.19,.17,.29,.26,.3,.27,.11,.12,.18,.25,.2,.38Z" fill="#fff"/><path d="M30.49,42.95c.09,.29,.09,.54,0,.77-.1,.24-.3,.4-.58,.49-.05,.01-.12,.03-.22,.06s-.17,.04-.22,.06c-.05,.02-.07,.04-.06,.09,.02,.05,.05,.13,.09,.24,.04,.1,.07,.18,.09,.24,0,.03,0,.04-.03,.05-.07,.02-.18,.06-.33,.1-.15,.04-.26,.07-.33,.1-.03,.01-.06,0-.07-.04-.04-.13-.1-.33-.18-.6-.08-.27-.14-.46-.18-.6-.12-.37-.25-.76-.42-1.16v-.02s0-.04,.03-.06c.09-.04,.29-.11,.61-.21,.19-.06,.37-.11,.54-.16,.29-.08,.54-.06,.77,.05,.23,.12,.39,.32,.48,.6Zm-.7,.25c-.09-.28-.27-.37-.54-.29-.19,.06-.29,.1-.29,.13,0,.02,.04,.16,.12,.42,.01,.04,.03,.09,.06,.16,.03,.07,.04,.12,.05,.16,0,.02,.12,0,.33-.06,.26-.08,.35-.25,.27-.51Z" fill="#fff"/><path d="M33.45,41.88c.17,.35,.21,.7,.1,1.04-.11,.35-.33,.61-.68,.79-.34,.17-.69,.19-1.04,.07-.34-.12-.6-.36-.77-.71-.17-.35-.21-.7-.1-1.04,.11-.35,.33-.62,.68-.79,.34-.17,.69-.19,1.04-.06,.34,.13,.6,.36,.77,.71Zm-.64,.31c-.08-.17-.21-.28-.37-.35-.17-.07-.33-.06-.5,.02-.16,.08-.26,.21-.31,.39-.04,.17-.03,.34,.05,.5,.09,.17,.21,.29,.36,.35,.16,.07,.33,.06,.5-.02,.16-.08,.26-.21,.31-.39,.05-.17,.03-.34-.05-.5Z" fill="#fff"/><path d="M36.54,41.28s0,.02-.02,.04c-.03,.03-.13,.11-.28,.22-.13,.09-.23,.16-.28,.18-.02,.01-.04,.02-.04,.02,0,0-.02,0-.04-.01-.04-.03-.11-.07-.19-.13-.11-.07-.28-.18-.51-.31-.05-.03-.1-.02-.17,.03,.03-.02-.02,.02-.15,.12-.01,.01,0,.04,.03,.09,.05,.07,.13,.17,.24,.29,.11,.13,.19,.23,.24,.29,.01,.02,.02,.03,0,.04-.01,.01-.03,.02-.04,.03-.06,.05-.15,.12-.27,.21-.14,.1-.23,.16-.27,.18-.03,.01-.06,0-.08-.02-.08-.11-.2-.28-.35-.51-.15-.23-.27-.41-.35-.52-.31-.43-.56-.76-.75-.98l-.02-.02s0-.04,.02-.07c.03-.03,.18-.15,.45-.35,.18-.14,.33-.25,.44-.33,.23-.17,.46-.25,.68-.25,.25,0,.45,.11,.61,.33,.11,.15,.17,.28,.19,.4,.02,.12,0,.26-.05,.43-.01,.03-.01,.06,0,.07,0,0,.15,.08,.46,.25,.31,.17,.47,.26,.49,.29Zm-1.62-.9c-.09-.12-.19-.18-.31-.17-.09,0-.2,.06-.33,.16-.1,.07-.14,.12-.12,.16,.02,.04,.09,.14,.21,.3,.02,.02,.04,.06,.08,.1,.03,.04,.06,.08,.07,.1,0,0,.02,0,.06-.02,.07-.04,.14-.08,.2-.13,.22-.16,.27-.33,.14-.5Z" fill="#fff"/><path d="M36.99,38.07s.02,.04,0,.05c-.03,.03-.18,.16-.43,.37,.21,.23,.36,.4,.45,.49,.1,.11,.26,.26,.47,.47,.21,.21,.37,.36,.47,.47,.02,.02,.02,.03,.02,.04,0,0-.01,.02-.03,.04-.05,.06-.12,.14-.23,.24-.12,.11-.2,.19-.25,.22-.03,.02-.06,.02-.08,0-.1-.11-.25-.27-.44-.49-.19-.22-.34-.39-.44-.49-.07-.07-.22-.22-.46-.46-.16,.19-.3,.34-.41,.44-.01,.01-.03,.02-.03,0-.01-.01-.04-.05-.08-.12-.05-.08-.07-.12-.09-.14-.04-.04-.08-.09-.11-.14-.06-.07-.08-.12-.06-.13l.02-.02c.16-.12,.39-.32,.67-.59,.08-.08,.22-.23,.42-.46,.11-.12,.16-.18,.17-.18,.02-.02,.03-.03,.03-.03,0,0,.02,0,.03,.02,.02,.02,.05,.06,.09,.1,.04,.05,.08,.08,.09,.1,.02,.02,.06,.05,.1,.09,.05,.04,.08,.07,.1,.09Z" fill="#fff"/><path d="M38.26,37.6c.11,.09,.28,.24,.51,.42,.23,.19,.4,.33,.51,.42,.02,.02,.03,.03,.03,.04,0,0,0,.02-.03,.04-.04,.07-.11,.15-.2,.26-.12,.14-.2,.22-.24,.25-.03,.02-.05,.02-.08,0,.01,.01-.07-.06-.24-.23-.37-.34-.62-.57-.74-.67-.1-.09-.26-.21-.46-.38-.21-.17-.37-.29-.47-.38-.02-.02-.02-.04,0-.06,.03-.03,.07-.07,.12-.13s.09-.1,.12-.13c.03-.03,.06-.07,.11-.13,.05-.06,.08-.11,.11-.13,.02-.03,.05-.03,.07-.01,.1,.09,.25,.22,.44,.41,.2,.18,.34,.32,.44,.41Z" fill="#fff"/><path d="M40.46,36.96c-.09,.14-.15,.22-.17,.24-.02,.02-.04,.02-.08,.02-.31-.04-.62-.08-.94-.11-.5-.06-.78-.11-.83-.15-.08-.05-.2-.14-.36-.25s-.28-.2-.36-.26c-.04-.03-.05-.05-.04-.07,.04-.06,.11-.15,.2-.28,.09-.12,.16-.22,.2-.28,.02-.03,.04-.03,.06-.02,.08,.06,.21,.15,.37,.27,.16,.12,.28,.21,.37,.27,.06,.04,.36,.09,.9,.14-.06-.12-.15-.27-.25-.45-.14-.23-.23-.36-.27-.4-.08-.05-.19-.12-.34-.22-.15-.1-.27-.17-.34-.23-.03-.02-.04-.03-.04-.04l.03-.05c.04-.06,.09-.14,.16-.26,.07-.12,.13-.21,.17-.26,.02-.03,.04-.04,.07-.02,.08,.05,.2,.14,.36,.25,.16,.11,.28,.19,.36,.25,.06,.04,.23,.3,.5,.78,.09,.18,.24,.44,.43,.79,.02,.03,.02,.04,.02,.05,0,0,0,.02-.02,.04-.03,.06-.08,.14-.16,.25Z" fill="#fff"/><path d="M42.5,33.02s.03,.03,.02,.06c0,.04-.05,.15-.13,.32-.08,.16-.13,.26-.16,.31-.03,.03-.06,.05-.11,.04-.18-.04-.28-.05-.3-.03-.02,.02-.09,.17-.22,.45-.09,.19-.13,.3-.13,.31,0,.03,.06,.08,.15,.15,.08,.07,.12,.12,.12,.15,0,.04-.06,.17-.17,.39-.08,.17-.14,.25-.17,.24-.03-.01-.33-.31-.91-.89-.62-.62-.96-.97-1.03-1.03-.04-.03-.05-.06-.04-.08,.01-.03,.04-.08,.08-.14,.04-.06,.06-.11,.08-.14,.01-.03,.03-.08,.06-.14,.02-.06,.04-.11,.06-.14,0-.02,.04-.03,.08-.03,.15,0,.63,.03,1.45,.08,.83,.06,1.25,.09,1.28,.1Zm-2.1,.49s.13,.14,.27,.27c.15,.14,.24,.22,.27,.24,.02,0,.05-.02,.08-.09,.02-.04,.05-.09,.08-.17,.04-.07,.04-.12,.03-.14,0,0-.01-.01-.02-.01-.04-.02-.15-.04-.35-.07-.19-.03-.31-.04-.36-.03Z" fill="#fff"/></g><g><path d="M48.63,23.24l-.28-1.79-.41-1.77-.54-1.73-.67-1.69-.79-1.63-.91-1.57-1.02-1.49-1.13-1.42-1.23-1.33-1.33-1.23-1.42-1.13-1.5-1.02-1.57-.91-1.63-.79-1.68-.67-1.73-.54-1.77-.41-1.79-.28-1.81-.15-1.04-.02-1.05,.02-1.81,.15-1.79,.28-1.76,.41-1.73,.54-1.69,.67-1.63,.79-1.57,.91-1.49,1.02-1.42,1.13-1.33,1.23-1.23,1.33-1.13,1.42-1.02,1.49-.91,1.57-.79,1.63-.67,1.69-.54,1.73-.41,1.77-.28,1.79-.15,1.81v2.09l.15,1.81,.28,1.79,.41,1.77,.54,1.73,.67,1.69,.79,1.63,.91,1.57,1.02,1.49,1.13,1.42,1.23,1.33,1.33,1.23,1.42,1.13,1.49,1.02,1.57,.91,1.63,.79,1.69,.67,1.73,.54,1.76,.41,1.79,.28,1.81,.14h2.09l1.81-.14,1.79-.28,1.77-.41,1.73-.54,1.68-.67,1.63-.79,1.57-.91,1.5-1.02,1.42-1.13,1.33-1.23,1.23-1.33,1.13-1.42,1.02-1.49,.91-1.57,.79-1.63,.67-1.69,.54-1.73,.41-1.77,.28-1.79,.14-1.81v-2.09l-.14-1.81Zm-.92,4.64l-.2,1.78-.34,1.76-.47,1.73-.61,1.69-.73,1.64-.85,1.57-.97,1.5-1.09,1.43-1.19,1.34-1.29,1.24-1.38,1.14-1.47,1.03-1.54,.92-1.61,.79-1.66,.67-1.71,.54-1.75,.41-1.77,.27-1.79,.14h-1.79l-1.79-.14-1.77-.27-1.74-.41-1.71-.54-1.66-.67-1.61-.79-1.54-.92-1.47-1.03-1.38-1.14-1.29-1.24-1.19-1.34-1.09-1.43-.97-1.5-.85-1.57-.73-1.64-.61-1.69-.48-1.73-.34-1.76-.21-1.78-.07-1.79,.07-1.79,.21-1.78,.34-1.76,.48-1.73,.61-1.69,.73-1.64,.85-1.57,.97-1.5,1.09-1.43,1.19-1.34,1.29-1.24,1.38-1.14,1.47-1.03,1.54-.92,1.61-.79,1.66-.67,1.71-.54,1.74-.41,1.77-.27,1.79-.14h1.79l1.79,.14,1.77,.27,1.75,.41,1.71,.54,1.66,.67,1.61,.79,1.54,.92,1.47,1.03,1.38,1.14,1.29,1.24,1.19,1.34,1.09,1.43,.97,1.5,.85,1.57,.73,1.64,.61,1.69,.47,1.73,.34,1.76,.2,1.78,.07,1.79-.07,1.79Z" fill="#fff" fill-rule="evenodd"/><path d="M47.21,24.3l-.21-1.78-.35-1.76-.49-1.73-.62-1.69-.75-1.63-.88-1.57-1-1.49-1.11-1.41-1.22-1.32-1.32-1.22-1.41-1.11-1.49-1-1.57-.88-1.63-.75-1.69-.62-1.73-.49-1.76-.35-1.79-.21-1.79-.07-1.8,.07-1.78,.21-1.76,.35-1.73,.49-1.69,.62-1.63,.75-1.57,.88-1.49,1-1.41,1.11-1.32,1.22-1.22,1.32-1.11,1.41-1,1.49-.88,1.57-.75,1.63-.62,1.69-.49,1.73-.35,1.76-.21,1.78-.07,1.8,.07,1.79,.21,1.79,.35,1.76,.49,1.73,.62,1.69,.75,1.63,.88,1.57,1,1.49,1.11,1.41,1.22,1.32,1.32,1.22,1.41,1.11,1.49,1,1.57,.88,1.63,.75,1.69,.62,1.73,.49,1.76,.35,1.78,.21,1.8,.07,1.79-.07,1.79-.21,1.76-.35,1.73-.49,1.69-.62,1.63-.75,1.57-.88,1.49-1,1.41-1.11,1.32-1.22,1.22-1.32,1.11-1.41,1-1.49,.88-1.57,.75-1.63,.62-1.69,.49-1.73,.35-1.76,.21-1.79,.07-1.79-.07-1.8Zm-1,3.56l-.21,1.75-.35,1.73-.49,1.69-.63,1.65-.75,1.59-.88,1.53-1,1.45-1.12,1.36-1.22,1.27-1.32,1.17-1.41,1.06-1.49,.94-1.56,.82-1.62,.69-1.67,.56-1.71,.42-1.74,.28-1.76,.14h-1.76l-1.76-.14-1.74-.28-1.71-.42-1.67-.56-1.62-.69-1.56-.82-1.49-.94-1.41-1.06-1.32-1.17-1.22-1.27-1.12-1.36-1-1.45-.88-1.53-.76-1.59-.62-1.65-.49-1.69-.35-1.73-.21-1.75-.07-1.76,.07-1.76,.21-1.75,.35-1.73,.49-1.69,.62-1.65,.76-1.59,.88-1.53,1-1.45,1.12-1.37,1.22-1.27,1.32-1.17,1.41-1.06,1.49-.94,1.56-.82,1.62-.69,1.67-.56,1.71-.42,1.74-.28,1.76-.14h1.76l1.76,.14,1.74,.28,1.71,.42,1.67,.56,1.62,.69,1.56,.82,1.49,.94,1.41,1.06,1.32,1.17,1.22,1.27,1.12,1.37,1,1.45,.88,1.53,.75,1.59,.63,1.65,.49,1.69,.35,1.73,.21,1.75,.07,1.76-.07,1.76Z" fill="#fff" fill-rule="evenodd"/><path d="M47.71,24.3l-.2-1.78-.34-1.76-.47-1.73-.61-1.69-.73-1.64-.85-1.57-.97-1.5-1.09-1.43-1.19-1.34-1.29-1.24-1.38-1.14-1.47-1.03-1.54-.92-1.61-.79-1.66-.67-1.71-.54-1.75-.41-1.77-.27-1.79-.14h-1.79l-1.79,.14-1.77,.27-1.74,.41-1.71,.54-1.66,.67-1.61,.79-1.54,.92-1.47,1.03-1.38,1.14-1.29,1.24-1.19,1.34-1.09,1.43-.97,1.5-.85,1.57-.73,1.64-.61,1.69-.48,1.73-.34,1.76-.21,1.78-.07,1.79,.07,1.79,.21,1.78,.34,1.76,.48,1.73,.61,1.69,.73,1.64,.85,1.57,.97,1.5,1.09,1.43,1.19,1.34,1.29,1.24,1.38,1.14,1.47,1.03,1.54,.92,1.61,.79,1.66,.67,1.71,.54,1.74,.41,1.77,.27,1.79,.14h1.79l1.79-.14,1.77-.27,1.75-.41,1.71-.54,1.66-.67,1.61-.79,1.54-.92,1.47-1.03,1.38-1.14,1.29-1.24,1.19-1.34,1.09-1.43,.97-1.5,.85-1.57,.73-1.64,.61-1.69,.47-1.73,.34-1.76,.2-1.78,.07-1.79-.07-1.79Zm-.5,3.59l-.21,1.79-.35,1.76-.49,1.73-.62,1.69-.75,1.63-.88,1.57-1,1.49-1.11,1.41-1.22,1.32-1.32,1.22-1.41,1.11-1.49,1-1.57,.88-1.63,.75-1.69,.62-1.73,.49-1.76,.35-1.79,.21-1.79,.07-1.8-.07-1.78-.21-1.76-.35-1.73-.49-1.69-.62-1.63-.75-1.57-.88-1.49-1-1.41-1.11-1.32-1.22-1.22-1.32-1.11-1.41-1-1.49-.88-1.57-.75-1.63-.62-1.69-.49-1.73-.35-1.76-.21-1.79-.07-1.79,.07-1.8,.21-1.78,.35-1.76,.49-1.73,.62-1.69,.75-1.63,.88-1.57,1-1.49,1.11-1.41,1.22-1.32,1.32-1.22,1.41-1.11,1.49-1,1.57-.88,1.63-.75,1.69-.62,1.73-.49,1.76-.35,1.78-.21,1.8-.07,1.79,.07,1.79,.21,1.76,.35,1.73,.49,1.69,.62,1.63,.75,1.57,.88,1.49,1,1.41,1.11,1.32,1.22,1.22,1.32,1.11,1.41,1,1.49,.88,1.57,.75,1.63,.62,1.69,.49,1.73,.35,1.76,.21,1.78,.07,1.8-.07,1.79Z" fill="#df2127" fill-rule="evenodd"/></g><polygon points="15.85 14.57 16.15 14.39 16.79 14.47 16.99 13.84 17.25 13.69 16.93 14.65 15.85 14.57 15.85 14.57" fill="#fff" fill-rule="evenodd"/><polygon points="17.91 13.25 18.08 13.2 17.28 15.24 15.3 14.99 15.44 14.78 17.2 15.04 17.91 13.25 17.91 13.25" fill="#fff" fill-rule="evenodd"/><polygon points="14.95 15.15 18.43 16.07 18.52 12.86 18.8 12.78 18.66 16.28 14.78 15.39 14.95 15.15 14.95 15.15" fill="#fff" fill-rule="evenodd"/><polygon points="19.9 12.41 20.2 12.35 22.04 14.07 23.34 11.77 23.7 11.72 22.1 14.46 19.9 12.41 19.9 12.41" fill="#fff" fill-rule="evenodd"/><polygon points="20.56 12.25 20.8 12.19 21.96 13.15 22.94 11.76 23.2 11.76 21.98 13.39 20.56 12.25 20.56 12.25" fill="#fff" fill-rule="evenodd"/><polygon points="21.17 12.07 21.31 12.07 21.88 12.53 22.3 11.85 22.5 11.85 21.91 12.72 21.17 12.07 21.17 12.07" fill="#fff" fill-rule="evenodd"/><polygon points="24.4 11.74 24.67 11.76 25.91 13.8 27.51 12.11 27.84 12.15 25.83 14.16 24.4 11.74 24.4 11.74" fill="#fff" fill-rule="evenodd"/><polygon points="25.04 11.75 25.32 11.73 25.94 12.72 26.9 11.92 27.27 12.03 25.87 13.05 25.04 11.75 25.04 11.75" fill="#fff" fill-rule="evenodd"/><polygon points="27.89 12.19 28.07 12.25 28.88 14.37 30.96 13.37 31.3 13.53 28.77 14.75 27.89 12.19 27.89 12.19" fill="#fff" fill-rule="evenodd"/><polygon points="28.5 12.31 28.67 12.36 29.21 13.48 30.42 13.06 30.64 13.21 29.13 13.72 28.5 12.31 28.5 12.31" fill="#fff" fill-rule="evenodd"/><polygon points="31.39 13.56 31.53 13.6 31.53 15.59 33.64 15.08 33.78 15.22 31.3 15.99 31.39 13.56 31.39 13.56" fill="#fff" fill-rule="evenodd"/><polygon points="31.98 13.89 32.16 13.95 32.16 14.73 33.1 14.62 33.31 14.82 32.03 14.96 31.98 13.89 31.98 13.89" fill="#fff" fill-rule="evenodd"/><polygon points="33.98 15.38 34.12 15.52 33.52 18.79 36.86 18.91 37.08 19.17 33.09 19.1 33.98 15.38 33.98 15.38" fill="#fff" fill-rule="evenodd"/><polygon points="34.42 15.82 34.51 15.89 34.32 18.04 36.62 18.42 36.72 18.71 34.08 18.21 34.42 15.82 34.42 15.82" fill="#fff" fill-rule="evenodd"/><polygon points="34.89 16.29 35.02 16.37 35.02 17.46 36.07 17.65 36.24 17.92 34.77 17.59 34.89 16.29 34.89 16.29" fill="#fff" fill-rule="evenodd"/><polygon points="37.12 19.33 37.19 19.51 35.54 22.47 38.67 23.95 38.7 24.15 35.31 22.55 37.12 19.33 37.12 19.33" fill="#fff" fill-rule="evenodd"/><polygon points="37.42 19.85 37.49 20 36.62 22.25 38.55 23.38 38.71 23.79 36.23 22.32 37.42 19.85 37.42 19.85" fill="#fff" fill-rule="evenodd"/><polygon points="37.75 20.68 37.86 20.98 37.49 22.01 38.42 22.44 38.49 22.87 37.1 22.06 37.75 20.68 37.75 20.68" fill="#fff" fill-rule="evenodd"/><polygon points="38.72 24.28 38.76 24.55 36.2 26.5 38.63 28.93 38.54 29.37 35.79 26.41 38.72 24.28 38.72 24.28" fill="#fff" fill-rule="evenodd"/><polygon points="38.79 24.82 38.74 24.91 36.98 26.53 38.68 28.38 38.68 28.67 36.68 26.52 38.79 24.82 38.79 24.82" fill="#fff" fill-rule="evenodd"/><polygon points="37.63 26.45 38.71 25.17 38.83 25.27 37.94 26.42 38.85 27.49 38.79 27.88 37.63 26.45 37.63 26.45" fill="#fff" fill-rule="evenodd"/><polygon points="38.46 29.5 38.42 29.77 35.64 30.81 36.82 33.73 36.65 33.9 35.28 30.61 38.46 29.5 38.46 29.5" fill="#fff" fill-rule="evenodd"/><polygon points="36.46 30.95 38.24 30.26 38.24 30.52 36.75 31.1 37.13 33.07 36.99 33.39 36.46 30.95 36.46 30.95" fill="#fff" fill-rule="evenodd"/><polygon points="38.03 31.03 38.1 31.24 37.35 31.46 37.45 32.36 37.32 32.67 37.13 31.3 38.03 31.03 38.03 31.03" fill="#fff" fill-rule="evenodd"/><polygon points="32.23 34.1 36.57 33.97 36.51 34.16 32.44 34.37 32.5 38.17 32.36 38.31 32.23 34.1 32.23 34.1" fill="#fff" fill-rule="evenodd"/><polygon points="32.82 34.71 36.12 34.59 36.06 34.82 32.88 35.01 32.82 34.71 32.82 34.71" fill="#fff" fill-rule="evenodd"/><polygon points="33.1 35.24 35.53 35.37 35.47 35.5 34.6 35.62 33.36 35.47 32.91 37.83 32.71 38.04 33.1 35.24 33.1 35.24" fill="#fff" fill-rule="evenodd"/><polygon points="35.06 35.96 35 36.11 33.73 36.2 33.6 37.4 33.33 37.67 33.63 35.88 33.95 36 35.06 35.96 35.06 35.96" fill="#fff" fill-rule="evenodd"/><polygon points="29.46 37 32.21 38.29 32.21 38.44 29.6 37.32 29.02 40 28.74 40.07 29.46 37 29.46 37" fill="#fff" fill-rule="evenodd"/><polygon points="31.93 38.63 31.77 38.73 31.33 38.48 30.25 38.26 30.02 38.6 29.59 39.77 29.28 39.86 29.61 39.25 30.12 38.07 31.23 38.3 31.93 38.63 31.93 38.63" fill="#fff" fill-rule="evenodd"/><polygon points="31.32 38.94 31.23 39.02 30.63 38.87 30.44 39.47 29.99 39.57 30.61 38.68 31.32 38.94 31.32 38.94" fill="#fff" fill-rule="evenodd"/><polygon points="28.56 40.07 28.35 40.18 27 39.23 25.9 38.3 25.11 39.45 24.44 40.72 24.1 40.77 25.89 37.99 27.15 39.05 28.56 40.07 28.56 40.07" fill="#fff" fill-rule="evenodd"/><polygon points="27.88 40.24 27.75 40.34 27.05 40.03 26.24 39.51 24.95 40.72 24.67 40.72 25.45 40.01 26.29 39.26 27.88 40.24 27.88 40.24" fill="#fff" fill-rule="evenodd"/><polygon points="27.27 40.43 27.01 40.46 26.07 40.05 25.63 40.66 25.34 40.61 26.18 39.77 27.27 40.43 27.27 40.43" fill="#fff" fill-rule="evenodd"/><polygon points="24.18 40.63 24 40.77 23.18 39.75 22.32 38.53 21.28 39.15 20.15 40.07 19.8 39.98 22.41 38.23 24.18 40.63 24.18 40.63" fill="#fff" fill-rule="evenodd"/><polygon points="23.45 40.65 23.37 40.72 22.93 40.39 22.12 39.46 21.18 39.83 20.71 40.2 20.39 40.15 20.98 39.74 22.18 39.27 22.79 39.88 23.45 40.65 23.45 40.65" fill="#fff" fill-rule="evenodd"/><polygon points="21.07 40.33 21.6 40.18 22.07 39.9 22.74 40.57 22.47 40.57 22.06 40.11 21.5 40.47 21.07 40.33 21.07 40.33" fill="#fff" fill-rule="evenodd"/><polygon points="19.64 39.85 19.44 39.82 19.22 38.41 19.03 37.17 17.44 37.84 16.28 38.23 16.07 38.07 17.58 37.59 19.15 36.92 19.53 38.71 19.64 39.85 19.64 39.85" fill="#fff" fill-rule="evenodd"/><polygon points="18.93 39.62 18.84 39.58 18.77 38.94 18.49 38.08 17.71 38.21 16.59 38.52 16.39 38.32 17.28 38.18 18.59 37.82 18.93 38.88 18.93 39.62 18.93 39.62" fill="#fff" fill-rule="evenodd"/><polygon points="18.46 39.45 18.44 39.42 18.31 39.38 18.08 38.77 17.4 38.92 17.17 38.79 18.31 38.61 18.46 39.45 18.46 39.45" fill="#fff" fill-rule="evenodd"/><polygon points="12.08 33.89 14.48 34.23 16.5 34.36 16.26 38.12 16.25 38.21 16.25 38.3 16.05 38.19 16.2 37.07 16.28 34.68 15.57 34.48 13.14 34.15 12.29 34.23 12.08 33.89 12.08 33.89" fill="#fff" fill-rule="evenodd"/><polygon points="15.73 37.91 15.57 37.74 15.15 35.48 13.81 35.07 12.79 34.9 12.6 34.64 12.98 34.64 15.26 35.28 15.73 37.02 15.73 37.91 15.73 37.91" fill="#fff" fill-rule="evenodd"/><polygon points="15.18 37.37 14.99 37.3 14.89 36.22 13.83 36.22 13.55 35.84 15.07 36 15.18 37.37 15.18 37.37" fill="#fff" fill-rule="evenodd"/><polygon points="14.83 35.6 13.26 35.5 13.26 35.33 14.59 35.41 14.83 35.6 14.83 35.6" fill="#fff" fill-rule="evenodd"/><polygon points="12.34 34.15 12.17 34.03 13.2 30.74 12.65 30.57 10.28 29.44 10.28 29.18 13 30.45 13.5 30.53 12.34 34.15 12.34 34.15" fill="#fff" fill-rule="evenodd"/><polygon points="11.93 33.52 11.77 33.4 12.05 32.28 12.21 31.15 10.52 30.31 10.42 29.93 11.64 30.62 12.51 31.11 11.93 33.52 11.93 33.52" fill="#fff" fill-rule="evenodd"/><polygon points="10.71 30.76 11.17 31.01 12.02 31.2 11.54 32.75 11.44 32.65 11.79 31.36 10.76 31.04 10.71 30.76 10.71 30.76" fill="#fff" fill-rule="evenodd"/><polygon points="10.28 29.33 10.19 29.12 12.48 26.64 11.4 25.4 10.08 23.85 10.22 23.52 11.84 25.47 12.75 26.75 10.28 29.33 10.28 29.33" fill="#fff" fill-rule="evenodd"/><polygon points="10.13 28.69 10.09 28.43 10.82 27.6 11.6 26.48 10.02 24.6 10.11 24.18 11.81 26.53 11.58 26.83 10.13 28.69 10.13 28.69" fill="#fff" fill-rule="evenodd"/><polygon points="9.98 27.84 9.98 27.57 10.78 26.55 10.65 26.28 9.97 25.46 9.93 24.99 11.07 26.44 10.82 26.83 9.98 27.84 9.98 27.84" fill="#fff" fill-rule="evenodd"/><polygon points="10.06 24.11 10.07 23.75 10.93 23.43 13.29 22.53 12.75 21.26 11.68 19.27 11.9 18.86 13.58 22.55 13.25 22.76 10.06 24.11 10.06 24.11" fill="#fff" fill-rule="evenodd"/><polygon points="10.19 23.43 10.23 23.18 11.69 22.53 12.13 21.95 11.48 19.92 11.59 19.43 12.68 22.23 12.04 22.64 10.19 23.43 10.19 23.43" fill="#fff" fill-rule="evenodd"/><polygon points="10.27 22.78 10.33 22.61 11.44 21.71 11.06 20.25 11.35 19.96 11.69 21.93 10.27 22.78 10.27 22.78" fill="#fff" fill-rule="evenodd"/><polygon points="11.94 18.81 12.05 18.6 14.29 18.14 14.25 15.84 14.47 15.69 14.53 18.32 11.94 18.81 11.94 18.81" fill="#fff" fill-rule="evenodd"/><polygon points="12.25 18.21 12.42 17.99 13.88 17.5 13.72 16.42 13.97 16.17 14.17 17.68 12.25 18.21 12.25 18.21" fill="#fff" fill-rule="evenodd"/><path d="M39.03,25.26l-.09-.93-.15-.93-.21-.92-.27-.9-.32-.88-.38-.86-.44-.83-.49-.8-.54-.77-.59-.74-.63-.7-.67-.65-.72-.61-.75-.56-.79-.51-.82-.46-.85-.41-.87-.35-.89-.29-.91-.24-.92-.18-.93-.12-.94-.06h-.94l-.94,.06-.93,.12-.92,.18-.91,.24-.89,.29-.87,.35-.85,.41-.82,.46-.79,.51-.75,.56-.72,.61-.68,.65-.63,.7-.59,.74-.54,.77-.49,.8-.44,.83-.38,.86-.33,.88-.27,.9-.21,.92-.15,.93-.09,.93-.03,.94,.03,.94,.09,.94,.15,.93,.21,.92,.27,.9,.33,.88,.38,.86,.44,.84,.49,.8,.54,.77,.59,.74,.63,.7,.68,.66,.72,.61,.75,.56,.79,.52,.82,.46,.85,.41,.87,.35,.89,.3,.91,.24,.92,.18,.93,.12,.94,.06h.94l.94-.06,.93-.12,.92-.18,.91-.24,.89-.3,.87-.35,.85-.41,.82-.46,.79-.52,.75-.56,.72-.61,.67-.66,.63-.7,.59-.74,.54-.77,.49-.8,.44-.84,.38-.86,.32-.88,.27-.9,.21-.92,.15-.93,.09-.94,.03-.94-.03-.94Zm-.76,4.58l-.14,.45-.09,.29-.04,.13-.13,.35-.09,.25-.1,.26-.27,.61-.1,.23-.03,.05-.2,.39-.15,.29-.04,.08-.16,.27-.15,.24-.13,.21-.04,.07-.1,.14-.29,.42-.14,.2-.03,.04-.43,.54-.12,.15-.02,.02-.4,.44-.15,.16-.06,.06-.66,.64-.42,.36-.25,.21-.04,.03-.41,.31-.2,.15-.12,.09-.1,.07-.15,.1-.2,.13-.14,.09-.18,.12-.1,.05-.16,.09-.44,.25-.11,.06-.06,.03-.44,.21-.33,.16-.06,.02-.47,.19-.29,.11-.04,.02-.28,.09-.28,.09-.32,.1h-.04l-.28,.08-.41,.11-.16,.04-.11,.02-.42,.08-.29,.06-.09,.02-.91,.12h-.01l-.32,.02-.29,.02-.3,.02h-1.03l-.49-.04-.26-.02h-.06l-.41-.06-.28-.03-.23-.03-.35-.07-.35-.07-.21-.04-.36-.1-.27-.07-.26-.07h-.02l-.31-.11-.35-.12-.2-.07h-.01l-.49-.2-.11-.05-.24-.1-.15-.07-.2-.1-.48-.23-.11-.06-.21-.12-.48-.27-.06-.04-.24-.16-.17-.11-.2-.13-.03-.02-.06-.04-.09-.07-.36-.27-.21-.15-.08-.06-.28-.24-.2-.17-.22-.19-.63-.61-.03-.03-.29-.32-.32-.35h0l-.14-.18-.32-.4-.12-.15-.1-.15-.3-.43-.11-.16v-.02l-.08-.12-.06-.09-.27-.44-.08-.14-.05-.08-.27-.51-.08-.16-.03-.07-.37-.84-.19-.51-.1-.28-.03-.08-.1-.34-.11-.38-.05-.16-.08-.34-.06-.27v-.02l-.06-.23v-.04l-.07-.38-.04-.25-.05-.28-.03-.36-.02-.25-.03-.31-.03-.92,.02-.64v-.28l.02-.11,.04-.46,.03-.35,.02-.11,.03-.2v-.05l.06-.33v-.09l.03-.13,.02-.09,.06-.25,.11-.46,.02-.1,.04-.12,.22-.76,.32-.86,.08-.18,.22-.49,.07-.17,.03-.05,.18-.34,.09-.18,.13-.25,.09-.14,.14-.23,.13-.22,.12-.19,.16-.23,.17-.24,.2-.28,.57-.72,.29-.32,.25-.27,.08-.09,.18-.17,.22-.22,.26-.25,.18-.15,.25-.21,.24-.2,.03-.03,.22-.16,.32-.24,.2-.15,.05-.03,.72-.47h.02l.26-.16,.52-.29,.1-.05,.17-.08,.49-.24,.06-.03,.21-.08,.64-.26,.6-.2,.27-.09h0l.37-.1,.24-.06,.28-.07,.1-.02,.13-.03,.67-.13h.1l.21-.04,.4-.05,.2-.03h.07l.19-.02,.33-.02,.32-.02h.92l.26,.02,.31,.02,.35,.02,.91,.12h.07l.39,.09,.3,.06,.14,.03,.16,.04,.18,.05,.19,.05,.37,.1,.09,.03,.18,.06,.6,.2,.85,.35,.07,.03,.27,.13,.33,.16,.15,.07,.18,.1,.17,.1,.15,.08,.3,.17,.15,.1,.17,.11,.45,.29,.29,.22,.27,.2,.19,.14,.16,.14,.16,.14,.29,.25,.09,.07,.06,.06,.31,.29,.1,.09,.2,.2,.18,.2,.14,.15,.31,.34,.57,.72h0l.19,.28,.33,.48v.02l.19,.31,.14,.22,.15,.24v.02l.16,.28,.08,.15,.19,.37,.02,.04,.08,.18,.27,.61h0l.11,.32,.2,.56,.2,.67,.06,.22,.05,.22,.12,.55,.03,.13,.03,.22,.04,.22,.03,.2,.04,.25v.02l.03,.26,.03,.28v.06l.03,.22v.1l.02,.13,.02,.79-.03,.92-.02,.19-.04,.41-.03,.31-.04,.24-.04,.25-.05,.28-.02,.14-.07,.29-.07,.31-.06,.28v.02Z" fill="#fff" fill-rule="evenodd"/><path d="M17.4,20.68l-1.99-1.82-2.89,.49,1.51,2.21,2.23,1.13,1.63-.54-.49-1.48Zm-3.25,.76l-1.34-1.96,2.55-.44,1.9,1.73,.42,1.28-1.4,.47-2.13-1.08Z" fill="#fff" fill-rule="evenodd"/><path d="M21.52,15.02l-2.09-1.19-.2,3.53,.85,1.68,1.56,.63,.66-1.84-.78-2.82Zm.04,4.47l-1.37-.56-.82-1.6,.18-3.27,1.85,1.05,.76,2.72-.6,1.66Z" fill="#fff" fill-rule="evenodd"/><path d="M27.52,13.02l-1.31,1.61-.78,3.67,.67,1.19,.67-.22,1.55-4.19-.81-2.06Zm-.87,6.12l-.47,.15-.57-1.02,.75-3.57,1.1-1.36,.68,1.74-1.5,4.05Z" fill="#fff" fill-rule="evenodd"/><path d="M28.32,15.86l-1.13,3.28,1.08-.35,2.6-2.6v-1.79l-2.54,1.46Zm2.38,.27l-2.52,2.52-.75,.24,1.01-2.93,2.26-1.29v1.46Z" fill="#fff" fill-rule="evenodd"/><path d="M34.86,23.38l-2.31,.95-.95,1.46,1.54,.84,2.56-.65,1.72-1.61-2.55-.99Zm.75,2.45l-2.45,.62-1.32-.72,.83-1.26,2.2-.91,2.24,.87-1.49,1.4Z" fill="#fff" fill-rule="evenodd"/><path d="M34.7,30.93l-2.32-.98-2.24,.88,2.5,2.51,3.06,.07-.99-2.48Zm-4.22-.03l1.9-.74,2.17,.92,.85,2.13-2.69-.06-2.24-2.25Z" fill="#fff" fill-rule="evenodd"/><path d="M27.95,34.27l-1.6-.53-.48,1.45,.41,2.48,1.84,1.42,.75-2.15-.93-2.67Zm.09,4.56l-1.61-1.25-.4-2.38,.42-1.26,1.36,.45,.88,2.55-.66,1.88Z" fill="#fff" fill-rule="evenodd"/><path d="M21.77,33.65l-1.25,.92-.94,2,.39,2.67,1.9-1.49,.84-2.46-.94-1.64Zm-.05,4l-1.62,1.27-.34-2.32,.9-1.91,1.06-.78,.8,1.4-.8,2.34Z" fill="#fff" fill-rule="evenodd"/><path d="M15.94,30.66l-1.86,.99-.6,1.92,2.21,.27,2.28-1.52,.15-1.49-2.18-.17Zm1.85,1.55l-2.14,1.43-1.91-.23,.51-1.62,1.73-.93,1.93,.15-.12,1.2Z" fill="#fff" fill-rule="evenodd"/><polygon points="25.58 15.71 24.94 18.24 26.22 20.1 25.45 22.13 24.76 22.09 24.25 22.03 25.12 21.91 25.45 21.75 25.84 20.34 25.77 19.98 24.57 18.46 24.25 18.46 24.17 18.37 24.82 18.08 24.95 17.21 25.16 15.72 24.44 14.46 23.69 12.76 24.04 12.21 25.58 15.71 25.58 15.71" fill="#fff" fill-rule="evenodd"/><polygon points="22.25 20.5 22.52 21.52 22.57 21.8 24.58 22.4 24.62 22.07 24.76 22.09 24.66 22.54 22.5 21.86 22.03 20.14 21.97 19.36 22.51 17.83 22.09 15.18 22.51 14.56 22.51 16.67 22.64 17.58 22.82 17.76 23.45 17.76 23.07 18.01 22.82 18.01 22.09 19.33 22.25 20.5 22.25 20.5" fill="#fff" fill-rule="evenodd"/><polygon points="23.88 19.83 25.01 20.63 24.99 21.22 24.22 21.58 24.41 20.76 23.74 20.58 23.24 20.48 23.06 20.81 22.64 20.51 22.36 20.91 22.29 20.68 22.63 20.35 22.39 20.35 22.39 20.26 23 20.26 24.16 20.26 23.78 19.88 23.88 19.83 23.88 19.83" fill="#fff" fill-rule="evenodd"/><polygon points="24.95 17.21 24.82 18.08 24.17 18.37 24.25 18.46 24.57 18.46 25.77 19.98 25.84 20.34 25.45 21.75 25.12 21.91 24.25 22.03 23.85 21.98 23.95 21.72 24.99 21.22 25.01 20.63 23.88 19.83 23.78 19.88 24.16 20.26 23 20.26 22.39 20.26 22.39 20.35 22.63 20.35 22.29 20.68 22.25 20.5 22.09 19.33 22.82 18.01 23.07 18.01 23.45 17.76 22.82 17.76 22.64 17.58 22.51 16.67 22.51 14.56 23.69 12.76 24.44 14.46 25.16 15.72 24.95 17.21 24.95 17.21" fill="#816a6a" fill-rule="evenodd"/><polygon points="24.05 22.25 23.43 22.06 23.74 20.58 24.41 20.76 24.22 21.58 23.95 21.72 23.85 21.98 24.25 22.03 24.62 22.07 24.58 22.4 24.05 22.25 24.05 22.25" fill="#816a6a" fill-rule="evenodd"/><polygon points="23.43 22.06 22.73 21.85 23.06 20.81 23.24 20.48 23.74 20.58 23.43 22.06 23.43 22.06" fill="#816a6a" fill-rule="evenodd"/><polygon points="23.06 20.81 22.73 21.85 22.57 21.8 22.52 21.52 22.36 20.91 22.64 20.51 23.06 20.81 23.06 20.81" fill="#816a6a" fill-rule="evenodd"/><polygon points="24.31 21.22 24.76 21.27 24.76 21.33 24.22 21.58 24.31 21.22 24.31 21.22" fill="#816a6a" fill-rule="evenodd"/><polygon points="22.78 21.87 22.73 21.85 23.06 20.81 23.24 20.48 23.28 20.49 23.14 20.77 22.78 21.87 22.78 21.87" fill="#fff" fill-rule="evenodd"/><polygon points="23.43 22.06 23.74 20.58 23.79 20.59 23.48 22.08 23.43 22.06 23.43 22.06" fill="#fff" fill-rule="evenodd"/><polygon points="24.05 22.25 24.11 22.01 24.17 22.02 24.1 22.26 24.05 22.25 24.05 22.25" fill="#fff" fill-rule="evenodd"/><polygon points="24.22 21.58 24.41 20.76 24.45 20.76 24.26 21.57 24.22 21.58 24.22 21.58" fill="#fff" fill-rule="evenodd"/><polygon points="24.33 22.02 24.26 22.03 23.85 21.98 23.95 21.72 24.99 21.22 25 21.25 23.96 21.74 23.89 21.95 24.33 22.02 24.33 22.02" fill="#fff" fill-rule="evenodd"/><polygon points="32.63 16.61 33.07 16.51 32.27 19.73 29.62 21.45 29.59 22.63 27.77 23.82 27.24 23.39 26.57 22.76 26.8 22.61 27.93 22.82 28.3 22.35 28.32 22.39 27.94 22.87 26.8 22.64 26.62 22.77 26.96 23.11 27.43 23.45 27.88 23.58 28.17 23.46 29.34 22.58 29.46 22.47 29.46 21.61 29.58 21.16 29.15 21.04 29.22 20.98 29.8 21.11 30.79 20.4 32.14 19.65 32.54 18.07 32.63 16.61 32.63 16.61" fill="#fff" fill-rule="evenodd"/><polygon points="31.16 16.95 29.46 18.22 28.64 19.17 29.01 19.92 28.87 20.06 28.28 19.34 26.71 19.77 25.65 21.85 26.88 23.56 27.18 23.34 27.24 23.39 26.89 23.69 25.54 21.88 26.18 20.21 26.59 19.54 28.24 19.15 30.3 17.15 31.16 16.95 31.16 16.95" fill="#fff" fill-rule="evenodd"/><polygon points="26.18 20.81 26.64 20.68 26.51 20.48 27.71 21.17 27.71 20.64 27.99 21.17 28.32 22.39 28.14 22.56 26.95 21.19 26.61 21.35 26.45 20.86 26.09 20.98 26.18 20.81 26.18 20.81" fill="#fff" fill-rule="evenodd"/><polygon points="27.71 20.64 27.71 21.17 26.51 20.48 26.64 20.68 26.18 20.81 26.71 19.77 28.28 19.34 28.87 20.06 29.01 19.92 28.64 19.17 29.46 18.22 31.16 16.95 32.63 16.61 32.54 18.07 32.14 19.65 30.79 20.4 29.8 21.11 29.22 20.98 29.15 21.04 29.58 21.16 29.46 21.61 29.46 22.47 29.34 22.58 28.17 23.46 27.88 23.58 27.43 23.45 26.96 23.11 26.62 22.77 26.8 22.64 27.94 22.87 28.32 22.39 27.99 21.17 27.71 20.64 27.71 20.64" fill="#816a6a" fill-rule="evenodd"/><polygon points="26.61 21.35 25.75 21.99 25.65 21.85 26.09 20.98 26.45 20.86 26.61 21.35 26.61 21.35" fill="#816a6a" fill-rule="evenodd"/><polygon points="26.61 21.35 26.95 21.19 27.29 21.57 26.18 22.58 25.75 21.99 26.61 21.35 26.61 21.35" fill="#816a6a" fill-rule="evenodd"/><polygon points="26.56 23.1 26.18 22.58 27.29 21.57 27.68 22.03 27.74 22.1 27.1 22.66 26.8 22.61 26.57 22.76 27.18 23.34 26.88 23.56 26.56 23.1 26.56 23.1" fill="#816a6a" fill-rule="evenodd"/><polygon points="27.74 22.1 28.14 22.56 27.93 22.82 27.1 22.66 27.74 22.1 27.74 22.1" fill="#816a6a" fill-rule="evenodd"/><polygon points="16.79 16.49 17.75 16.66 19.87 19.28 22 20.03 22.5 21.86 22.57 22.13 22 22.5 21.19 22.94 21.12 22.67 21.65 21.69 21.34 21.17 21.37 21.13 21.71 21.68 21.15 22.67 21.19 22.83 21.25 22.88 21.77 22.52 22.31 21.99 22.25 21.59 21.76 20.27 20.14 19.6 19.43 20.31 19.24 20.23 19.65 19.29 17.86 17.33 16.79 16.49 16.79 16.49" fill="#fff" fill-rule="evenodd"/><polygon points="15.9 17.55 16.47 18.58 17.69 20.19 17.8 20.19 18.26 20.01 18.2 20.19 17.91 20.47 18.23 21.84 18.89 22.69 19.28 22.86 19.23 22.35 18.99 22.46 18.99 22.34 20.43 21.48 20.58 21.26 19.89 21.22 19.95 21.18 21.37 21.13 21.67 21.66 21.26 22.4 20.93 21.62 19.82 22.09 19.86 22.46 19.35 22.46 19.35 22.99 18.73 22.72 18.14 21.93 17.67 20.37 16.08 18.38 15.9 17.55 15.9 17.55" fill="#fff" fill-rule="evenodd"/><polygon points="16.47 18.58 15.9 17.55 15.62 16.29 16.79 16.49 17.86 17.33 19.65 19.29 19.24 20.23 19.43 20.31 20.14 19.6 21.76 20.27 22.25 21.59 22.31 21.99 21.77 22.52 21.25 22.88 21.19 22.83 21.15 22.67 21.71 21.68 21.37 21.13 19.95 21.18 19.89 21.22 20.58 21.26 20.43 21.48 18.99 22.34 18.99 22.46 19.23 22.35 19.28 22.86 18.89 22.69 18.23 21.84 17.91 20.47 18.2 20.19 18.26 20.01 17.8 20.19 17.69 20.19 16.47 18.58 16.47 18.58" fill="#816a6a" fill-rule="evenodd"/><polygon points="20.29 21.89 20.93 21.62 21.26 22.4 21.12 22.67 21.19 22.94 22 22.5 22.18 22.92 20.24 23.57 19.86 22.46 19.82 22.09 20.29 21.89 20.29 21.89" fill="#816a6a" fill-rule="evenodd"/><polygon points="19.86 22.46 20.16 23.35 19.35 22.99 19.35 22.46 19.86 22.46 19.86 22.46" fill="#816a6a" fill-rule="evenodd"/><polygon points="12.6 23.35 13.76 22.85 16.25 23.64 18.18 22.47 20.16 23.35 20.09 24.03 19.92 24.93 19.65 24.84 19.23 23.76 18.64 23.7 18.63 23.67 19.24 23.73 19.27 23.76 19.66 24.8 19.9 24.88 19.96 24.43 20 23.86 19.96 23.47 18.49 22.79 18.19 22.73 17.78 23.02 16.44 23.76 16.29 24.18 15.96 24.51 16.14 24.06 16.14 23.82 14 23.28 12.6 23.35 12.6 23.35" fill="#fff" fill-rule="evenodd"/><polygon points="11.53 23.8 13.11 26.16 15.19 25.95 15.61 25.81 15.61 25.15 15.7 25.15 15.86 25.99 17.29 26.53 17.15 26.64 15.7 26.04 13.04 26.31 11.07 23.99 11.53 23.8 11.53 23.8" fill="#fff" fill-rule="evenodd"/><polygon points="18.32 26.09 18.23 26 18.33 24.41 18.13 24.61 17.93 24.7 17.54 24.97 17.54 24.83 17.97 24.54 18.63 23.67 19.23 23.76 19.53 24.54 18.73 24.31 18.39 25.46 18.71 25.66 18.39 26.06 18.47 26.12 18.32 26.09 18.32 26.09" fill="#fff" fill-rule="evenodd"/><polygon points="15.61 25.81 15.19 25.95 13.11 26.16 11.53 23.8 12.6 23.35 14 23.28 16.14 23.82 16.14 24.06 15.96 24.51 16.29 24.18 16.44 23.76 17.78 23.02 18.19 22.73 18.49 22.79 19.96 23.47 20 23.86 19.96 24.43 19.9 24.88 19.66 24.8 19.27 23.76 19.24 23.73 18.63 23.67 17.97 24.54 17.54 24.83 17.54 24.97 17.93 24.7 18.13 24.61 18.33 24.41 18.23 26 18.32 26.09 17.91 25.98 17.29 26.53 15.86 25.99 15.7 25.15 15.61 25.15 15.61 25.81 15.61 25.81" fill="#816a6a" fill-rule="evenodd"/><polygon points="19.81 26.08 20.05 25.38 18.54 24.98 18.73 24.31 19.53 24.54 19.65 24.84 19.92 24.93 20.09 24.03 20.53 24.16 19.69 26.43 18.47 26.12 18.39 26.06 18.71 25.66 19.81 26.08 19.81 26.08" fill="#816a6a" fill-rule="evenodd"/><polygon points="18.54 24.98 20.05 25.38 19.81 26.08 18.71 25.66 18.39 25.46 18.54 24.98 18.54 24.98" fill="#816a6a" fill-rule="evenodd"/><polygon points="35.09 21.65 34.48 23.01 32 23.81 31.11 25.89 28.98 26.32 28.64 25.72 28.26 24.89 28.53 24.83 29.5 25.45 30.02 25.15 30.05 25.19 29.51 25.51 28.53 24.86 28.3 24.9 28.37 25.06 28.71 25.68 29.04 26.13 30.3 25.9 30.95 25.67 31.19 25.28 31.72 23.66 32.54 23.31 34.13 22.62 35.09 21.65 35.09 21.65" fill="#fff" fill-rule="evenodd"/><polygon points="34.04 19.82 32.9 20.35 31.28 21.56 31.17 21.74 31.36 22.34 31.17 22.34 30.93 21.82 30.43 21.82 29.61 22.04 29.61 21.87 31.05 21.54 33.03 19.81 34.04 19.82 34.04 19.82" fill="#fff" fill-rule="evenodd"/><polygon points="31.92 23.58 31.72 23.66 31.39 23.37 31.49 23.27 31.92 23.58 31.92 23.58" fill="#fff" fill-rule="evenodd"/><polygon points="30.02 25.15 29.5 25.45 28.79 24.99 29.59 24.71 29.38 24.05 29.2 23.57 28.82 23.59 28.85 23.11 29.59 22.63 29.61 22.04 30.43 21.82 30.93 21.82 31.17 22.34 31.36 22.34 31.17 21.74 31.28 21.56 32.9 20.35 34.04 19.82 35.89 19.9 35.09 21.65 34.13 22.62 32.54 23.31 31.92 23.58 31.49 23.27 31.39 23.37 31.72 23.66 31.19 25.28 30.95 25.67 30.3 25.9 29.04 26.13 28.71 25.68 28.37 25.06 28.3 24.9 28.53 24.86 29.51 25.51 30.05 25.19 30.02 25.15 30.02 25.15" fill="#816a6a" fill-rule="evenodd"/><polygon points="29.38 24.05 29.59 24.71 28.79 24.99 28.53 24.83 28.26 24.89 28.64 25.72 28.21 25.87 27.69 23.89 28.82 23.59 29.2 23.57 29.38 24.05 29.38 24.05" fill="#816a6a" fill-rule="evenodd"/><polygon points="27.69 23.89 28.85 23.08 28.82 23.59 27.69 23.89 27.69 23.89" fill="#816a6a" fill-rule="evenodd"/><polygon points="25.75 21.99 26.68 21.28 26.71 21.32 25.78 22.03 25.75 21.99 25.75 21.99" fill="#fff" fill-rule="evenodd"/><polygon points="26.15 22.54 27.31 21.49 27.35 21.53 26.19 22.58 26.15 22.54 26.15 22.54" fill="#fff" fill-rule="evenodd"/><polygon points="26.53 23.07 26.75 22.92 26.78 22.96 26.56 23.11 26.53 23.07 26.53 23.07" fill="#fff" fill-rule="evenodd"/><polygon points="27.11 22.68 27.08 22.64 27.77 22.05 27.8 22.09 27.11 22.68 27.11 22.68" fill="#fff" fill-rule="evenodd"/><polygon points="27.69 23.89 27.64 23.71 27.77 23.82 28.12 23.59 27.69 23.89 27.69 23.89" fill="#816a6a" fill-rule="evenodd"/><polygon points="28.21 25.87 27.64 23.71 27.75 23.69 28.32 25.85 28.21 25.87 28.21 25.87" fill="#fff" fill-rule="evenodd"/><polygon points="27.78 23.96 27.76 23.89 28.83 23.56 28.85 23.63 27.78 23.96 27.78 23.96" fill="#fff" fill-rule="evenodd"/><polygon points="28.83 23.56 29.2 23.57 29.19 23.65 28.83 23.64 28.83 23.56 28.83 23.56" fill="#fff" fill-rule="evenodd"/><polygon points="27.92 24.53 29.41 24 29.42 24.05 27.94 24.58 27.92 24.53 27.92 24.53" fill="#fff" fill-rule="evenodd"/><polygon points="28.06 25.15 28.37 25.06 28.39 25.13 28.08 25.22 28.06 25.15 28.06 25.15" fill="#fff" fill-rule="evenodd"/><polygon points="28.71 24.95 29.58 24.64 29.61 24.72 28.78 25.01 28.71 24.95 28.71 24.95" fill="#fff" fill-rule="evenodd"/><polygon points="28.94 23.06 29.04 23.46 29.25 23.04 29.93 24.42 29.93 23.72 30.16 23.41 30.09 23.77 30.05 25.19 29.5 25.45 28.79 24.99 29.58 24.74 29.18 23.65 29.16 23.58 28.83 23.56 28.85 23.11 28.94 23.06 28.94 23.06" fill="#fff" fill-rule="evenodd"/><polygon points="19.69 26.43 19.61 26.4 20.46 24.13 20.53 24.16 19.69 26.43 19.69 26.43" fill="#fff" fill-rule="evenodd"/><polygon points="20.53 24.16 20.51 24.22 20.07 24.06 20.09 24 20.53 24.16 20.53 24.16" fill="#fff" fill-rule="evenodd"/><polygon points="19.98 24.63 20.28 24.74 20.25 24.81 19.95 24.7 19.98 24.63 19.98 24.63" fill="#fff" fill-rule="evenodd"/><polygon points="18.6 25.62 19.77 26.06 19.74 26.13 18.57 25.68 18.6 25.62 18.6 25.62" fill="#fff" fill-rule="evenodd"/><polygon points="22.18 22.92 20.13 23.61 20.11 23.55 22.16 22.86 22.18 22.92 22.18 22.92" fill="#fff" fill-rule="evenodd"/><polygon points="22.18 22.92 22.13 22.94 21.97 22.47 22.02 22.45 22.18 22.92 22.18 22.92" fill="#fff" fill-rule="evenodd"/><polygon points="21.43 22.79 21.47 22.77 21.58 23.09 21.53 23.11 21.43 22.79 21.43 22.79" fill="#fff" fill-rule="evenodd"/><polygon points="20.93 23.34 20.27 21.84 20.35 21.8 21.01 23.31 20.93 23.34 20.93 23.34" fill="#fff" fill-rule="evenodd"/><polygon points="20.22 23.52 19.75 22.14 19.82 22.12 20.28 23.49 20.22 23.52 20.22 23.52" fill="#fff" fill-rule="evenodd"/><polygon points="12.42 27.88 13.06 27.25 16.21 27.47 17.91 25.98 20.02 26.52 20.06 27.2 20.05 28.11 19.78 28.05 19.17 27.08 18.58 27.12 18.47 27.07 19.17 26.98 19.8 27.99 20 28.04 19.99 27.9 19.95 26.93 19.89 26.62 19.34 26.48 18.27 26.26 17.89 26.33 16.52 27.54 16.43 27.91 16.17 28.23 16.24 27.95 16.18 27.63 15.34 27.54 13.51 27.54 12.42 27.88 12.42 27.88" fill="#fff" fill-rule="evenodd"/><polygon points="11.24 29.07 11.72 28.58 12.96 29.52 13.58 29.82 15.99 29.72 15.86 29.22 16.07 29.36 16.2 29.76 17.7 30.15 18.94 30.04 19.15 29.83 18.65 29.52 18.46 29.7 18.46 27.81 18.32 28.2 17.98 28.36 17.87 28.54 17.79 28.31 18.47 27.07 19.17 26.98 19.31 27.23 19.32 27.22 19.67 27.78 19.62 27.8 19.62 27.79 18.77 27.7 18.67 28.39 18.63 28.9 18.98 29.04 18.73 29.49 19.37 29.85 18.93 30.13 17.67 30.29 16.08 29.93 13.45 30 11.24 29.07 11.24 29.07" fill="#fff" fill-rule="evenodd"/><polygon points="17.87 28.54 17.98 28.36 18.32 28.2 18.46 27.81 18.46 29.7 18.65 29.52 19.15 29.83 18.94 30.04 17.7 30.15 16.2 29.76 16.07 29.36 15.86 29.22 15.99 29.72 13.58 29.82 12.96 29.52 11.72 28.58 12.42 27.88 13.51 27.54 15.34 27.54 16.18 27.63 16.24 27.95 16.17 28.23 16.43 27.91 16.52 27.54 17.89 26.33 18.27 26.26 19.34 26.48 19.89 26.62 19.95 26.93 19.99 27.9 20 28.04 19.8 27.99 19.17 26.98 18.47 27.07 17.79 28.31 17.87 28.54 17.87 28.54" fill="#816a6a" fill-rule="evenodd"/><polygon points="18.67 28.39 18.77 27.7 19.62 27.79 19.78 28.05 20.05 28.11 20.06 27.2 20.52 27.25 20.13 29.26 18.98 29.04 18.63 28.9 18.67 28.39 18.67 28.39" fill="#816a6a" fill-rule="evenodd"/><polygon points="18.73 29.49 18.98 29.04 20.13 29.26 20.12 29.36 19.37 29.85 18.73 29.49 18.73 29.49" fill="#816a6a" fill-rule="evenodd"/><polygon points="20.05 27.1 20.64 27.2 20.24 29.28 19.37 29.85 19.29 29.8 20.13 29.26 20.52 27.25 20.06 27.2 20.05 27.1 20.05 27.1" fill="#fff" fill-rule="evenodd"/><polygon points="20.03 27.87 20.04 27.78 20.45 27.84 20.44 27.93 20.03 27.87 20.03 27.87" fill="#fff" fill-rule="evenodd"/><polygon points="18.68 28.31 20.34 28.5 20.33 28.59 18.68 28.4 18.68 28.31 18.68 28.31" fill="#fff" fill-rule="evenodd"/><polygon points="18.85 28.99 20.15 29.2 20.13 29.29 18.84 29.08 18.85 28.99 18.85 28.99" fill="#fff" fill-rule="evenodd"/><polygon points="19.79 27.26 19.74 27.78 19.07 27.72 19.12 27.2 19.79 27.26 19.79 27.26" fill="#816a6a" fill-rule="evenodd"/><polygon points="19.28 27.15 19.67 27.78 19.62 27.81 19.23 27.18 19.28 27.15 19.28 27.15" fill="#fff" fill-rule="evenodd"/><polygon points="17.02 34.93 18.36 32.73 18.42 30.47 20.24 29.28 20.77 29.71 21.44 30.34 21.21 30.5 20.07 30.28 19.71 30.75 19.61 30.75 20.04 30.24 21.19 30.46 21.38 30.33 20.66 29.8 20.3 29.51 19.91 29.66 18.7 30.4 18.59 30.76 18.52 32.73 18.97 32.83 19.19 33.05 18.6 32.96 18.36 33.05 17.48 34.75 16.9 36.09 17.02 34.93 17.02 34.93" fill="#fff" fill-rule="evenodd"/><polygon points="18.63 36.52 19.81 34.81 20.05 34.41 19.78 33.87 19.82 33.69 19.93 34.01 20.22 34.22 21.34 33.49 21.72 32.92 22.01 32.18 21.54 32.33 21.61 32.54 20.61 31.87 20.39 31.36 19.9 30.87 20.3 31.65 20.22 32.12 20.29 32.35 20.11 32.17 20.15 32.06 19.61 30.75 20.04 30.24 20.91 30.44 20.27 31 21.06 31.91 21.4 31.75 21.55 32.24 22.16 32.04 21.82 32.91 21.42 33.56 20.09 34.49 19.16 36.31 18.63 36.52 18.63 36.52" fill="#fff" fill-rule="evenodd"/><polygon points="18.36 33.05 18.6 32.96 19.19 33.05 18.97 32.83 18.52 32.73 18.59 30.76 18.7 30.4 19.91 29.66 20.3 29.51 20.66 29.8 21.38 30.33 21.19 30.46 20.04 30.24 19.61 30.75 20.15 32.06 20.11 32.17 20.29 32.35 20.22 32.12 20.3 31.65 19.9 30.87 20.39 31.36 20.61 31.87 21.61 32.54 21.54 32.33 22.01 32.18 21.72 32.92 21.34 33.49 20.22 34.22 19.93 34.01 19.82 33.69 19.78 33.87 20.05 34.41 19.81 34.81 18.63 36.52 16.76 37.25 17.02 34.93 16.9 36.09 17.48 34.75 18.36 33.05 18.36 33.05" fill="#816a6a" fill-rule="evenodd"/><polygon points="20.72 31.53 20.27 31 20.91 30.44 21.21 30.5 21.44 30.34 20.77 29.71 21.12 29.41 22.34 31.05 21.4 31.75 21.06 31.91 20.72 31.53 20.72 31.53" fill="#816a6a" fill-rule="evenodd"/><polygon points="22.16 32.04 21.55 32.24 21.4 31.75 22.34 31.05 22.47 31.23 22.16 32.04 22.16 32.04" fill="#816a6a" fill-rule="evenodd"/><polygon points="20.22 30.31 20.91 30.44 20.37 30.91 20 30.53 20.22 30.31 20.22 30.31" fill="#816a6a" fill-rule="evenodd"/><polygon points="20.7 29.66 21.12 29.24 22.51 31.1 22.14 32.05 22.06 32.07 22.42 31.17 21.12 29.41 20.77 29.71 20.7 29.66 20.7 29.66" fill="#fff" fill-rule="evenodd"/><polygon points="22.34 31.05 21.28 31.84 21.27 31.81 22.29 30.96 22.34 31.05 22.34 31.05" fill="#fff" fill-rule="evenodd"/><polygon points="21.88 30.39 21.93 30.44 20.72 31.53 20.66 31.49 21.88 30.39 21.88 30.39" fill="#fff" fill-rule="evenodd"/><polygon points="20.32 30.87 20.84 30.41 20.91 30.44 20.37 30.91 20.32 30.87 20.32 30.87" fill="#fff" fill-rule="evenodd"/><polygon points="21.24 30.15 21.15 30.1 21.47 29.85 21.54 29.91 21.24 30.15 21.24 30.15" fill="#fff" fill-rule="evenodd"/><polygon points="23.2 38.57 22.64 37.72 23.07 34.87 21.79 33.01 22.56 30.97 23.25 31.01 24.15 31.12 24.06 31.38 23.78 31.52 23.02 31.88 23 32.47 22.91 32.56 22.95 31.86 23.71 31.51 24.03 31.35 24.1 31.16 23.84 31.12 23.09 31.14 22.66 31.16 22.35 31.83 22.15 32.76 22.21 33.19 23.29 34.82 24.16 34.66 24.03 34.97 23.27 34.97 23 37.14 23.2 38.57 23.2 38.57" fill="#fff" fill-rule="evenodd"/><polygon points="23.15 31 23.29 30.42 25.47 31.11 25.51 31.24 23.35 30.56 23.25 31.01 23.15 31 23.15 31" fill="#fff" fill-rule="evenodd"/><polygon points="23.99 30.73 23.89 31.09 23.82 31.08 23.91 30.71 23.99 30.73 23.99 30.73" fill="#fff" fill-rule="evenodd"/><polygon points="25.34 38.01 25.4 35.35 25.33 35.07 24.98 35.01 25 34.91 25.55 34.84 25.84 33.65 25.9 33 25.7 32.3 25.42 32.72 25.55 32.85 23.65 32.71 23.99 32.95 24.08 33.16 24.13 33.28 24.13 33.39 22.91 32.56 23.02 31.88 23.78 31.52 23.6 32.35 24.77 32.62 24.95 32.29 25.37 32.59 25.73 32.09 25.98 32.96 26.04 33.74 25.5 35.27 25.82 37.34 25.34 38.01 25.34 38.01" fill="#fff" fill-rule="evenodd"/><polygon points="22.21 33.19 22.15 32.76 22.35 31.83 22.66 31.16 23.09 31.14 23.84 31.12 24.1 31.16 24.03 31.35 23.71 31.51 22.95 31.86 22.91 32.56 24.13 33.39 24.13 33.28 24.08 33.16 23.99 32.95 23.65 32.71 25.55 32.85 25.42 32.72 25.7 32.3 25.9 33 25.84 33.65 25.55 34.84 25 34.91 24.98 35.01 25.33 35.07 25.4 35.35 25.34 38.01 24.03 39.8 23.2 38.57 23 37.14 23.27 34.97 24.03 34.97 24.16 34.66 23.29 34.82 22.21 33.19 22.21 33.19" fill="#816a6a" fill-rule="evenodd"/><polygon points="25.98 32.96 25.73 32.09 25.37 32.59 24.95 32.29 25.3 31.17 25.51 31.24 25.98 32.96 25.98 32.96" fill="#816a6a" fill-rule="evenodd"/><polygon points="24.6 30.97 23.98 30.79 23.94 30.92 23.99 30.76 25.3 31.17 24.95 32.29 24.77 32.62 24.27 32.5 24.6 30.97 24.6 30.97" fill="#816a6a" fill-rule="evenodd"/><polygon points="24.27 32.5 23.6 32.35 23.78 31.52 24.06 31.38 24.15 31.12 23.89 31.09 23.94 30.92 23.98 30.79 24.6 30.97 24.27 32.5 24.27 32.5" fill="#816a6a" fill-rule="evenodd"/><polygon points="23.35 30.56 23.91 30.73 23.82 31.08 23.25 31.01 23.35 30.56 23.35 30.56" fill="#816a6a" fill-rule="evenodd"/><polygon points="23.21 31.82 23.7 31.56 23.6 32.07 23.21 32.07 23.21 31.82 23.21 31.82" fill="#816a6a" fill-rule="evenodd"/><polygon points="24.56 30.94 24.65 30.96 24.32 32.52 24.21 32.51 24.56 30.94 24.56 30.94" fill="#fff" fill-rule="evenodd"/><polygon points="24.89 32.4 25.23 31.15 25.3 31.17 24.98 32.31 24.89 32.4 24.89 32.4" fill="#fff" fill-rule="evenodd"/><polygon points="26.81 30.16 26.89 30.43 26.34 31.44 26.67 31.93 26.66 32.05 26.26 31.44 26.76 30.59 26.81 30.4 26.73 30.28 25.89 30.85 25.65 31.11 26.24 32.88 27.29 33.33 28.34 33.54 28.77 33.32 28.95 33.5 28.78 33.57 28.42 33.93 28.98 35.21 30.17 36.82 29.32 36.55 29.1 36.25 28.14 33.83 26.01 33.08 25.44 30.98 26.01 30.6 26.81 30.16 26.81 30.16" fill="#fff" fill-rule="evenodd"/><polygon points="31.61 34.83 30.31 33.13 30.21 32.84 29.58 33.08 29.77 32.88 30.05 32.44 29.8 31.49 29.69 31.08 28.84 30.09 28.74 30.02 28.71 30.43 28.75 30.67 28.88 30.9 27.76 31.55 27.57 31.78 28.06 31.92 28.19 32.01 26.66 32.05 26.34 31.44 26.75 30.7 27.08 31.48 28.19 31.01 28.15 30.64 28.66 30.64 28.66 30.02 28.48 29.62 28.13 29.41 25.83 30.18 26.03 30.64 25.94 30.69 25.69 30.12 28.17 29.32 28.49 29.55 29.89 31.19 30.34 32.73 31.55 33.94 31.61 34.83 31.61 34.83" fill="#fff" fill-rule="evenodd"/><polygon points="27.77 29.53 28.17 30.68 28.16 30.73 27.72 29.52 27.77 29.53 27.77 29.53" fill="#fff" fill-rule="evenodd"/><polygon points="27.73 31.23 27.66 31.23 27 29.75 27.06 29.73 27.73 31.23 27.73 31.23" fill="#fff" fill-rule="evenodd"/><polygon points="26.47 29.97 26.59 30.29 26.54 30.31 26.41 29.98 26.47 29.97 26.47 29.97" fill="#fff" fill-rule="evenodd"/><polygon points="28.19 32.01 28.06 31.92 27.57 31.78 27.76 31.55 28.88 30.9 28.75 30.67 28.71 30.43 28.74 30.02 28.84 30.09 29.69 31.08 29.8 31.49 30.05 32.44 29.77 32.88 29.58 33.08 30.21 32.84 30.31 33.13 31.61 34.83 31.79 37.35 30.17 36.82 28.98 35.21 28.42 33.93 28.78 33.57 28.95 33.5 28.77 33.32 28.34 33.54 27.29 33.33 26.24 32.88 25.65 31.11 25.89 30.85 26.73 30.28 26.81 30.4 26.76 30.59 26.26 31.44 26.66 32.05 28.19 32.01 28.19 32.01" fill="#816a6a" fill-rule="evenodd"/><polygon points="28.66 30.02 28.66 30.64 28.16 30.64 27.77 29.53 28.13 29.41 28.48 29.62 28.66 30.02 28.66 30.02" fill="#816a6a" fill-rule="evenodd"/><polygon points="28.16 30.73 28.19 31.01 27.72 31.21 27.07 29.76 27.73 29.54 28.16 30.73 28.16 30.73" fill="#816a6a" fill-rule="evenodd"/><polygon points="26.49 30.04 26.47 29.97 27.01 29.78 27.66 31.23 27.08 31.48 26.75 30.7 26.89 30.43 26.81 30.16 26.59 30.29 26.49 30.04 26.49 30.04" fill="#816a6a" fill-rule="evenodd"/><polygon points="26.01 30.6 25.83 30.18 26.41 29.98 26.54 30.31 26.01 30.6 26.01 30.6" fill="#816a6a" fill-rule="evenodd"/><polygon points="26.7 30.77 26.99 31.38 26.61 31.63 26.42 31.29 26.7 30.77 26.7 30.77" fill="#816a6a" fill-rule="evenodd"/><polygon points="31.73 29.25 32.08 28.55 32.31 28.42 32.24 28.95 32.42 29.13 33.2 29.47 35.8 29.94 34.51 30.25 32.08 29.32 30.09 30.38 28.49 29.55 28.17 29.32 28.27 28.7 28.49 27.81 28.74 27.93 29.11 29.03 29.7 29.12 29.73 29.17 29.06 29.09 28.69 27.96 28.53 27.93 28.43 28.46 28.39 29.08 28.51 29.41 29.16 29.73 30 30.07 30.76 29.81 31.73 29.25 31.73 29.25" fill="#fff" fill-rule="evenodd"/><polygon points="28.27 28.7 28.26 28.78 27.74 28.6 28.85 26.09 28.9 26.17 27.84 28.55 28.27 28.7 28.27 28.7" fill="#fff" fill-rule="evenodd"/><polygon points="36.16 27.71 34.34 27.26 33.14 27.08 32.82 27.08 32.66 27.47 32.57 27.22 32.18 26.83 31.21 26.37 30.02 26.32 29.76 26.37 30.17 26.71 30.17 28.26 30.39 28.11 30.77 27.96 30.54 28.33 29.73 29.17 29.11 29.03 28.84 28.22 29.64 28.51 30.05 27.37 29.74 27.15 30.09 26.78 29.64 26.36 29.36 26.24 29.66 26.18 31.31 26.25 32.77 26.96 35.44 26.85 36.16 27.71 36.16 27.71" fill="#fff" fill-rule="evenodd"/><polygon points="30.17 26.71 29.76 26.37 30.02 26.32 31.21 26.37 32.18 26.83 32.57 27.22 32.66 27.47 32.82 27.08 33.14 27.08 34.34 27.26 36.16 27.71 37.53 29.36 37.52 29.52 35.8 29.94 33.2 29.47 32.42 29.13 32.24 28.95 32.31 28.42 32.08 28.55 31.73 29.25 30.76 29.81 30 30.07 29.16 29.73 28.51 29.41 28.39 29.08 28.43 28.46 28.53 27.93 28.69 27.96 29.06 29.09 29.73 29.17 30.54 28.33 30.77 27.96 30.39 28.11 30.17 28.26 30.17 26.71 30.17 26.71" fill="#816a6a" fill-rule="evenodd"/><polygon points="30.09 26.78 29.74 27.15 28.67 26.68 28.9 26.17 28.98 26.32 29.36 26.24 29.64 26.36 30.09 26.78 30.09 26.78" fill="#816a6a" fill-rule="evenodd"/><polygon points="29.88 27.85 29.64 28.51 28.84 28.22 28.74 27.93 28.49 27.81 28.27 28.7 27.84 28.55 28.67 26.68 29.74 27.15 30.05 27.37 29.88 27.85 29.88 27.85" fill="#816a6a" fill-rule="evenodd"/><polygon points="29.05 28.85 28.86 28.28 29.55 28.55 29.45 28.95 29.05 28.85 29.05 28.85" fill="#816a6a" fill-rule="evenodd"/><polygon points="28.43 28.07 28.41 28.14 28.08 28 28.1 27.92 28.43 28.07 28.43 28.07" fill="#fff" fill-rule="evenodd"/><polygon points="28.36 27.33 29.94 27.82 29.92 27.9 28.31 27.4 28.36 27.33 28.36 27.33" fill="#fff" fill-rule="evenodd"/><polygon points="28.64 26.66 29.85 27.12 29.82 27.21 28.62 26.72 28.64 26.66 28.64 26.66" fill="#fff" fill-rule="evenodd"/><g><path d="M20.78,27.27c.08,.14,.18,.27,.23,.41,.23,.66,.67,1.11,1.3,1.41,.92,.44,2.69,.11,3.37-.66,.04-.05,.09-.1,.11-.16,.26-.63,.03-1.16-.38-1.62-.33-.36-.79-.38-1.23-.24-.43,.13-.87,.3-.91,.85-.03,.4,.28,.74,.66,.76,.41,.02,.68-.24,.71-.76,.11,.1,.25,.16,.25,.23,0,.16,0,.37-.1,.47-.36,.41-1.14,.35-1.55-.08-.41-.42-.4-1.13,.05-1.48,.29-.23,.61-.5,.95-.56,.91-.16,1.78,.55,1.94,1.48,.19,1.12-.24,1.79-1.52,2.17-.85,.26-1.72,.24-2.56-.1-.73-.29-1.49-1.42-1.32-2.12Z" fill="#fff"/><path d="M24.05,22.83c-.44,.6,.11,1.03,.22,1.53,.06,.26,.1,.51,.13,.77,0,.04-.1,.11-.16,.13-.03,0-.13-.08-.12-.12,.08-.58-.27-1.01-.48-1.49-.18-.41-.09-.65,.41-.83Z" fill="#fff"/><path d="M21.9,23.81c.14,.8,1,1.14,1.27,1.96-.67-.18-1.51-1.49-1.27-1.96Z" fill="#fff"/><path d="M25.84,22.96c-.42,.31-.29,.56-.12,.94,.14,.31-.03,.76-.07,1.15,0,.03-.11,.08-.16,.07-.04-.01-.09-.1-.09-.15,0-.1,.03-.21,.07-.31,.12-.32,.09-.6-.13-.89-.27-.36-.06-.72,.5-.8Z" fill="#fff"/><path d="M27.88,23.97c-.33,.2-.39,.45-.34,.81,.05,.37-.57,.77-.95,.63,.12-.09,.21-.18,.32-.25,.26-.15,.37-.34,.3-.66-.08-.37,.19-.58,.67-.54Z" fill="#fff"/><path d="M19.97,25.59c.2,0,.42-.06,.59,.01,.51,.2,.99,.46,1.59,.74-.18,.04-.32,.12-.42,.08-.43-.19-.85-.41-1.28-.61-.15-.07-.32-.09-.48-.14v-.08Z" fill="#fff"/><path d="M28.81,26.34c-.19,.07-.37,.18-.56,.2-.34,.03-.69,0-1.08,0,.08-.08,.16-.2,.24-.21,.45-.05,.91-.08,1.37-.11l.03,.11Z" fill="#fff"/><path d="M27.22,27.78h.71v.12l-.7,.04v-.16Z" fill="#fff"/></g></g></svg>