<?xml version="1.0" encoding="utf-8"?>
<!-- Generator: Adobe Illustrator 26.2.1, SVG Export Plug-In . SVG Version: 6.00 Build 0)  -->
<svg version="1.1" id="a" xmlns="http://www.w3.org/2000/svg" xmlns:xlink="http://www.w3.org/1999/xlink" x="0px" y="0px"
	 viewBox="0 0 48.8 54.9" style="enable-background:new 0 0 48.8 54.9;" xml:space="preserve">
<style type="text/css">
	.st0{fill:#CCCCCC;enable-background:new    ;}
	.st1{fill:#FFFFFF;}
</style>
<polygon class="st0" points="-226.3,25 -226.3,27.1 -226.5,29 -226.8,30.7 -227.2,32.5 -227.7,34.2 -228.4,35.9 -229.2,37.5 
	-230.1,39.1 -231.1,40.6 -232.2,42 -233.5,43.4 -234.8,44.6 -236.2,45.7 -237.7,46.7 -239.3,47.7 -240.9,48.4 -242.6,49.1 
	-244.3,49.7 -246.1,50.1 -247.9,50.3 -249.7,50.5 -251.8,50.5 -253.6,50.3 -255.4,50.1 -257.1,49.7 -258.9,49.1 -260.5,48.4 
	-262.2,47.7 -263.8,46.7 -265.2,45.7 -266.7,44.6 -268,43.4 -269.2,42 -270.4,40.6 -271.4,39.1 -272.3,37.5 -273.1,35.9 
	-273.7,34.2 -274.3,32.5 -274.7,30.7 -275,29 -275.1,27.1 -275.1,25 -275,23.2 -274.7,21.5 -274.3,19.7 -273.7,18 -273.1,16.3 
	-272.3,14.6 -271.4,13.1 -270.4,11.6 -269.2,10.2 -268,8.8 -266.7,7.6 -265.2,6.5 -263.8,5.4 -262.2,4.5 -260.5,3.8 -258.9,3.1 
	-257.1,2.5 -255.4,2.1 -253.6,1.9 -251.8,1.7 -250.7,1.7 -249.7,1.7 -247.9,1.9 -246.1,2.1 -244.3,2.5 -242.6,3.1 -240.9,3.8 
	-239.3,4.5 -237.7,5.4 -236.2,6.5 -234.8,7.6 -233.5,8.8 -232.2,10.2 -231.1,11.6 -230.1,13.1 -229.2,14.6 -228.4,16.3 -227.7,18 
	-227.2,19.7 -226.8,21.5 -226.5,23.2 "/>
<g>
	<path class="st1" d="M-253.3,28.4h-9.3v3.9h10.4v5.2H-269V14.6h16.3v5.2h-9.9v3.5h9.3V28.4z"/>
	<path class="st1" d="M-242.2,21L-242.2,21l-4.6,2l-1-4.7l6.7-2.9h5.1v22.1h-6.2V21z"/>
</g>
<polygon class="st0" points="-157.6,25 -157.6,27.1 -157.7,29 -158,30.7 -158.4,32.5 -158.9,34.2 -159.6,35.9 -160.4,37.5 
	-161.3,39.1 -162.3,40.6 -163.5,42 -164.7,43.4 -166,44.6 -167.4,45.7 -168.9,46.7 -170.5,47.7 -172.1,48.4 -173.8,49.1 
	-175.5,49.7 -177.3,50.1 -179.1,50.3 -180.9,50.5 -183,50.5 -184.8,50.3 -186.6,50.1 -188.4,49.7 -190.1,49.1 -191.8,48.4 
	-193.4,47.7 -195,46.7 -196.5,45.7 -197.9,44.6 -199.2,43.4 -200.4,42 -201.6,40.6 -202.6,39.1 -203.5,37.5 -204.3,35.9 -205,34.2 
	-205.5,32.5 -205.9,30.7 -206.2,29 -206.3,27.1 -206.3,25 -206.2,23.2 -205.9,21.5 -205.5,19.7 -205,18 -204.3,16.3 -203.5,14.6 
	-202.6,13.1 -201.6,11.6 -200.4,10.2 -199.2,8.8 -197.9,7.6 -196.5,6.5 -195,5.4 -193.4,4.5 -191.8,3.8 -190.1,3.1 -188.4,2.5 
	-186.6,2.1 -184.8,1.9 -183,1.7 -181.9,1.7 -180.9,1.7 -179.1,1.9 -177.3,2.1 -175.5,2.5 -173.8,3.1 -172.1,3.8 -170.5,4.5 
	-168.9,5.4 -167.4,6.5 -166,7.6 -164.7,8.8 -163.5,10.2 -162.3,11.6 -161.3,13.1 -160.4,14.6 -159.6,16.3 -158.9,18 -158.4,19.7 
	-158,21.5 -157.7,23.2 "/>
<g>
	<path class="st1" d="M-185.2,28.4h-9.3v3.9h10.4v5.2h-16.8V14.6h16.3v5.2h-9.9v3.5h9.3V28.4z"/>
	<path class="st1" d="M-181.1,37.5v-3.7l3.3-2.6c5-4,7.3-6.2,7.4-8.3c0-1.6-1.1-2.8-3.5-2.8c-2,0-3.9,1.1-5.2,2l-1.9-4.5
		c1.9-1.4,4.9-2.6,8.5-2.6c5.1,0,8.6,2.5,8.6,7.3c0,3.3-2.5,6.1-5.2,8.1l-2.5,1.8v0.1h8.1v5.2H-181.1z"/>
</g>
<polygon class="st0" points="-88.8,25 -88.8,27.1 -88.9,29 -89.2,30.7 -89.6,32.5 -90.2,34.2 -90.8,35.9 -91.6,37.5 -92.5,39.1 
	-93.6,40.6 -94.7,42 -95.9,43.4 -97.2,44.6 -98.6,45.7 -100.1,46.7 -101.7,47.7 -103.3,48.4 -105,49.1 -106.8,49.7 -108.5,50.1 
	-110.3,50.3 -112.1,50.5 -114.2,50.5 -116,50.3 -117.8,50.1 -119.6,49.7 -121.3,49.1 -123,48.4 -124.6,47.7 -126.2,46.7 
	-127.7,45.7 -129.1,44.6 -130.4,43.4 -131.7,42 -132.8,40.6 -133.8,39.1 -134.7,37.5 -135.5,35.9 -136.2,34.2 -136.7,32.5 
	-137.1,30.7 -137.4,29 -137.6,27.1 -137.6,25 -137.4,23.2 -137.1,21.5 -136.7,19.7 -136.2,18 -135.5,16.3 -134.7,14.6 -133.8,13.1 
	-132.8,11.6 -131.7,10.2 -130.4,8.8 -129.1,7.6 -127.7,6.5 -126.2,5.4 -124.6,4.5 -123,3.8 -121.3,3.1 -119.6,2.5 -117.8,2.1 
	-116,1.9 -114.2,1.7 -113.2,1.7 -112.1,1.7 -110.3,1.9 -108.5,2.1 -106.8,2.5 -105,3.1 -103.3,3.8 -101.7,4.5 -100.1,5.4 -98.6,6.5 
	-97.2,7.6 -95.9,8.8 -94.7,10.2 -93.6,11.6 -92.5,13.1 -91.6,14.6 -90.8,16.3 -90.2,18 -89.6,19.7 -89.2,21.5 -88.9,23.2 "/>
<g>
	<path class="st1" d="M-115.4,28.4h-9.3v3.9h10.4v5.2h-16.8V14.6h16.3v5.2h-9.9v3.5h9.3V28.4z"/>
	<path class="st1" d="M-110.2,31.4c0.9,0.4,3.4,1.5,5.9,1.5c2.2,0,3.8-0.6,3.8-2.2c0-1.6-1.9-2.5-3.9-2.5h-2.9v-4.5h2.8
		c1.5,0,3.4-0.5,3.4-1.9c0-1.1-1.1-1.8-3.2-1.8c-2.1,0-4.5,1-5.3,1.4l-1.4-4.6c1.6-1,4.7-1.8,8.1-1.8c5.1,0,8.3,2.4,8.3,5.7
		c0,2.4-1.3,4.2-4.3,5.2v0.1c2.8,0.3,5.1,2.3,5.1,5.2c0,4.3-4.1,6.8-10,6.8c-3.4,0-6.2-0.8-7.7-1.8L-110.2,31.4z"/>
</g>
<polygon class="st0" points="-20,25 -20,27.1 -20.1,29 -20.4,30.7 -20.8,32.5 -21.4,34.2 -22,35.9 -22.8,37.5 -23.7,39.1 
	-24.8,40.6 -25.9,42 -27.1,43.4 -28.5,44.6 -29.9,45.7 -31.4,46.7 -32.9,47.7 -34.6,48.4 -36.2,49.1 -38,49.7 -39.8,50.1 
	-41.5,50.3 -43.3,50.5 -45.4,50.5 -47.2,50.3 -49,50.1 -50.8,49.7 -52.5,49.1 -54.2,48.4 -55.8,47.7 -57.4,46.7 -58.9,45.7 
	-60.3,44.6 -61.6,43.4 -62.9,42 -64,40.6 -65,39.1 -65.9,37.5 -66.7,35.9 -67.4,34.2 -67.9,32.5 -68.4,30.7 -68.6,29 -68.8,27.1 
	-68.8,25 -68.6,23.2 -68.4,21.5 -67.9,19.7 -67.4,18 -66.7,16.3 -65.9,14.6 -65,13.1 -64,11.6 -62.9,10.2 -61.6,8.8 -60.3,7.6 
	-58.9,6.5 -57.4,5.4 -55.8,4.5 -54.2,3.8 -52.5,3.1 -50.8,2.5 -49,2.1 -47.2,1.9 -45.4,1.7 -44.4,1.7 -43.3,1.7 -41.5,1.9 
	-39.8,2.1 -38,2.5 -36.2,3.1 -34.6,3.8 -32.9,4.5 -31.4,5.4 -29.9,6.5 -28.5,7.6 -27.1,8.8 -25.9,10.2 -24.8,11.6 -23.7,13.1 
	-22.8,14.6 -22,16.3 -21.4,18 -20.8,19.7 -20.4,21.5 -20.1,23.2 "/>
<g>
	<path class="st1" d="M-47.8,28.4h-9.3v3.9h10.4v5.2h-16.8V14.6h16.3v5.2h-9.9v3.5h9.3V28.4z"/>
	<path class="st1" d="M-34,37.5v-5h-10.2v-4.1l7.9-13.1h8.5v12.5h2.5v4.7h-2.5v5H-34z M-34,27.9v-3.8c0-1.5,0.1-3.1,0.1-4.8H-34
		c-0.8,1.7-1.5,3.2-2.4,4.9l-1.8,3.6l0,0.1H-34z"/>
</g>
<polygon class="st0" points="48.8,25 48.8,27.1 48.6,29 48.3,30.7 47.9,32.5 47.4,34.2 46.7,35.9 46,37.5 45,39.1 44,40.6 42.9,42 
	41.7,43.4 40.3,44.6 38.9,45.7 37.4,46.7 35.8,47.7 34.2,48.4 32.5,49.1 30.8,49.7 29,50.1 27.2,50.3 25.4,50.5 23.3,50.5 
	21.5,50.3 19.8,50.1 18,49.7 16.2,49.1 14.6,48.4 12.9,47.7 11.4,46.7 9.9,45.7 8.5,44.6 7.1,43.4 5.9,42 4.8,40.6 3.7,39.1 
	2.8,37.5 2,35.9 1.4,34.2 0.8,32.5 0.4,30.7 0.2,29 0,27.1 0,25 0.2,23.2 0.4,21.5 0.8,19.7 1.4,18 2,16.3 2.8,14.6 3.7,13.1 
	4.8,11.6 5.9,10.2 7.1,8.8 8.5,7.6 9.9,6.5 11.4,5.4 12.9,4.5 14.6,3.8 16.2,3.1 18,2.5 19.8,2.1 21.5,1.9 23.3,1.7 24.4,1.7 
	25.4,1.7 27.2,1.9 29,2.1 30.8,2.5 32.5,3.1 34.2,3.8 35.8,4.5 37.4,5.4 38.9,6.5 40.3,7.6 41.7,8.8 42.9,10.2 44,11.6 45,13.1 
	46,14.6 46.7,16.3 47.4,18 47.9,19.7 48.3,21.5 48.6,23.2 "/>
<g>
	<path class="st1" d="M22.2,28.4h-9.3v3.9h10.4v5.2H6.4V14.6h16.3v5.2h-9.9v3.5h9.3V28.4z"/>
	<path class="st1" d="M42.8,20.6h-9.6l-0.3,2.1c0.6-0.1,1-0.1,1.5-0.1c2.8,0,5.3,0.6,7,1.8c1.8,1.2,2.7,3.1,2.7,5.6
		c0,4-3.8,7.8-10.7,7.8c-3.2,0-5.7-0.6-7.1-1.3l1.1-4.7c1.1,0.5,3.5,1.2,5.7,1.2c1.8,0,4.3-0.5,4.3-2.6c0-1.8-1.6-3-6.7-3
		c-1.4,0-2.3,0.1-3.4,0.2l1.5-12.2h13.9V20.6z"/>
</g>
<polygon class="st0" points="117.6,25 117.6,27.1 117.4,29 117.1,30.7 116.7,32.5 116.2,34.2 115.5,35.9 114.7,37.5 113.8,39.1 
	112.8,40.6 111.7,42 110.4,43.4 109.1,44.6 107.7,45.7 106.2,46.7 104.6,47.7 103,48.4 101.3,49.1 99.6,49.7 97.8,50.1 96,50.3 
	94.2,50.5 92.1,50.5 90.3,50.3 88.5,50.1 86.8,49.7 85,49.1 83.3,48.4 81.7,47.7 80.2,46.7 78.7,45.7 77.2,44.6 75.9,43.4 74.7,42 
	73.5,40.6 72.5,39.1 71.6,37.5 70.8,35.9 70.2,34.2 69.6,32.5 69.2,30.7 68.9,29 68.8,27.1 68.8,25 68.9,23.2 69.2,21.5 69.6,19.7 
	70.2,18 70.8,16.3 71.6,14.6 72.5,13.1 73.5,11.6 74.7,10.2 75.9,8.8 77.2,7.6 78.7,6.5 80.2,5.4 81.7,4.5 83.3,3.8 85,3.1 
	86.8,2.5 88.5,2.1 90.3,1.9 92.1,1.7 93.2,1.7 94.2,1.7 96,1.9 97.8,2.1 99.6,2.5 101.3,3.1 103,3.8 104.6,4.5 106.2,5.4 107.7,6.5 
	109.1,7.6 110.4,8.8 111.7,10.2 112.8,11.6 113.8,13.1 114.7,14.6 115.5,16.3 116.2,18 116.7,19.7 117.1,21.5 117.4,23.2 "/>
<g>
	<path class="st1" d="M91,28.4h-9.3v3.9h10.4v5.2H75.2V14.6h16.3v5.2h-9.9v3.5H91V28.4z"/>
	<path class="st1" d="M110.8,19.9c-0.6-0.1-1.1-0.1-1.9-0.1c-5.2,0.1-7.2,1.9-7.8,3.9h0.1c1.3-1,2.8-1.3,4.8-1.3
		c3.8,0,7.5,2.4,7.5,7.4c0,4.8-4.1,8.1-9.1,8.1c-7.1,0-9.9-5.1-9.9-9.9c0-3.8,1.4-7.3,4-9.6c2.7-2.3,6-3.4,10.4-3.4
		c0.9,0,1.4,0.1,1.9,0.1V19.9z M106.9,30.3c0-1.7-0.9-3.3-3.1-3.3c-1.4,0-2.5,0.8-2.9,1.8c-0.1,0.3-0.2,0.5-0.2,1
		c0.2,1.6,1.2,3.5,3.5,3.5C105.8,33.2,106.9,32,106.9,30.3z"/>
</g>
</svg>
